<?xml version="1.0" standalone="no"?>
<!DOCTYPE svg PUBLIC "-//W3C//DTD SVG 1.1//EN" "http://www.w3.org/Graphics/SVG/1.1/DTD/svg11.dtd" >
<svg>
<metadata>
Created by FontForge 20090914 at Thu Mar  3 23:50:42 2016
 By www-data
Copyright (c) 2013-2016, Sorkin Type Co (www.sorkintype.com) with Reserved Font Name 'Merriweather'
</metadata>
<defs>
<font id="MerriweatherSans-Regular" horiz-adv-x="1217" >
  <font-face 
    font-family="Merriweather Sans"
    font-weight="400"
    font-stretch="normal"
    units-per-em="2048"
    panose-1="0 0 5 0 0 0 0 0 0 0"
    ascent="1638"
    descent="-410"
    x-height="1140"
    cap-height="1522"
    bbox="-318 -560 2725 2070"
    underline-thickness="137"
    underline-position="-143"
    unicode-range="U+000D-U+FB02"
  />
<missing-glyph horiz-adv-x="1872" 
d="M1644 1416v-1416h-1416v1416h1416zM1295 219l122 122l-363 368l363 358l-128 124l-352 -366l-357 368l-123 -125l359 -363l-358 -342l128 -144l347 368z" />
    <glyph glyph-name="fi" unicode="fi" horiz-adv-x="1417" 
d="M75 974v122l173 44v99c0 106.667 20.5 193 61.5 259s92.833 113.167 155.5 141.5s128 42.5 196 42.5c28 0 55.333 -2.33301 82 -7s46.667 -9.66699 60 -15v-174c-21.333 7.33301 -44.5 12.5 -69.5 15.5s-59.167 4.5 -102.5 4.5c-49.333 0 -88.833 -18.667 -118.5 -56
s-44.5 -91 -44.5 -161v-149h282v-166h-282v-974h-220v974h-173zM1224 1138v-1138h-220v1138h220zM985.5 1560c15.667 24 36.167 42.998 61.5 56.998s51 21 77 21c45.333 0 80.166 -12.667 104.499 -38s36.5 -57.666 36.5 -96.999c0 -29.333 -7.66699 -56 -23 -80
s-35.333 -42.667 -60 -56s-51 -20 -79 -20c-25.333 0 -48.666 5.5 -69.999 16.5s-38.5 26.833 -51.5 47.5s-19.5 44.334 -19.5 71.001c0 28 7.83301 54 23.5 78z" />
    <glyph glyph-name="fl" unicode="fl" horiz-adv-x="1424" 
d="M75 974v122l173 44v99c0 106.667 20.5 193 61.5 259s92.833 113.167 155.5 141.5s128 42.5 196 42.5c28 0 55.333 -2.33301 82 -7s46.667 -9.66699 60 -15v-174c-21.333 7.33301 -44.5 12.5 -69.5 15.5s-59.167 4.5 -102.5 4.5c-49.333 0 -88.833 -18.667 -118.5 -56
s-44.5 -91 -44.5 -161v-149h282v-166h-282v-974h-220v974h-173zM1228 1664v-1664h-220v1664h220z" />
    <glyph glyph-name="f_f" unicode="ff" horiz-adv-x="1622" 
d="M75 974v122l173 44v99c0 106.667 20.5 193 61.5 259s92.833 113.167 155.5 141.5s128 42.5 196 42.5c28 0 55.333 -2.33301 82 -7s46.667 -9.66699 60 -15v-174c-21.333 7.33301 -44.5 12.5 -69.5 15.5s-59.167 4.5 -102.5 4.5c-49.333 0 -88.833 -18.667 -118.5 -56
s-44.5 -91 -44.5 -161v-149h282v-166h-282v-974h-220v974h-173zM886 974v122l173 44v99c0 106.667 20.5 193 61.5 259s92.833 113.167 155.5 141.5s128 42.5 196 42.5c28 0 55.333 -2.33301 82 -7s46.667 -9.66699 60 -15v-174c-21.333 7.33301 -44.5 12.5 -69.5 15.5
s-59.167 4.5 -102.5 4.5c-49.333 0 -88.833 -18.667 -118.5 -56s-44.5 -91 -44.5 -161v-149h282v-166h-282v-974h-220v974h-173z" />
    <glyph glyph-name="f_f_i" unicode="ffi" horiz-adv-x="2228" 
d="M75 974v122l173 44v99c0 106.667 20.5 193 61.5 259s92.833 113.167 155.5 141.5s128 42.5 196 42.5c28 0 55.333 -2.33301 82 -7s46.667 -9.66699 60 -15v-174c-21.333 7.33301 -44.5 12.5 -69.5 15.5s-59.167 4.5 -102.5 4.5c-49.333 0 -88.833 -18.667 -118.5 -56
s-44.5 -91 -44.5 -161v-149h282v-166h-282v-974h-220v974h-173zM886 974v122l173 44v99c0 106.667 20.5 193 61.5 259s92.833 113.167 155.5 141.5s128 42.5 196 42.5c28 0 55.333 -2.33301 82 -7s46.667 -9.66699 60 -15v-174c-21.333 7.33301 -44.5 12.5 -69.5 15.5
s-59.167 4.5 -102.5 4.5c-49.333 0 -88.833 -18.667 -118.5 -56s-44.5 -91 -44.5 -161v-149h282v-166h-282v-974h-220v974h-173zM2035 1138v-1138h-220v1138h220zM1796.5 1560c15.667 24 36.167 42.998 61.5 56.998s51 21 77 21c45.333 0 80.166 -12.667 104.499 -38
s36.5 -57.666 36.5 -96.999c0 -29.333 -7.66699 -56 -23 -80s-35.333 -42.667 -60 -56s-51 -20 -79 -20c-25.333 0 -48.666 5.5 -69.999 16.5s-38.5 26.833 -51.5 47.5s-19.5 44.334 -19.5 71.001c0 28 7.83301 54 23.5 78z" />
    <glyph glyph-name="f_f_l" unicode="ffl" horiz-adv-x="2235" 
d="M75 974v122l173 44v99c0 106.667 20.5 193 61.5 259s92.833 113.167 155.5 141.5s128 42.5 196 42.5c28 0 55.333 -2.33301 82 -7s46.667 -9.66699 60 -15v-174c-21.333 7.33301 -44.5 12.5 -69.5 15.5s-59.167 4.5 -102.5 4.5c-49.333 0 -88.833 -18.667 -118.5 -56
s-44.5 -91 -44.5 -161v-149h282v-166h-282v-974h-220v974h-173zM886 974v122l173 44v99c0 106.667 20.5 193 61.5 259s92.833 113.167 155.5 141.5s128 42.5 196 42.5c28 0 55.333 -2.33301 82 -7s46.667 -9.66699 60 -15v-174c-21.333 7.33301 -44.5 12.5 -69.5 15.5
s-59.167 4.5 -102.5 4.5c-49.333 0 -88.833 -18.667 -118.5 -56s-44.5 -91 -44.5 -161v-149h282v-166h-282v-974h-220v974h-173zM2039 1664v-1664h-220v1664h220z" />
    <glyph glyph-name=".notdef" horiz-adv-x="1872" 
d="M1644 1416v-1416h-1416v1416h1416zM1295 219l122 122l-363 368l363 358l-128 124l-352 -366l-357 368l-123 -125l359 -363l-358 -342l128 -144l347 368z" />
    <glyph glyph-name="NULL" horiz-adv-x="0" 
 />
    <glyph glyph-name="NULL" horiz-adv-x="0" 
 />
    <glyph glyph-name="nonmarkingreturn" unicode="&#xd;" horiz-adv-x="0" 
 />
    <glyph glyph-name="space" unicode=" " horiz-adv-x="655" 
 />
    <glyph glyph-name="exclam" unicode="!" horiz-adv-x="602" 
d="M430 1780l-24 -1274h-196l-28 1274h248zM170 219c15.333 26 35.3311 46.666 59.998 61.999s50.334 23 77.001 23c46.667 0 83 -14.833 109 -44.5s39 -66.5 39 -110.5c0 -31.333 -7.5 -60.166 -22.5 -86.499s-35 -47 -60 -62s-51.5 -22.5 -79.5 -22.5
c-26 0 -50.167 6.83301 -72.5 20.5s-40.166 32.5 -53.499 56.5s-20 50.667 -20 80c0 30 7.66699 58 23 84z" />
    <glyph glyph-name="quotedbl" unicode="&#x22;" horiz-adv-x="1284" 
d="M507 1685l-32 -719h-177l-33 719h242zM1018 1685l-32 -719h-177l-33 719h242z" />
    <glyph glyph-name="numbersign" unicode="#" horiz-adv-x="1563" 
d="M1142 880l-34 -369h226v-156h-240l-33 -355h-185l31 355h-310l-33 -355h-187l32 355h-202v156h216l33 369h-215v153h229l31 340h191l-32 -340h307l30 340h190l-31 -340h222v-153h-236zM954 880h-308l-34 -369h309z" />
    <glyph glyph-name="dollar" unicode="$" horiz-adv-x="1372" 
d="M1059 112.5c-73.333 -69 -174.002 -110.169 -302.002 -123.502l-2 -226h-163l2 223c-78.667 4.66699 -151.334 15.667 -218.001 33s-113.667 34.666 -141 51.999l53 183c40.667 -25.333 94.334 -47.166 161.001 -65.499s132.667 -27.5 198 -27.5
c98.667 0 173.834 17 225.501 51s77.5 87.333 77.5 160c0 48 -12.5 89 -37.5 123s-59.5 64.333 -103.5 91s-109.333 61 -196 103c-111.333 54 -202.666 118.667 -273.999 194s-107 163.333 -107 264c0 116.667 37.5 206.334 112.5 269.001s171.167 101.334 288.5 116.001
l2 230h163l-2 -226c68.667 -3.33301 128 -12.5 178 -27.5s89.333 -31.5 118 -49.5l-45 -176c-43.333 26 -87.666 45.833 -132.999 59.5s-105 20.5 -179 20.5c-50.667 0 -98 -6.66699 -142 -20s-79.667 -34 -107 -62s-41 -62.667 -41 -104
c0 -48.667 9.66699 -89.167 29 -121.5s49.166 -62 89.499 -89s101.833 -61.833 184.5 -104.5c85.333 -44 156.833 -85.5 214.5 -124.5s106.5 -86.833 146.5 -143.5s60 -122 60 -196c0 -121.333 -36.667 -216.5 -110 -285.5z" />
    <glyph glyph-name="percent" unicode="%" horiz-adv-x="1962" 
d="M1397 1530l-650 -1530h-190l650 1530h190zM129.5 1301.5c36.333 63.667 84.5 112 144.5 145s125 49.5 195 49.5c76.667 0 140.667 -18.167 192 -54.5s89.333 -85.5 114 -147.5s37 -132.333 37 -211c0 -86.667 -18 -161.5 -54 -224.5s-83.833 -111 -143.5 -144
s-123.834 -49.5 -192.501 -49.5c-71.333 0 -133.166 18.5 -185.499 55.5s-92.333 86.667 -120 149s-41.5 130.833 -41.5 205.5c0 87.333 18.167 162.833 54.5 226.5zM571.5 1275.5c-30.333 49.667 -72.167 74.5 -125.5 74.5c-56 0 -99.333 -23.833 -130 -71.5
s-46 -112.834 -46 -195.501c0 -52 6.83301 -98.5 20.5 -139.5s33.5 -73.167 59.5 -96.5s56.667 -35 92 -35c55.333 0 98.333 23.333 129 70s46 111.334 46 194.001c0 83.333 -15.167 149.833 -45.5 199.5zM1204.5 686.5c36.333 63.667 84.667 112 145 145
s125.5 49.5 195.5 49.5c76.667 0 140.5 -18.167 191.5 -54.5s88.833 -85.5 113.5 -147.5s37 -132.333 37 -211c0 -86.667 -18 -161.5 -54 -224.5s-84 -110.833 -144 -143.5s-124.667 -49 -194 -49c-70 0 -131.167 18.5 -183.5 55.5s-92.333 86.667 -120 149
s-41.5 130.5 -41.5 204.5c0 87.333 18.167 162.833 54.5 226.5zM1647 661.5c-30 49.667 -72 74.499 -126 74.499c-56 0 -99.167 -23.833 -129.5 -71.5s-45.5 -113.167 -45.5 -196.5c0 -52 6.66699 -98.5 20 -139.5s33 -73.167 59 -96.5s56.667 -35 92 -35
c56 0 99.167 23.333 129.5 70s45.5 111.334 45.5 194.001c0 84 -15 150.833 -45 200.5z" />
    <glyph glyph-name="ampersand" unicode="&#x26;" horiz-adv-x="1532" 
d="M1311 134c33.333 -10 72.6699 -17.334 118.003 -22.001v-113c-34 -10 -73 -15 -117 -15c-49.333 0 -93.166 6.33301 -131.499 19s-77.5 32.667 -117.5 60c-44.667 -23.333 -94.834 -42.333 -150.501 -57s-109.167 -22 -160.5 -22c-120.667 0 -226.334 15.333 -317.001 46
s-161.334 76.834 -212.001 138.501s-76 136.834 -76 225.501c0 88 28.167 164.5 84.5 229.5s131.833 119.5 226.5 163.5c-52.667 70 -94 136.333 -124 199s-45 130 -45 202c0 73.333 17 136.833 51 190.5s82.167 95 144.5 124s135.166 43.5 218.499 43.5
c75.333 0 141.333 -16 198 -48s100.167 -74.333 130.5 -127s45.5 -109 45.5 -169c0 -80.667 -13.167 -150.167 -39.5 -208.5s-64 -108.333 -113 -150s-111.167 -79.834 -186.5 -114.501c44 -61.333 100.5 -136 169.5 -224s126.833 -158 173.5 -210
c54.667 56.667 82 132.667 82 228c0 60 -11 128.333 -33 205h192c19.333 -67.333 29 -136 29 -206c0 -146 -46 -260 -138 -342c32 -20.667 64.667 -36 98 -46zM551.004 1342c-38.667 -32 -58 -81.666 -58 -148.999c0 -40.667 4 -75.334 12 -104.001s19.333 -55.167 34 -79.5
s37.667 -57.833 69 -100.5l37 -51c80.667 34.667 141.667 78.834 183 132.501s62 123.167 62 208.5c0 29.333 -7.33301 58.666 -22 87.999s-36.5 53.833 -65.5 73.5s-63.5 29.5 -103.5 29.5c-60 0 -109.333 -16 -148 -48zM835.504 153c29 6.66699 59.167 16.666 90.5 29.999
c-53.333 60 -114.333 134.833 -183 224.5l-186 250.5c-63.333 -33.333 -113 -71.666 -149 -114.999s-54 -91 -54 -143c0 -46 12.833 -88.333 38.5 -127s67.167 -70 124.5 -94s131.333 -36 222 -36c35.333 0 67.5 3.33301 96.5 10z" />
    <glyph glyph-name="quotesingle" unicode="'" horiz-adv-x="772" 
d="M507 1685l-32 -719h-177l-33 719h242z" />
    <glyph glyph-name="parenleft" unicode="(" horiz-adv-x="846" 
d="M205 1201c56.667 145.333 120.667 264.001 192 356.001s128 149.667 170 173l151 -74c-39.333 -30.667 -87.5 -84.334 -144.5 -161.001s-110 -181.167 -159 -313.5s-75.833 -285.166 -80.5 -458.499l-1 -48c0 -170 23.333 -320.167 70 -450.5
s99.334 -234.333 158.001 -312s111 -133.5 157 -167.5l-151 -75c-46.667 30.667 -104.334 87.834 -173.001 171.501s-131.5 200.667 -188.5 351s-85.5 327.166 -85.5 530.499c0 173.333 28.333 332.666 85 477.999z" />
    <glyph glyph-name="parenright" unicode=")" horiz-adv-x="846" 
d="M641 226c-56.667 -145.333 -120.667 -264.001 -192 -356.001s-128 -149.667 -170 -173l-151 74c39.333 30.667 87.5 84.334 144.5 161.001s110 181.167 159 313.5s75.833 285.166 80.5 458.499l1 48c0 170 -23.333 320.167 -70 450.5s-99.334 234.333 -158.001 312
s-111 133.5 -157 167.5l151 75c46.667 -30.667 104.334 -87.834 173.001 -171.501s131.5 -200.667 188.5 -351s85.5 -327.166 85.5 -530.499c0 -173.333 -28.333 -332.666 -85 -477.999z" />
    <glyph glyph-name="asterisk" unicode="*" horiz-adv-x="1208" 
d="M561 1080l-126 -121l-218 -146l-96 164l231 124l165 53c-18 6 -45.333 14.333 -82 25l-84 24l-234 118l93 165l220 -145l129 -113c-3.33301 18 -9.5 45.5 -18.5 82.5l-20.5 84.5l-19 265h192l-13 -262l-34 -168l61.5 58.5l63.5 59.5l220 146l95 -163l-232 -121l-164 -55
l165 -49l236 -115l-97 -170l-217 144l-131 113l39 -168l21 -262l-192 -1l12 263z" />
    <glyph glyph-name="plus" unicode="+" horiz-adv-x="1393" 
d="M614 692l-165 -7h-220v177h220l165 -11l-7 172v228h178v-228l-8 -172l141 11h246v-177h-246l-141 7l8 -171v-236h-178v236z" />
    <glyph glyph-name="comma" unicode="," horiz-adv-x="602" 
d="M244.5 -281.5c25 48.333 37.5 100.834 37.5 157.501c0 28 -5.83301 57.333 -17.5 88s-27 56.667 -46 78s-38.5 33 -58.5 35v63l139 131c44 -16 80.333 -41.833 109 -77.5s49.5 -75.334 62.5 -119.001s19.5 -86.5 19.5 -128.5c0 -70.667 -12 -136.667 -36 -198
s-56.167 -113.5 -96.5 -156.5s-84.5 -73.5 -132.5 -91.5l-74 92v26c37.333 18.667 68.5 52.167 93.5 100.5z" />
    <glyph glyph-name="hyphen" unicode="-" horiz-adv-x="1350" 
d="M1100 860v-177h-850v177h850z" />
    <glyph glyph-name="period" unicode="." horiz-adv-x="602" 
d="M170 218c15.333 26 35.332 46.8311 59.999 62.498s50.667 23.5 78 23.5c46.667 0 82.834 -15 108.501 -45s38.5 -67 38.5 -111c0 -31.333 -7.5 -60 -22.5 -86s-35 -46.5 -60 -61.5s-51.5 -22.5 -79.5 -22.5c-25.333 0 -49.333 6.83301 -72 20.5
s-40.667 32.334 -54 56.001s-20 49.834 -20 78.501c0 30.667 7.66699 59 23 85z" />
    <glyph glyph-name="slash" unicode="/" horiz-adv-x="854" 
d="M810 1599l-570 -1962h-198l570 1962h198z" />
    <glyph glyph-name="zero" unicode="0" horiz-adv-x="1386" 
d="M221 969.5c48.667 97.667 115.669 172.832 201.002 225.499s181.666 79 288.999 79c186.667 0 321.167 -56.667 403.5 -170s123.5 -264.666 123.5 -453.999c0 -129.333 -22.833 -244.333 -68.5 -345s-110.334 -179.334 -194.001 -236.001s-180.167 -85 -289.5 -85
c-124 0 -226.167 29.333 -306.5 88s-139 136.667 -176 234s-55.5 205.333 -55.5 324c0 128.667 24.333 241.834 73 339.501zM977.502 880.498c-22.333 73.667 -56.832 131.999 -103.499 174.999s-105.334 64.5 -176.001 64.5c-104.667 0.666992 -184.667 -40.5 -240 -123.5
s-83 -197.833 -83 -344.5c0 -91.333 12 -176.166 36 -254.499s60.5 -141.5 109.5 -189.5s109.5 -72 181.5 -72c102 0 179 43.167 231 129.5s78 207.5 78 363.5c0 94 -11.167 177.833 -33.5 251.5z" />
    <glyph glyph-name="one" unicode="1" horiz-adv-x="918" 
d="M155 946l-25.001 131.001c40.667 12 86.834 30.5 138.501 55.5s99.5 51.167 143.5 78.5s75.667 49.666 95 66.999l100 -25v-1253h-229v999c-88 -24 -162.333 -41.667 -223 -53z" />
    <glyph glyph-name="two" unicode="2" horiz-adv-x="1269" 
d="M1125 177l0.000976562 -177h-945l-33 113c122 70.667 234.5 148.834 337.5 234.501s186.667 175.667 251 270s96.5 185.833 96.5 274.5c0 69.333 -20.333 124.166 -61 164.499s-99.334 60.5 -176.001 60.5c-63.333 0 -125.5 -13.667 -186.5 -41s-110.833 -61 -149.5 -101
l-93 124c47.333 52 109.5 97.167 186.5 135.5s165.833 57.5 266.5 57.5c154.667 0 266.167 -36.167 334.5 -108.5s102.5 -165.5 102.5 -279.5c0 -84.667 -22.5 -170.5 -67.5 -257.5s-108.5 -171 -190.5 -252s-178 -155.5 -288 -223.5z" />
    <glyph glyph-name="three" unicode="3" horiz-adv-x="1147" 
d="M873 487.5c54 -35.667 94.9971 -79.667 122.997 -132s42 -107.833 42 -166.5c0 -94.667 -27.333 -182.167 -82 -262.5s-133 -144.666 -235 -192.999s-221 -72.5 -357 -72.5c-64 0 -134.333 6.66699 -211 20l-1 152c56.667 -11.333 111.334 -17 164.001 -17
c96.667 0 182.834 15.833 258.501 47.5s134.5 74.667 176.5 129s63 114.5 63 180.5c0 84.667 -25.167 151.667 -75.5 201s-127.166 74 -230.499 74c-10 0 -27 -0.666992 -51 -2l-91 -22l-46 151c68 13.333 128.667 31.666 182 54.999
c75.333 29.333 133.833 68.333 175.5 117s62.5 102.334 62.5 161.001c0 70.667 -21.667 122.834 -65 156.501s-100.333 50.5 -171 50.5c-64 0 -121 -10 -171 -30s-97.667 -46 -143 -78l-86 125c48 39.333 110.167 75.333 186.5 108s153.833 49 232.5 49
c79.333 0 152 -13.667 218 -41s118.5 -67.833 157.5 -121.5s58.5 -118.834 58.5 -195.501c0 -82 -25.333 -155.667 -76 -221s-117 -117.333 -199 -156c73.333 -8.66699 137 -30.834 191 -66.501z" />
    <glyph glyph-name="four" unicode="4" horiz-adv-x="1339" 
d="M1271 0h-231v-376h-220v376h-650l-54 104l584 1195h79l136 -84l-466 -894l-89 -151h460l18 433h202v-433h231v-170z" />
    <glyph glyph-name="five" unicode="5" horiz-adv-x="1227" 
d="M205 -188c29.333 -1.33301 51.334 -2.00195 66.001 -2.00195c111.333 0 211.5 17.833 300.5 53.5s158.667 84.834 209 147.501s75.5 133.334 75.5 212.001c0 102 -26.167 178.167 -78.5 228.5s-134.833 75.5 -247.5 75.5c-78.667 0 -168.667 -16 -270 -48l-50 30l56 743
h771l-22 -190h-578l-39 -400c87.333 19.333 163.666 29 228.999 29c97.333 0 179.833 -18.5 247.5 -55.5s118.834 -89.5 153.501 -157.5s52 -148.333 52 -241c0 -98 -29.333 -191.5 -88 -280.5s-144.834 -161.667 -258.501 -218s-248.834 -85.5 -405.501 -87.5
c-55.333 0 -96.666 4.33301 -123.999 13z" />
    <glyph glyph-name="six" unicode="6" horiz-adv-x="1373" 
d="M1049 1431c-122.667 -32.667 -232.835 -88.501 -330.502 -167.501s-174.5 -171 -230.5 -276s-85.667 -211.167 -89 -318.5l-1 -46c0 -146 23.333 -263.5 70 -352.5s125 -133.5 235 -133.5c60 0 111.333 16.833 154 50.5s74.667 78 96 133s32 113.833 32 176.5
c0 114.667 -21.167 196.667 -63.5 246s-96.166 74 -161.499 74c-36.667 0 -70.5 -4.66699 -101.5 -14s-55.833 -20 -74.5 -32l-60 130c22.667 21.333 59.334 41.166 110.001 59.499s107.667 27.5 171 27.5c82.667 0 154.5 -20 215.5 -60s107.5 -94 139.5 -162
s48 -142.333 48 -223c0 -98.667 -20 -190.5 -60 -275.5s-100.167 -153.5 -180.5 -205.5s-178.166 -78 -293.499 -78c-104.667 0 -195.834 26.333 -273.501 79s-137.167 123.834 -178.5 213.501s-62 187.834 -62 294.501c0 171.333 41.333 328.833 124 472.5
s188 261.5 316 353.5s257.667 150.667 389 176z" />
    <glyph glyph-name="seven" unicode="7" horiz-adv-x="1241" 
d="M150 1093l1 178h949l46 -58l-571 -1548l-235 68c177.333 377.333 365.333 830 564 1358z" />
    <glyph glyph-name="eight" unicode="8" horiz-adv-x="1307" 
d="M1109 169.5c-45.333 -61.667 -106.001 -107.995 -182.001 -138.995s-160 -46.5 -252 -46.5c-90.667 0 -175.5 13.833 -254.5 41.5s-143.5 71.5 -193.5 131.5s-75 136 -75 228c0 80.667 25.167 157.834 75.5 231.501s128.5 136.167 234.5 187.5
c-78.667 50 -140.167 105.667 -184.5 167s-66.5 135.666 -66.5 222.999c0 79.333 20.667 146.833 62 202.5s97.166 97.667 167.499 126s148.5 42.5 234.5 42.5c86.667 0 163.334 -14.5 230.001 -43.5s118.5 -70 155.5 -123s55.5 -113.833 55.5 -182.5
c0 -50.667 -9.83301 -101.834 -29.5 -153.501s-50.5 -100.334 -92.5 -146.001s-94.333 -83.834 -157 -114.501c70.667 -40.667 129.834 -79.334 177.501 -116.001s86.667 -79.167 117 -127.5s45.5 -102.833 45.5 -163.5c0 -88.667 -22.667 -163.834 -68 -225.501z
M538.499 1387.5c-38.333 -16.333 -68.666 -39.999 -90.999 -70.999s-33.5 -67.5 -33.5 -109.5c0 -45.333 12 -86.833 36 -124.5s55.833 -71.834 95.5 -102.501s88.5 -62.667 146.5 -96c49.333 16.667 90.666 41.667 123.999 75s58 70.833 74 112.5s24 84.167 24 127.5
c0 42.667 -10 80 -30 112s-48.5 56.833 -85.5 74.5s-80.5 26.5 -130.5 26.5c-48 0 -91.167 -8.16699 -129.5 -24.5zM817.499 166.506c42.333 19 76.501 46.168 102.501 81.501s39 77 39 125c0 50.667 -14.333 95.334 -43 134.001s-64.5 72 -107.5 100
s-101.833 61.667 -176.5 101c-5.33301 3.33301 -13.333 7.66602 -24 12.999c-73.333 -30 -132.5 -73.5 -177.5 -130.5s-67.5 -119.833 -67.5 -188.5c0 -84.667 26.5 -149.834 79.5 -195.501s133.167 -68.5 240.5 -68.5c47.333 0 92.166 9.5 134.499 28.5z" />
    <glyph glyph-name="nine" unicode="9" horiz-adv-x="1399" 
d="M985.5 1193c76.333 -52.667 133.831 -123.671 172.498 -213.004s58 -188 58 -296c0 -182 -43.167 -350 -129.5 -504s-195.666 -280.667 -327.999 -380s-264.833 -162.666 -397.5 -189.999l-74 136c131.333 32.667 249.333 95.334 354 188.001
s186.5 197.834 245.5 315.501s90.167 228.834 93.5 333.501l1 49c0 322 -101.667 483 -305 483c-54 0 -102.333 -15.167 -145 -45.5s-75.667 -69.833 -99 -118.5s-35 -99.334 -35 -152.001c0 -80 10.5 -148 31.5 -204s50 -98 87 -126s79.5 -42 127.5 -42
c30 0 55.333 1.83301 76 5.5s36.334 7.66699 47.001 12s27 11.5 49 21.5l52 -124c-20 -22.667 -54.167 -42.667 -102.5 -60s-108.166 -26 -179.499 -26c-84 0 -156.833 21.667 -218.5 65s-108.834 100.833 -141.501 172.5s-49 148.834 -49 231.501
c0 108.667 21.167 204.167 63.5 286.5s103.5 146.333 183.5 192s175.333 68.5 286 68.5c108 0 200.167 -26.333 276.5 -79z" />
    <glyph glyph-name="colon" unicode=":" horiz-adv-x="602" 
d="M170 218c15.333 26 35.332 46.8311 59.999 62.498s50.667 23.5 78 23.5c46.667 0 82.834 -15 108.501 -45s38.5 -67 38.5 -111c0 -31.333 -7.5 -60 -22.5 -86s-35 -46.5 -60 -61.5s-51.5 -22.5 -79.5 -22.5c-25.333 0 -49.333 6.83301 -72 20.5
s-40.667 32.334 -54 56.001s-20 49.834 -20 78.501c0 30.667 7.66699 59 23 85zM169.999 1014c15.333 26 35.332 46.8311 59.999 62.498s50.667 23.5 78 23.5c46.667 0 82.834 -15 108.501 -45s38.5 -67 38.5 -111c0 -31.333 -7.5 -60 -22.5 -86s-35 -46.5 -60 -61.5
s-51.5 -22.5 -79.5 -22.5c-25.333 0 -49.333 6.83301 -72 20.5s-40.667 32.334 -54 56.001s-20 49.834 -20 78.501c0 30.667 7.66699 59 23 85z" />
    <glyph glyph-name="semicolon" unicode=";" horiz-adv-x="602" 
d="M244.5 -281.5c25 48.333 37.5 100.834 37.5 157.501c0 28 -5.83301 57.333 -17.5 88s-27 56.667 -46 78s-38.5 33 -58.5 35v63l139 131c44 -16 80.333 -41.833 109 -77.5s49.5 -75.334 62.5 -119.001s19.5 -86.5 19.5 -128.5c0 -70.667 -12 -136.667 -36 -198
s-56.167 -113.5 -96.5 -156.5s-84.5 -73.5 -132.5 -91.5l-74 92v26c37.333 18.667 68.5 52.167 93.5 100.5zM170 1014c15.333 26 35.332 46.8311 59.999 62.498s50.667 23.5 78 23.5c46.667 0 82.834 -15 108.501 -45s38.5 -67 38.5 -111c0 -31.333 -7.5 -60 -22.5 -86
s-35 -46.5 -60 -61.5s-51.5 -22.5 -79.5 -22.5c-25.333 0 -49.333 6.83301 -72 20.5s-40.667 32.334 -54 56.001s-20 49.834 -20 78.501c0 30.667 7.66699 59 23 85z" />
    <glyph glyph-name="less" unicode="&#x3c;" horiz-adv-x="1368" 
d="M1134 1091l-731 -318l731 -313v-208l-966 444v154l966 446v-205z" />
    <glyph glyph-name="equal" unicode="=" horiz-adv-x="1399" 
d="M1157 1116v-167h-915v167h915zM1157 599v-166h-915v166h915z" />
    <glyph glyph-name="greater" unicode="&#x3e;" horiz-adv-x="1368" 
d="M1200 850v-154l-966 -444v208l731 313l-731 318v205z" />
    <glyph glyph-name="question" unicode="?" horiz-adv-x="1047" 
d="M304 872c20.667 31.333 46.1631 58.999 76.4961 82.999s70.5 52.333 120.5 85c42 27.333 75.5 50.333 100.5 69s47 39.334 66 62.001s30.833 46.667 35.5 72c9.33301 39.333 14 75 14 107c0 64.667 -16.667 119.667 -50 165s-81.166 79.833 -143.499 103.5
s-136.166 35.5 -221.499 35.5c-75.333 0 -135.666 -5.66699 -180.999 -17v160c12.667 9.33301 40.5 18.666 83.5 27.999s87.167 14 132.5 14c134 0 245.667 -21.167 335 -63.5s155.333 -99.166 198 -170.499s64 -150.666 64 -237.999c0 -37.333 -4 -75 -12 -113
c-8.66699 -51.333 -26.334 -96.333 -53.001 -135s-56.167 -70.834 -88.5 -96.501s-73.5 -55.167 -123.5 -88.5c-38 -24.667 -67.667 -45.334 -89 -62.001s-39.666 -35.167 -54.999 -55.5s-24 -42.833 -26 -67.5c-1.33301 -18.667 -2 -31.667 -2 -39
c0 -30 3.16699 -58.667 9.5 -86s16.5 -64.333 30.5 -111l6 -19h-167c-23.333 28.667 -43.5 67.834 -60.5 117.501s-26.5 102.5 -28.5 158.5c-1.33301 36.667 8.33398 70.667 29.001 102zM355.996 211.499c15.333 25.667 35.167 46 59.5 61s49.5 22.5 75.5 22.5
c45.333 0 80.666 -14.5 105.999 -43.5s38 -64.833 38 -107.5c0 -30.667 -7.5 -58.667 -22.5 -84s-34.667 -45.333 -59 -60s-50.166 -22 -77.499 -22c-24.667 0 -48 6.66699 -70 20s-39.667 31.5 -53 54.5s-20 48.5 -20 76.5c0 29.333 7.66699 56.833 23 82.5z" />
    <glyph glyph-name="at" unicode="@" horiz-adv-x="2218" 
d="M1286 225c0 24.667 2.00293 53.999 6.00293 87.999c-50 -95.333 -106.667 -172.166 -170 -230.499s-131 -87.5 -203 -87.5c-46.667 0 -91.5 15.833 -134.5 47.5s-78.333 79.5 -106 143.5s-41.5 141.333 -41.5 232c0 100 20.167 199.667 60.5 299
s102.5 181.833 186.5 247.5s187.667 98.5 311 98.5c46 0 89.5 -4.5 130.5 -13.5s74.833 -22.833 101.5 -41.5l172 31c-20.667 -78 -43.334 -175.167 -68.001 -291.5s-44 -219.833 -58 -310.5c-13.333 -90 -20 -154.333 -20 -193c0 -60 12.333 -90 37 -90
c50 0 101.667 29.333 155 88s97.666 137.334 132.999 236.001s53 204.667 53 318c0 154 -26.5 275.333 -79.5 364s-124.667 150.334 -215 185.001s-198.166 52 -323.499 52c-150 0 -288 -40.5 -414 -121.5s-225.833 -193.833 -299.5 -338.5s-110.5 -308.667 -110.5 -492
c0 -182 32.167 -330.833 96.5 -446.5s149.333 -199.334 255 -251.001s223.167 -77.5 352.5 -77.5c89.333 0 168.833 8.5 238.5 25.5s126.834 36.5 171.501 58.5l39 -129c-44.667 -28 -110.834 -52.167 -198.501 -72.5s-177.834 -30.5 -270.501 -30.5
c-164.667 0 -311.834 33.5 -441.501 100.5s-231.834 168 -306.501 303s-112 301.167 -112 498.5c0 220.667 45.333 415.834 136 585.501s215 301 373 394s334.667 139.5 530 139.5c149.333 0 281 -27.667 395 -83s202.667 -136.5 266 -243.5s95 -235.167 95 -384.5
c0 -169.333 -27 -317.333 -81 -444s-124.667 -223.834 -212 -291.501s-179.666 -101.5 -276.999 -101.5c-47.333 0 -83 15.667 -107 47s-38.333 78 -43 140c-1.33301 17.333 -2 31.666 -2 42.999zM1115 287.999c56.667 77.333 107.668 169.33 153.001 275.997
s73.333 198.334 84 275.001c-15.333 25.333 -40 44.166 -74 56.499s-68.333 18.5 -103 18.5c-70 0 -131.167 -21.667 -183.5 -65s-92.666 -98.666 -120.999 -165.999s-43.5 -136.666 -45.5 -207.999c-2.66699 -93.333 7.16602 -167.166 29.499 -221.499
s59.166 -81.5 110.499 -81.5c43.333 0 93.333 38.667 150 116z" />
    <glyph glyph-name="A" unicode="A" horiz-adv-x="1407" 
d="M1016 385h-623l-136 -385h-236l582 1538h215l568 -1538h-241zM960 551l-205 609l-43 142l-44 -142l-216 -609h508z" />
    <glyph glyph-name="B" unicode="B" horiz-adv-x="1339" 
d="M298 1522c27.333 0 73.666 2.00293 138.999 6.00293c91.333 6 161.666 9 210.999 9c166 0 290.167 -31.833 372.5 -95.5s123.5 -151.834 123.5 -264.501c0 -49.333 -8.16699 -98.5 -24.5 -147.5s-41.666 -92.167 -75.999 -129.5s-77.833 -63 -130.5 -77
c60.667 -2.66699 116.5 -21.334 167.5 -56.001s91.5 -79.834 121.5 -135.501s45 -114.167 45 -175.5c0 -149.333 -46.667 -265 -140 -347s-251.666 -123 -474.999 -123c-85.333 0 -194.333 4.66699 -327 14h-111v1523zM812.5 894.003
c35.667 21.333 63.834 53.332 84.501 95.999s31 94.334 31 155.001c0 78.667 -27.333 137.5 -82 176.5s-134.334 58.5 -239.001 58.5c-30.667 0 -67.167 -1 -109.5 -3s-69.5 -5.33301 -81.5 -10v-500c28.667 -4.66699 71 -7 127 -7l82 1c16 0.666992 38.667 1 68 1
c44 0 83.833 10.667 119.5 32zM929 212.502c61.333 43 92 115.499 92 217.499c0 94.667 -28.5 163.834 -85.5 207.501s-146.167 65.5 -267.5 65.5l-114 1c-64 0 -110 -2 -138 -6v-527c15.333 -9.33301 45.333 -15.5 90 -18.5s95.334 -4.5 152.001 -4.5
c119.333 0 209.666 21.5 270.999 64.5z" />
    <glyph glyph-name="C" unicode="C" horiz-adv-x="1313" 
d="M1012 1524c56.667 -9.33301 108.669 -21.001 156.002 -35.001l30 -8l-32 -198c-24.667 12.667 -48 23.5 -70 32.5s-57.333 18.167 -106 27.5s-107.334 14 -176.001 14c-102 0 -190.5 -24 -265.5 -72s-132.5 -116.333 -172.5 -205s-60 -192.667 -60 -312
c0 -118.667 20 -224 60 -316s97.5 -163.667 172.5 -215s163.167 -77 264.5 -77c50 0 100.667 4.33301 152 13s96.666 20.167 135.999 34.5s68 29.5 86 45.5l1 -189c-43.333 -17.333 -80.5 -31.166 -111.5 -41.499s-69.667 -19.333 -116 -27s-98.5 -11.5 -156.5 -11.5
c-142 0 -266.5 32 -373.5 96s-189.667 154 -248 270s-87.5 250.333 -87.5 403c0 162 32 302.333 96 421s149.667 209 257 271s224.333 93 351 93c85.333 0 156.333 -4.66699 213 -14z" />
    <glyph glyph-name="D" unicode="D" horiz-adv-x="1472" 
d="M306 1522c38 0 90.333 2.33203 157 6.99902c9.33301 0.666992 35.833 2.33398 79.5 5.00098s84.834 4 123.501 4c240.667 0 421.167 -63.333 541.5 -190s180.5 -308 180.5 -544c0 -169.333 -29.333 -315.5 -88 -438.5s-142.667 -217.333 -252 -283
s-238.333 -98.5 -387 -98.5c-30.667 0 -89.334 2.66699 -176.001 8c-96 5.33301 -164.667 8 -206 8h-85v1522h112zM1027.5 305.499c85.667 101 128.5 256.167 128.5 465.5c0 148 -20 266.333 -60 355s-99.667 152.667 -179 192s-180.333 59 -303 59
c-78.667 0 -144 -5.33301 -196 -16v-1193c31.333 -7.33301 70.5 -12.5 117.5 -15.5s94.167 -4.16699 141.5 -3.5c148 3.33301 264.833 55.5 350.5 156.5z" />
    <glyph glyph-name="E" unicode="E" 
d="M1070 1522v-172h-653v-480h479v-172h-479v-523h726v-175h-949v1522h876z" />
    <glyph glyph-name="F" unicode="F" horiz-adv-x="1083" 
d="M1068 1522v-172h-650v-499h487v-172h-487v-679h-224v1522h874z" />
    <glyph glyph-name="G" unicode="G" horiz-adv-x="1433" 
d="M1317 761l0.000976562 -667c-13.333 -0.666992 -27.5 -3.33398 -42.5 -8.00098s-34.833 -12 -59.5 -22c-62 -24 -123.333 -43.333 -184 -58s-136.334 -22 -227.001 -22c-146.667 0 -273 33 -379 99s-186.833 157.167 -242.5 273.5s-83.5 248.5 -83.5 396.5
c0 168.667 30.833 312 92.5 430s145.667 206.667 252 266s226.5 89 360.5 89c76.667 0 138 -3.33301 184 -10s96.333 -16.667 151 -30c38.667 -9.33301 69 -16 91 -20l-10 -200c-55.333 28.667 -115 50.167 -179 64.5s-147.667 21.5 -251 21.5
c-88.667 0 -167.834 -23.333 -237.501 -70s-124.167 -114 -163.5 -202s-59 -192 -59 -312c0 -120.667 17.333 -228 52 -322s87.334 -168.167 158.001 -222.5s157.667 -81.5 261 -81.5c59.333 0 117.5 4.83301 174.5 14.5s99.167 23.834 126.5 42.501v377l-277 13v160h492z
" />
    <glyph glyph-name="H" unicode="H" horiz-adv-x="1552" 
d="M417 1522v-667h718v667h223v-1522h-223v683h-718v-683h-223v1522h223z" />
    <glyph glyph-name="I" unicode="I" horiz-adv-x="640" 
d="M433 1522v-1522h-226v1522h226z" />
    <glyph glyph-name="J" unicode="J" horiz-adv-x="713" 
d="M129 -111.5c52 46.333 87.665 105.5 106.998 177.5c14 50.667 22.833 115.5 26.5 194.5s5.5 182.833 5.5 311.5v36v914h226v-909l1 -214c0 -66 -1.33301 -124 -4 -174s-8 -96.333 -16 -139c-14.667 -81.333 -46.167 -152 -94.5 -212s-104.166 -107 -167.499 -141
s-125.666 -55.667 -186.999 -65l-68 117c62 22.667 119 57.167 171 103.5z" />
    <glyph glyph-name="K" unicode="K" horiz-adv-x="1371" 
d="M1302 0l-256.999 0.00195312c-6.66699 10 -15.334 25.333 -26.001 46c-11.333 24.667 -23 47 -35 67c-27.333 49.333 -59 102.166 -95 158.499l-144 218.5l-69 104l-69 107l-190 -220v-481h-223v1522h223v-764l603 764h263l-539 -656
c22 -36.667 54.833 -87.334 98.5 -152.001l83.5 -123l192.5 -287.5c47.667 -72.333 87.167 -136.833 118.5 -193.5z" />
    <glyph glyph-name="L" unicode="L" horiz-adv-x="1080" 
d="M422 1522v-1347h604v-175h-832v1522h228z" />
    <glyph glyph-name="M" unicode="M" horiz-adv-x="1923" 
d="M603 1522l282 -869l79 -323l75 323l270 869h299l182 -1522h-224l-93 946l-29 410l-102 -410l-318 -961h-120l-332 961l-112 409l-27 -409l-83 -946l-216 -1l154 1523h315z" />
    <glyph glyph-name="N" unicode="N" horiz-adv-x="1556" 
d="M1363 1522v-1522h-207l-630 967l-140 249l12 -264v-952h-205v1522h204l651 -1005l124 -225l-14 253v977h205z" />
    <glyph glyph-name="O" unicode="O" horiz-adv-x="1569" 
d="M193.5 1181c62.333 118.667 146.999 207.833 253.999 267.5s227.167 89.5 360.5 89.5c131.333 0 246.833 -31 346.5 -93s177 -149.833 232 -263.5s82.5 -246.167 82.5 -397.5c0 -171.333 -30.333 -317 -91 -437s-144.167 -210.5 -250.5 -271.5
s-228.166 -91.5 -365.499 -91.5c-132.667 0 -249 32.667 -349 98s-177.167 156 -231.5 272s-81.5 247.667 -81.5 395c0 169.333 31.167 313.333 93.5 432zM1192 1071c-34 90.667 -84.165 162.833 -150.498 216.5s-146.5 80.5 -240.5 80.5c-88.667 0 -169 -22.5 -241 -67.5
s-129.167 -113.167 -171.5 -204.5s-63.5 -204 -63.5 -338c0 -108 17.667 -207.833 53 -299.5s87.666 -165.167 156.999 -220.5s152.666 -83 249.999 -83c92.667 0 173.5 23.667 242.5 71s122.167 117.166 159.5 209.499s56 204.5 56 336.5
c0 108.667 -17 208.334 -51 299.001z" />
    <glyph glyph-name="P" unicode="P" horiz-adv-x="1270" 
d="M299 1522c35.333 0 91.666 2.66699 168.999 8c82.667 5.33301 148.334 8 197.001 8c170 0 301 -40.167 393 -120.5s138 -204.5 138 -372.5c0 -110.667 -22.167 -205 -66.5 -283s-110 -137.5 -197 -178.5s-193.167 -61.5 -318.5 -61.5c-55.333 0 -108.333 1.33301 -159 4
l-38 1v-527h-223v1522h105zM792.5 715c54.333 19.333 98.1689 55.333 131.502 108s50 126 50 220c0 115.333 -29.167 200 -87.5 254s-145.5 81 -261.5 81c-88 0 -157.333 -6.33301 -208 -19v-663c49.333 -6.66699 110.666 -10 183.999 -10s137.166 9.66699 191.499 29z" />
    <glyph glyph-name="Q" unicode="Q" horiz-adv-x="1569" 
d="M1511 -94l0.000976562 -160c-16 -10.667 -41.333 -20 -76 -28s-70.334 -12 -107.001 -12c-76 0 -145.5 8 -208.5 24s-124 44.333 -183 85s-115.5 97 -169.5 169c-133.333 -0.666992 -250.5 31.5 -351.5 96.5s-178.833 155.667 -233.5 272s-82 248.5 -82 396.5
c0 169.333 31.167 313.333 93.5 432s147 207.834 254 267.501s227.167 89.5 360.5 89.5c131.333 0 246.833 -31 346.5 -93s177 -149.833 232 -263.5s82.5 -246.167 82.5 -397.5c0 -139.333 -20.333 -262 -61 -368s-97.667 -192.667 -171 -260s-159.333 -115 -258 -143
c40.667 -42.667 91.667 -74.334 153 -95.001s126.333 -31 195 -31c86 0 147.333 6.33301 184 19zM378.001 458.5c35.333 -91.667 87.668 -165.168 157.001 -220.501s152.666 -83 249.999 -83c92.667 0 173.5 23.667 242.5 71s122.167 117.166 159.5 209.499
s56 204.5 56 336.5c0 108.667 -17 208.334 -51 299.001s-84.167 162.834 -150.5 216.501s-146.5 80.5 -240.5 80.5c-88.667 0 -169 -22.5 -241 -67.5s-129.167 -113.167 -171.5 -204.5s-63.5 -204 -63.5 -338c0 -108 17.667 -207.833 53 -299.5z" />
    <glyph glyph-name="R" unicode="R" horiz-adv-x="1367" 
d="M1306 0l-253.001 0.000976562c-10 14.667 -21 35.667 -33 63l-22 49c-12.667 26.667 -32.334 75 -59.001 145c-28 74.667 -53.167 136.5 -75.5 185.5s-48.666 92.833 -78.999 131.5s-64.5 64 -102.5 76c-39.333 -1.33301 -127.666 -2 -264.999 -2v-648h-223v1522h97
c36 0 88.333 2.33301 157 7c106.667 6 183.667 9 231 9c162.667 0 289.667 -34.833 381 -104.5s137 -177.5 137 -323.5c0 -109.333 -23.833 -199.333 -71.5 -270s-115.5 -121.334 -203.5 -152.001c30 -20.667 58 -50 84 -88s49.5 -78.5 70.5 -121.5
s46.167 -98.833 75.5 -167.5c41.333 -94 72.333 -160.333 93 -199zM651.999 800.001c102 0 180.333 24.168 235 72.501s82 123.833 82 226.5c0 64 -10.833 116.167 -32.5 156.5s-56 70.166 -103 89.499s-109.5 29 -187.5 29c-93.333 0 -169.666 -6 -228.999 -18v-550
c35.333 -4 113.666 -6 234.999 -6z" />
    <glyph glyph-name="S" unicode="S" horiz-adv-x="1132" 
d="M181 254c40.667 -25.333 94.3311 -47.166 160.998 -65.499s132.667 -27.5 198 -27.5c98.667 0 173.834 17 225.501 51s77.5 87.333 77.5 160c0 48 -12.5 89 -37.5 123s-59.5 64.333 -103.5 91s-109.333 61 -196 103c-111.333 54 -202.666 118.667 -273.999 194
s-107 163.333 -107 264c0 92 24 167.167 72 225.5s110 100.5 186 126.5s158.667 39 248 39c83.333 0 155 -7.83301 215 -23.5s106.333 -34.167 139 -55.5l-45 -176c-43.333 26 -87.666 45.833 -132.999 59.5s-105 20.5 -179 20.5c-50.667 0 -98 -6.66699 -142 -20
s-79.667 -34 -107 -62s-41 -62.667 -41 -104c0 -48.667 9.66699 -89.167 29 -121.5s49.166 -62 89.499 -89s101.833 -61.833 184.5 -104.5c85.333 -44 156.833 -85.5 214.5 -124.5s106.5 -86.833 146.5 -143.5s60 -122 60 -196c0 -91.333 -21.167 -168 -63.5 -230
s-101.5 -108.167 -177.5 -138.5s-164.667 -45.5 -266 -45.5c-62.667 0 -123.167 4.66699 -181.5 14s-109 20.666 -152 33.999s-74.167 26.333 -93.5 39z" />
    <glyph glyph-name="T" unicode="T" horiz-adv-x="1303" 
d="M63 1350v172h1177v-172h-477v-1350h-225v1350h-475z" />
    <glyph glyph-name="U" unicode="U" horiz-adv-x="1463" 
d="M159 1522l223 0.000976562l-1 -836c0 -136.667 14 -243.5 42 -320.5s68.5 -130.833 121.5 -161.5s120.833 -46 203.5 -46c73.333 0 134.333 15.5 183 46.5s86.167 85.167 112.5 162.5s39.5 183.666 39.5 318.999v836h222v-892c0 -210 -47 -370.167 -141 -480.5
s-235 -165.5 -423 -165.5c-203.333 0 -351.333 55 -444 165s-138.667 271.333 -138 484v889z" />
    <glyph glyph-name="V" unicode="V" horiz-adv-x="1355" 
d="M259 1522l360 -1024l67 -235l69 235l344 1024h234l-555 -1535h-187l-569 1535h237z" />
    <glyph glyph-name="W" unicode="W" horiz-adv-x="1918" 
d="M1896 1522l-393 -1538h-218l-290 998l-34 182l-35 -183l-294 -997h-191l-419 1538h229l242 -988l51 -276l50 276l287 988h161l291 -988l66 -278l47 277l226 989h224z" />
    <glyph glyph-name="X" unicode="X" horiz-adv-x="1314" 
d="M1272 0h-254l-269 448l-104 171l-101 -171l-262 -448h-239l480 786l-478 736l251 1l248 -403l123 -202l356 604h239l-477 -768z" />
    <glyph glyph-name="Y" unicode="Y" horiz-adv-x="1264" 
d="M749 594v-594h-226v594l-501 928h238l338 -660l43 -105l36 105l331 660h234z" />
    <glyph glyph-name="Z" unicode="Z" horiz-adv-x="1294" 
d="M866 1273l58 71h-750v178h996l46 -81l-760 -1181l-74 -85h775v-175h-1023l-45 84z" />
    <glyph glyph-name="bracketleft" unicode="[" horiz-adv-x="837" 
d="M200.5 1640.5c10.333 35 28.833 59.834 55.5 74.501s66.334 22 119.001 22c42.667 0 80.334 -1.33301 113.001 -4s71 -7 115 -13l62 -7v-120h-268v-1642l268 -2v-116c-60.667 -8.66699 -110.334 -14.834 -149.001 -18.501s-85.667 -5.5 -141 -5.5
c-52.667 0 -92.334 7.33301 -119.001 22s-45.167 39.5 -55.5 74.5s-15.5 86.5 -15.5 154.5v1426c0 68 5.16699 119.5 15.5 154.5z" />
    <glyph glyph-name="backslash" unicode="\" horiz-adv-x="854" 
d="M810 -363h-198l-570 1962h198z" />
    <glyph glyph-name="bracketright" unicode="]" horiz-adv-x="837" 
d="M652 60c0 -68 -5.16699 -119.501 -15.5 -154.501s-28.833 -59.833 -55.5 -74.5s-66.334 -22 -119.001 -22c-55.333 0 -102.333 1.83301 -141 5.5s-88.334 9.83398 -149.001 18.501v116l268 2v1642h-268v120l62 7c44 6 82.333 10.333 115 13s70.334 4 113.001 4
c52.667 0 92.334 -7.33301 119.001 -22s45.167 -39.5 55.5 -74.5s15.5 -86.5 15.5 -154.5v-1426z" />
    <glyph glyph-name="asciicircum" unicode="^" horiz-adv-x="1363" 
d="M682 1288l285 -798h211l-394 1041h-205l-394 -1041h211z" />
    <glyph glyph-name="underscore" unicode="_" horiz-adv-x="1692" 
d="M1732 -279v-137h-1772v137h1772z" />
    <glyph glyph-name="grave" unicode="`" horiz-adv-x="595" 
d="M315 1378.5c-53.333 44.333 -105.5 92.167 -156.5 143.5s-87.167 93.333 -108.5 126l157 135c64.667 -83.333 166.667 -204 306 -362l32 -37l-111 -90c-26 12 -65.667 40.167 -119 84.5z" />
    <glyph glyph-name="a" unicode="a" horiz-adv-x="1131" 
d="M784 1127c58.667 -20 104.33 -56.501 136.997 -109.501s49 -127.5 49 -223.5v-810h-90c-30 0 -52.667 2 -68 6s-27.333 13.333 -36 28s-13 38 -13 70v8c-33.333 -30.667 -79.166 -57 -137.499 -79s-119.166 -33 -182.499 -33c-67.333 0 -127.5 13 -180.5 39
s-94.333 63.167 -124 111.5s-44.5 105.166 -44.5 170.499c0 72 19.5 134.333 58.5 187s93.5 93.334 163.5 122.001c62 24.667 132.167 43.167 210.5 55.5s152.833 18.5 223.5 18.5v115c0 53.333 -8.5 93.333 -25.5 120s-42.5 44.667 -76.5 54s-81 14 -141 14
c-32 0 -68.833 -4.33301 -110.5 -13s-80.667 -19.5 -117 -32.5s-63.166 -25.5 -80.499 -37.5l-54 144c17.333 10.667 48.833 24.334 94.5 41.001s97.667 31.5 156 44.5s114.5 19.5 168.5 19.5c88 0 161.333 -10 220 -30zM606.996 161.999
c34.667 9.33301 65.167 20.5 91.5 33.5s43.5 24.167 51.5 33.5v319c-48.667 0 -103.5 -4.66699 -164.5 -14s-110.167 -23 -147.5 -41c-40.667 -19.333 -72 -42 -94 -68s-33 -59.667 -33 -101c0 -117.333 65.667 -176 197 -176c31.333 0 64.333 4.66699 99 14z" />
    <glyph glyph-name="b" unicode="b" horiz-adv-x="1238" 
d="M917 1095.5c68 -40.333 122.331 -101.332 162.998 -182.999s61 -181.834 61 -300.501c0 -122 -23.833 -230.833 -71.5 -326.5s-115.167 -170.167 -202.5 -223.5s-187.666 -80 -300.999 -80c-49.333 0 -102.166 4.66699 -158.499 14s-106.833 20.5 -151.5 33.5
s-74.667 24.5 -90 34.5v1597h220v-472l-8 -159c35.333 36 77.5 66 126.5 90s111.167 36 186.5 36c82.667 0 158 -20.167 226 -60.5zM843.498 886.501c-49 64.333 -120.167 96.501 -213.5 96.501c-48.667 0 -93.5 -9.16699 -134.5 -27.5s-77.5 -40.166 -109.5 -65.499v-706
c38 -26.667 106.333 -40 205 -40c62.667 0 118.667 17.333 168 52s88 85.667 116 153s42 148.666 42 243.999c0 131.333 -24.5 229.166 -73.5 293.499z" />
    <glyph glyph-name="c" unicode="c" horiz-adv-x="1002" 
d="M820 1137.5c50 -12.333 85.9951 -25.833 107.995 -40.5l-35 -174c-30.667 21.333 -66.667 37.166 -108 47.499s-90.666 15.5 -147.999 15.5s-110.833 -14.667 -160.5 -44s-89.834 -75.166 -120.501 -137.499s-46 -140.833 -46 -235.5c0 -88 14 -163.5 42 -226.5
s66.333 -110.833 115 -143.5s103.334 -49 164.001 -49c52.667 0 104 6.83301 154 20.5s89.333 29.167 118 46.5l45 -125c-35.333 -32.667 -84.666 -58.834 -147.999 -78.501s-130.666 -29.5 -201.999 -29.5c-104 0 -193.833 24.833 -269.5 74.5
s-133.167 117.834 -172.5 204.501s-59 185 -59 295c0 114 20.833 216.167 62.5 306.5s103.834 161.5 186.501 213.5s183.334 78 302.001 78c64.667 0 122 -6.16699 172 -18.5z" />
    <glyph glyph-name="d" unicode="d" horiz-adv-x="1237" 
d="M1071 1664l0.00390625 -1680h-95c-26 0 -46.833 2 -62.5 6s-28 12.333 -37 25s-13.5 31.667 -13.5 57v41c-36 -36.667 -78.667 -67.334 -128 -92.001s-112.333 -37 -189 -37c-82.667 0 -157.834 20.167 -225.501 60.5s-121.834 101.333 -162.501 183
s-61 181.834 -61 300.501c0 122 23.667 230.667 71 326s114.166 169.5 200.499 222.5s186.166 79.5 299.499 79.5c64 0 126 -9.33301 186 -28l-3 61v475h220zM394.504 253.5c49 -64.333 119.831 -96.499 212.498 -96.499c48.667 0 93.834 9.16699 135.501 27.5
s77.834 39.833 108.501 64.5v697c-20 17.333 -46.667 30 -80 38s-75 12 -125 12c-62 0 -117.667 -17.333 -167 -52s-88 -85.834 -116 -153.501s-42 -148.834 -42 -243.501c0 -131.333 24.5 -229.166 73.5 -293.499z" />
    <glyph glyph-name="e" unicode="e" horiz-adv-x="1123" 
d="M1024 600.5c-1.33301 -29.667 -4.33594 -55.8301 -9.00293 -78.4971h-703c0.666992 -4.66699 1 -11.334 1 -20.001c11.333 -234.667 127.333 -352 348 -352c40 0 90.667 6.33301 152 19s105.333 27 132 43l42 -126c-36.667 -30 -92.334 -54.5 -167.001 -73.5
s-147.334 -28.5 -218.001 -28.5c-107.333 0 -198.666 23.167 -273.999 69.5s-132.666 113.5 -171.999 201.5s-59 193.667 -59 317c0 112 19.5 211.667 58.5 299s96.667 156.166 173 206.499s168.833 76.5 277.5 78.5c76.667 1.33301 146.334 -14.334 209.001 -47.001
s112.834 -81.667 150.501 -147s57.834 -144 60.501 -236c0 -54 -0.666992 -95.833 -2 -125.5zM821.997 715.004c0 84.667 -17.168 153.333 -51.501 206s-93.166 79 -176.499 79c-74 0 -135.5 -26.167 -184.5 -78.5s-79.5 -136.833 -91.5 -253.5h502
c1.33301 21.333 2 37 2 47z" />
    <glyph glyph-name="f" unicode="f" horiz-adv-x="811" 
d="M75 974v122l173 44v99c0 106.667 20.5 193 61.5 259s92.833 113.167 155.5 141.5s128 42.5 196 42.5c28 0 55.333 -2.33301 82 -7s46.667 -9.66699 60 -15v-174c-21.333 7.33301 -44.5 12.5 -69.5 15.5s-59.167 4.5 -102.5 4.5c-49.333 0 -88.833 -18.667 -118.5 -56
s-44.5 -91 -44.5 -161v-149h282v-166h-282v-974h-220v974h-173z" />
    <glyph glyph-name="g" unicode="g" 
d="M1187 973l-209.001 0.00195312c34 -57.333 51 -123.333 51 -198c0 -82 -20 -152.5 -60 -211.5s-94.667 -103.667 -164 -134s-147.666 -45.5 -234.999 -45.5c-45.333 0 -86.666 4.33301 -123.999 13c-18.667 -12.667 -34 -29.334 -46 -50.001s-18 -42 -18 -64
c0 -42 9.5 -70.833 28.5 -86.5s52.833 -23.5 101.5 -23.5h207c158 0 267.5 -29.5 328.5 -88.5s91.5 -135.5 91.5 -229.5c0 -74 -24.667 -139.167 -74 -195.5s-115.833 -99.833 -199.5 -130.5s-176.167 -46 -277.5 -46c-150 0 -267.167 28 -351.5 84s-126.5 140 -126.5 252
c0 52 15.667 98 47 138s68.666 72 111.999 96c-58.667 34 -88 89 -88 165c0 38.667 12.5 78.5 37.5 119.5s59.167 76.167 102.5 105.5c-61.333 32.667 -109.5 76.667 -144.5 132s-52.5 117.666 -52.5 186.999c0 87.333 20 160.5 60 219.5s94.833 102.833 164.5 131.5
s149.167 43 238.5 43c108.667 0 200.667 -23 276 -69c25.333 17.333 57.333 31.833 96 43.5s77.667 17.5 117 17.5h111v-175zM750.499 584.002c39.667 35.333 59.499 96.332 59.499 182.999c0 78.667 -18.667 138.334 -56 179.001s-93.666 61 -168.999 61
c-73.333 0 -132 -17.167 -176 -51.5s-66 -95.5 -66 -183.5c0 -70 19.167 -127.667 57.5 -173s96.5 -68 174.5 -68c77.333 0 135.833 17.667 175.5 53zM396.998 7.00098c-22.667 -20 -40.5 -42.333 -53.5 -67s-19.5 -56.334 -19.5 -95.001
c0 -71.333 21.167 -124.333 63.5 -159s110.833 -52 205.5 -52c60.667 0 116.5 6.66699 167.5 20s91.833 33 122.5 59s46 57.333 46 94c0 44 -7.83301 79.833 -23.5 107.5s-44 48.834 -85 63.501s-98.833 22 -173.5 22h-102c-60.667 0 -110 2.33301 -148 7z" />
    <glyph glyph-name="h" unicode="h" horiz-adv-x="1289" 
d="M976.5 1109.5c49 -31.667 84.998 -81.3359 107.998 -149.003s34.5 -156.167 34.5 -265.5v-695h-220v711c0 64.667 -6.5 116.334 -19.5 155.001s-35.667 66.834 -68 84.501s-77.166 25.167 -134.499 22.5c-40 -1.33301 -86 -11.166 -138 -29.499
s-99.667 -43.166 -143 -74.499v-869h-220v1664h220v-475l-10 -161c49.333 35.333 110.833 65.666 184.5 90.999s144.834 38 213.501 38c79.333 0 143.5 -15.833 192.5 -47.5z" />
    <glyph glyph-name="i" unicode="i" horiz-adv-x="606" 
d="M413 1138v-1138h-220v1138h220zM174.5 1560c15.667 24 36.167 42.998 61.5 56.998s51 21 77 21c45.333 0 80.166 -12.667 104.499 -38s36.5 -57.666 36.5 -96.999c0 -29.333 -7.66699 -56 -23 -80s-35.333 -42.667 -60 -56s-51 -20 -79 -20
c-25.333 0 -48.666 5.5 -69.999 16.5s-38.5 26.833 -51.5 47.5s-19.5 44.334 -19.5 71.001c0 28 7.83301 54 23.5 78z" />
    <glyph glyph-name="j" unicode="j" horiz-adv-x="574" 
d="M-25 -346c25.333 -4.66699 46.333 -7 63 -7c58 0 98.333 24.667 121 74s34 126.333 34 231v1186h220v-1101c0 -191.333 -29.5 -329.833 -88.5 -415.5s-147.167 -128.5 -264.5 -128.5c-22 0 -49 1.16699 -81 3.5s-51.333 5.5 -58 9.5v163
c10.667 -5.33301 28.667 -10.333 54 -15zM178.5 1560c15.667 24 36.167 42.998 61.5 56.998s51 21 77 21c45.333 0 80.166 -12.667 104.499 -38s36.5 -57.666 36.5 -96.999c0 -29.333 -7.66699 -56 -23 -80s-35.333 -42.667 -60 -56s-51 -20 -79 -20
c-25.333 0 -48.666 5.5 -69.999 16.5s-38.5 26.833 -51.5 47.5s-19.5 44.334 -19.5 71.001c0 28 7.83301 54 23.5 78z" />
    <glyph glyph-name="k" unicode="k" horiz-adv-x="1163" 
d="M524 542l-141 -148l5 -171v-223h-220v1661h220v-910l-4 -112l455 501h259l-430 -449l483 -691h-250z" />
    <glyph glyph-name="l" unicode="l" horiz-adv-x="613" 
d="M417 1664v-1664h-220v1664h220z" />
    <glyph glyph-name="m" unicode="m" horiz-adv-x="1972" 
d="M1664 1114c47.333 -28.667 82.165 -75.1748 104.498 -139.508s33.5 -151.166 33.5 -260.499v-714h-220v711c0 66.667 -5.33301 118.834 -16 156.501s-31 65.334 -61 83.001s-73.667 25.167 -131 22.5c-40.667 -1.33301 -86.667 -11.166 -138 -29.499
s-98.333 -42.5 -141 -72.5c6 -46 9 -98.333 9 -157v-714h-220v711c0 66.667 -5.5 118.834 -16.5 156.501s-31.5 65.334 -61.5 83.001s-73.333 25.167 -130 22.5c-39.333 -1.33301 -85.166 -11.166 -137.499 -29.499s-99.833 -43.166 -142.5 -74.499v-869h-220v1138h196
l1 -120c51.333 34.667 112.5 66 183.5 94s140.5 43 208.5 45c75.333 2 136.5 -8.16699 183.5 -30.5s82.833 -59.5 107.5 -111.5c50.667 38 114.834 71.167 192.501 99.5s152.834 42.5 225.501 42.5c79.333 0 142.666 -14.333 189.999 -43z" />
    <glyph glyph-name="n" unicode="n" horiz-adv-x="1279" 
d="M372 1138l1 -120.001c52 35.333 116.5 67.333 193.5 96s150.5 43 220.5 43c78.667 0 141.334 -14.667 188.001 -44s80.667 -76.333 102 -141s32 -152 32 -262v-710h-220v711c0 64 -5 114.833 -15 152.5s-28.333 65.834 -55 84.501s-65.334 28 -116.001 28
c-12 0 -21 -0.333008 -27 -1c-40 -1.33301 -85.833 -11.5 -137.5 -30.5s-99.167 -44.167 -142.5 -75.5v-869h-220v1138h196z" />
    <glyph glyph-name="o" unicode="o" horiz-adv-x="1213" 
d="M163 892.5c44.667 86.333 106.336 151.833 185.003 196.5s168 67 268 67c115.333 0 210.333 -26.667 285 -80s129.334 -124.666 164.001 -213.999s52 -190 52 -302c0 -122 -22.333 -226.333 -67 -313s-106.334 -152.167 -185.001 -196.5s-168.334 -66.5 -269.001 -66.5
c-114.667 0 -209.334 26.667 -284.001 80s-129.334 124.666 -164.001 213.999s-52 190 -52 302c0 122 22.333 226.167 67 312.5zM862.502 783.5c-21 66.333 -53.168 118.668 -96.501 157.001s-97.666 57.5 -162.999 57.5c-92.667 0 -163.167 -35.167 -211.5 -105.5
s-72.5 -170.833 -72.5 -301.5c0 -84.667 10.667 -161.167 32 -229.5s53.666 -122.333 96.999 -162s97 -59.5 161 -59.5c92.667 0 163.334 36.333 212.001 109s73 175 73 307c0 85.333 -10.5 161.166 -31.5 227.499z" />
    <glyph glyph-name="p" unicode="p" horiz-adv-x="1238" 
d="M917 1095.5c68 -40.333 122.333 -101.332 163 -182.999s61 -181.834 61 -300.501c0 -122 -23.667 -230.667 -71 -326s-114.166 -169.5 -200.499 -222.5s-186.166 -79.5 -299.499 -79.5c-68 0 -130.333 9.66699 -187 29l3 -152v-367h-220v1646h199v-123
c37.333 39.333 80.666 72.333 129.999 99s114.666 40 195.999 40c82.667 0 158 -20.167 226 -60.5zM843.5 886.501c-49 64.333 -120.167 96.501 -213.5 96.501c-48.667 0 -93.5 -9.16699 -134.5 -27.5s-77.5 -40.166 -109.5 -65.499v-695c20.667 -18 47.5 -31 80.5 -39
s74.5 -12 124.5 -12c62.667 0 118.667 17.333 168 52s88 85.667 116 153s42 148.666 42 243.999c0 131.333 -24.5 229.166 -73.5 293.499z" />
    <glyph glyph-name="q" unicode="q" horiz-adv-x="1237" 
d="M1073 1140l0.00390625 -1646h-220v367l6 247c-36 -35.333 -78.5 -64.833 -127.5 -88.5s-110.833 -35.5 -185.5 -35.5c-82.667 0 -157.834 20.167 -225.501 60.5s-121.834 101.333 -162.501 183s-61 181.834 -61 300.501c0 122 23.667 230.667 71 326
s114.166 169.5 200.499 222.5s186.166 79.5 299.499 79.5c47.333 0 93 -4.66699 137 -14s80.667 -20.333 110 -33zM394.504 253.499c49 -64.333 119.834 -96.5 212.501 -96.5c49.333 0 95 9.33301 137 28s78.333 40.334 109 65.001v695c-20 18 -46.833 31 -80.5 39
s-75.834 12 -126.501 12c-62 0 -117.667 -17.333 -167 -52s-88 -85.834 -116 -153.501s-42 -148.834 -42 -243.501c0 -131.333 24.5 -229.166 73.5 -293.499z" />
    <glyph glyph-name="r" unicode="r" horiz-adv-x="819" 
d="M787 1143l-0.000976562 -206.001c-14 8 -32.167 14.5 -54.5 19.5s-54.166 7.5 -95.499 7.5c-50.667 0 -97.5 -9.16699 -140.5 -27.5s-79.167 -40.5 -108.5 -66.5v-870h-220v1138h185l15 -126c14.667 20 38.5 41.333 71.5 64s70.667 41.834 113 57.501
s83.5 23.5 123.5 23.5c53.333 0 90.333 -4.66699 111 -14z" />
    <glyph glyph-name="s" unicode="s" horiz-adv-x="977" 
d="M215 196.5c34 -13 73.668 -24.499 119.001 -34.499s90.333 -15 135 -15c65.333 0 115.5 12.333 150.5 37s52.5 59 52.5 103c0 42 -19.833 78 -59.5 108s-98.167 61.333 -175.5 94c-100.667 42.667 -178.834 92.667 -234.501 150s-83.5 129.666 -83.5 216.999
c0 64.667 18.167 119.5 54.5 164.5s85.5 78.833 147.5 101.5s132 34 210 34c61.333 0 119 -6.66699 173 -20s92.667 -26.333 116 -39l-36 -166c-18.667 16 -51.667 30.5 -99 43.5s-96.333 19.5 -147 19.5c-70 0 -123.5 -11.333 -160.5 -34s-55.5 -53.667 -55.5 -93
c0 -33.333 8.5 -62 25.5 -86s41.167 -45 72.5 -63s72.333 -37.333 123 -58c97.333 -39.333 177.333 -86.833 240 -142.5s94 -127.167 94 -214.5c0 -68 -16.167 -125.833 -48.5 -173.5s-78.666 -83.834 -138.999 -108.501s-131.833 -37 -214.5 -37
c-74 0 -145.833 8.33301 -215.5 25s-118.834 35.334 -147.501 56.001l33 164c12.667 -8.66699 36 -19.5 70 -32.5z" />
    <glyph glyph-name="t" unicode="t" horiz-adv-x="850" 
d="M228 974l-148 -0.000976562v119l36 10c30.667 8.66699 53.334 15.834 68.001 21.501s27.5 13.667 38.5 24s19.833 24.5 26.5 42.5c10 25.333 24.667 71 44 137l22 72h132v-260h322v-166h-322v-577c0 -76 3 -129.833 9 -161.5s17.167 -52.167 33.5 -61.5
s44.166 -14 83.499 -14c28.667 0 63.5 4.66699 104.5 14s71.167 19 90.5 29l38 -126c-32.667 -24 -79.5 -45.5 -140.5 -64.5s-119.167 -28.5 -174.5 -28.5c-83.333 0 -148 20.833 -194 62.5s-69 117.167 -69 226.5v701z" />
    <glyph glyph-name="u" unicode="u" horiz-adv-x="1249" 
d="M1073 1140v-1156h-85c-26 0 -46.667 2 -62 6s-27.166 12.333 -35.499 25s-12.5 31.667 -12.5 57v28c-52 -31.333 -111.833 -58.5 -179.5 -81.5s-130.834 -34.5 -189.501 -34.5c-92.667 0 -163.667 19.667 -213 59s-82.666 93.833 -99.999 163.5s-26 158.834 -26 267.501
v666h220v-665c0 -92.667 6.83301 -160.834 20.5 -204.501s34.667 -72.167 63 -85.5s70.166 -20 125.499 -20c40 0 85.167 8.66699 135.5 26s89.833 35.333 118.5 54v895h220z" />
    <glyph glyph-name="v" unicode="v" horiz-adv-x="1113" 
d="M1094 1140l-438 -1156h-185l-452 1156h237l226 -649l84 -272l77 272l217 649h234z" />
    <glyph glyph-name="w" unicode="w" horiz-adv-x="1632" 
d="M1611 1140l-348 -1156h-203l-204 745l-37 182l-40 -182l-201 -745h-209l-348 1156h220l184 -684l50 -214l46 213l190 685h219l189 -684l49 -218l50 211l178 691h215z" />
    <glyph glyph-name="x" unicode="x" horiz-adv-x="1134" 
d="M1100 0h-255l-250 379l-34 55l-28 -58l-232 -376h-251l401 579l-404 561h250l250 -378l25 -42l21 44l251 376h247l-405 -557z" />
    <glyph glyph-name="y" unicode="y" horiz-adv-x="1116" 
d="M1093 1140l-384 -1176c-85.333 -260.667 -204.666 -412.667 -357.999 -456c-15.333 -4 -33.333 -7.5 -54 -10.5s-38.667 -4.5 -54 -4.5c-17.333 0 -39 1.5 -65 4.5s-41.667 6.16699 -47 9.5v179c10 -3.33301 25.167 -6 45.5 -8s37.166 -3 50.499 -3
c33.333 0 68.5 9 105.5 27s72.833 51.167 107.5 99.5s62 114.5 82 198.5h-65l-413 1140h235l252 -768l58 -186l51 186l216 768h237z" />
    <glyph glyph-name="z" unicode="z" horiz-adv-x="1061" 
d="M692 972h-550v168h812l35 -95l-550 -801l-59 -84h589v-160h-845l-42 82z" />
    <glyph glyph-name="braceleft" unicode="{" horiz-adv-x="972" 
d="M492 882c-20 -19.333 -45.833 -36.8301 -77.5 -52.4971s-71.5 -33.167 -119.5 -52.5c94.667 -36.667 161.667 -75.667 201 -117c26.667 -28.667 40 -58 40 -88v-621h266v-112c-43.333 -12 -86.833 -20.833 -130.5 -26.5s-92.5 -8.5 -146.5 -8.5
c-52 0 -92.167 7.66699 -120.5 23s-48.333 41.166 -60 77.499s-17.5 88.166 -17.5 155.499v511c0 18.667 -13.667 37.834 -41 57.501s-60.833 36.667 -100.5 51s-76.5 23.166 -110.5 26.499v142c34.667 3.33301 71.834 11.5 111.501 24.5s73 28.667 100 47
s40.5 36.833 40.5 55.5v511c0 67.333 5.83301 119.166 17.5 155.499s31.667 62.166 60 77.499s68.5 23 120.5 23c42 0 80.667 -1.66699 116 -5s77.666 -8.33301 126.999 -15l34 -4v-122h-266v-620c0 -35.333 -14.667 -66.666 -44 -93.999z" />
    <glyph glyph-name="bar" unicode="|" horiz-adv-x="855" 
d="M529 1780v-1968h-203v1968h203z" />
    <glyph glyph-name="braceright" unicode="}" horiz-adv-x="972" 
d="M685.5 919.5c27 -18.333 60.333 -34.0029 100 -47.0029s76.834 -21.167 111.501 -24.5v-142c-34 -3.33301 -70.833 -12.166 -110.5 -26.499s-73.167 -31.333 -100.5 -51s-41 -38.834 -41 -57.501v-511c0 -67.333 -5.83301 -119.166 -17.5 -155.499
s-31.667 -62.166 -60 -77.499s-68.5 -23 -120.5 -23c-54 0 -102.833 2.83301 -146.5 8.5s-87.167 14.5 -130.5 26.5v112h266v621c0 30 13.333 59.333 40 88c39.333 41.333 106.333 80.333 201 117c-48 19.333 -87.833 36.833 -119.5 52.5s-57.5 33.167 -77.5 52.5
c-29.333 27.333 -44 58.666 -44 93.999v620h-266v122l34 4c49.333 6.66699 91.666 11.667 126.999 15s74 5 116 5c52 0 92.167 -7.66699 120.5 -23s48.333 -41.166 60 -77.499s17.5 -88.166 17.5 -155.499v-511c0 -18.667 13.5 -37.167 40.5 -55.5z" />
    <glyph glyph-name="asciitilde" unicode="~" horiz-adv-x="1438" 
d="M278.5 853.5c29.667 33 66.4971 60.6719 110.497 83.0049s91.667 33.5 143 33.5c32 0 61.333 -4.33301 88 -13s49.834 -19.334 69.501 -32.001s42.5 -29 68.5 -49c31.333 -25.333 58.333 -44 81 -56s48.334 -18 77.001 -18c44 0 82 10 114 30s61.333 48 88 84l103 -99
c-14 -36.667 -35.167 -70.334 -63.5 -101.001s-64.166 -55.334 -107.499 -74.001s-92 -28 -146 -28c-32 0 -61 4.33301 -87 13s-48.167 19.167 -66.5 31.5s-40.833 28.833 -67.5 49.5c-31.333 25.333 -58.333 44.166 -81 56.499s-48.667 18.5 -78 18.5
c-43.333 0 -79.5 -9.83301 -108.5 -29.5s-57.167 -47.834 -84.5 -84.501l-115 89c12 30.667 32.833 62.5 62.5 95.5z" />
    <glyph glyph-name="uni00A0" unicode="&#xa0;" horiz-adv-x="655" 
 />
    <glyph glyph-name="exclamdown" unicode="&#xa1;" horiz-adv-x="602" 
d="M432 1125c-15.333 -26 -35.3311 -46.666 -59.998 -61.999s-50.334 -23 -77.001 -23c-46.667 0 -83 14.833 -109 44.5s-39 66.5 -39 110.5c0 31.333 7.5 60.166 22.5 86.499s35 47 60 62s51.5 22.5 79.5 22.5c26 0 50.167 -6.83301 72.5 -20.5s40.166 -32.5 53.499 -56.5
s20 -50.667 20 -80c0 -30 -7.66699 -58 -23 -84zM172.002 -435.999l24 1274h196l28 -1274h-248z" />
    <glyph glyph-name="cent" unicode="&#xa2;" horiz-adv-x="1183" 
d="M892.5 24.5c-48.333 -18.333 -101.168 -30.5 -158.501 -36.5l-3 -204h-150l4 205c-89.333 11.333 -166.333 42.833 -231 94.5s-113.667 118.5 -147 200.5s-50 173.333 -50 274c0 104 17.333 198.333 52 283s86.5 154.167 155.5 208.5s153.167 87.833 252.5 100.5l6 227
h149l-5 -223c51.333 -4 96.5 -11.5 135.5 -22.5s67.5 -22.5 85.5 -34.5l-35 -174c-30.667 21.333 -66.667 37.166 -108 47.499s-90.666 15.5 -147.999 15.5s-110.833 -14.667 -160.5 -44s-89.834 -75.166 -120.501 -137.499s-46 -140.833 -46 -235.5
c0 -88 14 -163.5 42 -226.5s66.333 -110.833 115 -143.5s103.334 -49 164.001 -49c52.667 0 104 6.83301 154 20.5s89.333 29.167 118 46.5l45 -125c-28.667 -26.667 -67.167 -49.167 -115.5 -67.5z" />
    <glyph glyph-name="sterling" unicode="&#xa3;" horiz-adv-x="1532" 
d="M1321.5 512.5c19.667 -23.667 36.498 -52.502 50.498 -86.502s21 -70.333 21 -109c0 -114.667 -36.333 -199.5 -109 -254.5s-179.667 -82.5 -321 -82.5c-74 0 -138.5 7 -193.5 21s-114.5 33 -178.5 57c-36 13.333 -63.667 22.833 -83 28.5s-37.333 7.5 -54 5.5
c-22.667 -24.667 -52.5 -46.5 -89.5 -65.5s-73.833 -28.5 -110.5 -28.5c-15.333 0 -31.5 3.5 -48.5 10.5s-31.167 16.667 -42.5 29s-17 26.5 -17 42.5c0 48.667 22.167 89.5 66.5 122.5s109.5 51.5 195.5 55.5c11.333 25.333 18.833 55.333 22.5 90s5.5 74.667 5.5 120v288
h-181v152h181v137c0 98.667 18.833 185.167 56.5 259.5s92 131.833 163 172.5s155.5 61 253.5 61c76.667 0 142 -9.16699 196 -27.5s98 -42.166 132 -71.499l-104 -158c-33.333 28.667 -68.833 51 -106.5 67s-84.5 24 -140.5 24c-68 0 -123.667 -25.5 -167 -76.5
s-64.666 -144.5 -63.999 -280.5l1 -107h352v-152h-351v-35v-77c0 -123.333 -5 -217.5 -15 -282.5s-30.667 -114.5 -62 -148.5c28 -4.66699 54.167 -11 78.5 -19l42.5 -14c42.667 -14.667 80.334 -25.5 113.001 -32.5s73.667 -10.5 123 -10.5c165.333 0 248 65.333 248 196
c0 24 -4 46.833 -12 68.5s-17.833 39.834 -29.5 54.501s-23.167 23.667 -34.5 27l156 80c18 -10 36.833 -26.833 56.5 -50.5z" />
    <glyph glyph-name="currency" unicode="&#xa4;" horiz-adv-x="1527" 
d="M1126 518l204.999 -206.002l-127 -127l-209 210c-70 -42.667 -147 -64 -231 -64c-80 0 -155.667 20.667 -227 62l-211 -212l-127 127l206 207c-26.667 36.667 -47.167 77 -61.5 121s-21.5 89.667 -21.5 137s7 92.833 21 136.5s34.333 83.834 61 120.501l-205 205l126 128
l210 -212c70 42.667 146.333 64 229 64s159.334 -21 230.001 -63l214 213l127 -127l-209 -209c26 -36.667 46 -76.667 60 -120s21 -88.666 21 -135.999c0 -94 -27 -179 -81 -255zM897.499 532.498c40.333 25 72.333 58.833 96 101.5s35.5 89 35.5 139
s-11.833 96.167 -35.5 138.5s-55.667 76 -96 101s-84.5 37.5 -132.5 37.5s-92.333 -12.5 -133 -37.5s-73 -58.667 -97 -101s-36 -88.5 -36 -138.5s12 -96.333 36 -139s56.333 -76.5 97 -101.5s85 -37.5 133 -37.5s92.167 12.5 132.5 37.5z" />
    <glyph glyph-name="yen" unicode="&#xa5;" horiz-adv-x="1532" 
d="M920 810h319v-143h-360v-231h360v-143h-360v-293h-220v293h-385v143h385v231h-385v143h337l-447 712h238l304 -525l65 -134l61 141l312 518h233z" />
    <glyph glyph-name="brokenbar" unicode="&#xa6;" horiz-adv-x="855" 
d="M529 1780v-830h-203v830h203zM529 641v-827h-203v827h203z" />
    <glyph glyph-name="section" unicode="&#xa7;" horiz-adv-x="1358" 
d="M1132 150c0 -82.667 -24.3271 -149.666 -72.9941 -200.999s-110 -87.833 -184 -109.5s-152 -32.5 -234 -32.5c-59.333 0 -116.833 4.66699 -172.5 14s-104.834 21 -147.501 35s-74.667 28.667 -96 44l42 166c32.667 -24 82.667 -45.833 150 -65.5
s141.666 -29.5 222.999 -29.5c84.667 0 154.667 12.667 210 38s83 65.666 83 120.999c0 35.333 -13 66.666 -39 93.999s-58.5 50.833 -97.5 70.5s-92.5 43.834 -160.5 72.501c-88.667 36.667 -161.167 70.334 -217.5 101.001s-104.333 70.667 -144 120s-59.5 109 -59.5 179
c0 57.333 12.5 112.5 37.5 165.5s58.833 100.833 101.5 143.5c-40.667 34 -72.167 71.833 -94.5 113.5s-33.5 89.167 -33.5 142.5c0 83.333 23.167 150.333 69.5 201s104.5 86.667 174.5 108s143.667 32 221 32c85.333 0 159.166 -7.16699 221.499 -21.5
s110.5 -31.5 144.5 -51.5l-42 -166c-28.667 20 -69.834 37.5 -123.501 52.5s-119.834 22.5 -198.501 22.5c-76.667 0 -140.334 -12.5 -191.001 -37.5s-76 -63.5 -76 -115.5c0 -40 13.5 -75.833 40.5 -107.5s60.833 -59.334 101.5 -83.001s95.667 -52.167 165 -85.5
c88 -42 159.333 -79.833 214 -113.5s101.167 -76.5 139.5 -128.5s57.5 -113.667 57.5 -185c0 -52 -10 -102.333 -30 -151s-47.667 -94 -83 -136c67.333 -58.667 101 -130.667 101 -216zM460.006 681.501c29.333 -33.667 65.499 -61.668 108.499 -84.001
s102.167 -48.833 177.5 -79.5c7.33301 -3.33301 28.333 -12.166 63 -26.499s66.334 -28.5 95.001 -42.5c12 29.333 21.833 58.833 29.5 88.5s11.5 56.167 11.5 79.5c0 49.333 -14.667 92.333 -44 129s-65.666 67.667 -108.999 93s-102.333 55 -177 89
c-60.667 28 -108.334 51.333 -143.001 70c-16 -32.667 -29.333 -66.5 -40 -101.5s-16 -66.167 -16 -93.5c0 -47.333 14.667 -87.833 44 -121.5z" />
    <glyph glyph-name="dieresis" unicode="&#xa8;" horiz-adv-x="863" 
d="M82.5 1567.5c15 23 34.501 41.1689 58.501 54.502s48.667 20 74 20c43.333 0 75.833 -12 97.5 -36s32.5 -55.333 32.5 -94c0 -28.667 -7.16699 -54.334 -21.5 -77.001s-33.333 -40.334 -57 -53.001s-48.834 -19 -75.501 -19c-37.333 0 -68.5 11.833 -93.5 35.5
s-37.5 55.167 -37.5 94.5c0 26.667 7.5 51.5 22.5 74.5zM540.501 1567.5c15 23 34.501 41.1689 58.501 54.502s48.667 20 74 20c42.667 0 75 -12.167 97 -36.5s33 -55.5 33 -93.5c0 -28.667 -7.16699 -54.334 -21.5 -77.001s-33.333 -40.334 -57 -53.001
s-48.834 -19 -75.501 -19c-37.333 0 -68.5 11.833 -93.5 35.5s-37.5 55.167 -37.5 94.5c0 26.667 7.5 51.5 22.5 74.5z" />
    <glyph glyph-name="copyright" unicode="&#xa9;" horiz-adv-x="2129" 
d="M1503 1722.5c133.333 -78.333 238.668 -184.666 316.001 -318.999s116 -281.166 116 -440.499c0 -160 -38.833 -307.333 -116.5 -442s-183 -241.5 -316 -320.5s-279.167 -118.5 -438.5 -118.5s-305.5 39.5 -438.5 118.5s-238.167 185.833 -315.5 320.5s-116 282 -116 442
c0 159.333 38.667 306.166 116 440.499s182.5 240.666 315.5 318.999s279.167 117.5 438.5 117.5s305.666 -39.167 438.999 -117.5zM1435.5 312c111 67.333 198.167 158.5 261.5 273.5s95 240.833 95 377.5s-31.667 262.334 -95 377.001s-150.5 205.667 -261.5 273
s-234.833 101 -371.5 101s-260.5 -33.667 -371.5 -101s-198.167 -158.333 -261.5 -273s-95 -240.334 -95 -377.001s31.667 -262.5 95 -377.5s150.5 -206.167 261.5 -273.5s234.833 -101 371.5 -101s260.5 33.667 371.5 101zM1355 1394l-32.001 -164.002
c-64 42 -139 63 -225 63c-59.333 0 -110.333 -14 -153 -42s-75 -66.5 -97 -115.5s-33 -103.833 -33 -164.5c0 -70.667 11.5 -131.167 34.5 -181.5s55 -88.5 96 -114.5s88.5 -39 142.5 -39c48 0 93.833 6 137.5 18s80.167 26.333 109.5 43l45 -124
c-33.333 -28 -78.666 -50.667 -135.999 -68s-118.333 -26 -183 -26c-89.333 0 -167.333 22 -234 66s-117.667 102.5 -153 175.5s-53 151.5 -53 235.5c0 94.667 19.167 179.334 57.5 254.001s94.833 133.334 169.5 176.001s164.334 64 269.001 64
c93.333 0 172.666 -18.667 237.999 -56z" />
    <glyph glyph-name="ordfeminine" unicode="&#xaa;" horiz-adv-x="1034" 
d="M787.5 1531.5c59 -45 88.5 -121.499 88.5 -229.499v-615h-71h-46.5c-26.333 0 -44.5 5.83301 -54.5 17.5s-15 29.834 -15 54.501v14c-25.333 -26 -61.166 -48.5 -107.499 -67.5s-96.5 -28.5 -150.5 -28.5c-60.667 0 -113.834 9.66699 -159.501 29
s-81.334 47.666 -107.001 84.999s-38.5 82 -38.5 134c0 64.667 15.667 117 47 157s75.666 71.333 132.999 94c54 20 113.5 34.333 178.5 43s129.5 13 193.5 13v64c0 44 -7.16699 76.5 -21.5 97.5s-34.666 34.667 -60.999 41s-63.166 9.5 -110.499 9.5
c-28 0 -60.833 -4.5 -98.5 -13.5s-73.167 -19.833 -106.5 -32.5s-57.333 -24 -72 -34l-56 121c13.333 12.667 40.833 28.167 82.5 46.5s89.167 34.166 142.5 47.499s104 20 152 20c113.333 0 199.5 -22.5 258.5 -67.5zM557 835.501
c29.333 7.66699 54.6689 16.501 76.002 26.501s36 18.667 44 26l1 -1v223c-68.667 0 -122.834 -1.66699 -162.501 -5s-75.5 -13 -107.5 -29c-30.667 -15.333 -53 -33.333 -67 -54s-21 -48.334 -21 -83.001c0 -38 13.667 -66.667 41 -86s62.666 -29 105.999 -29
c30.667 0 60.667 3.83301 90 11.5z" />
    <glyph glyph-name="guillemotleft" unicode="&#xab;" horiz-adv-x="1936" 
d="M461 615l484 -352l-57 -159l-643 415v184l643 430l57 -163zM1192 615l484 -352l-57 -159l-643 415v184l643 430l57 -163z" />
    <glyph glyph-name="logicalnot" unicode="&#xac;" horiz-adv-x="1470" 
d="M1230 852v-529h-200v365h-790v164h990z" />
    <glyph glyph-name="registered" unicode="&#xae;" horiz-adv-x="2129" 
d="M1503 1722.5c133.333 -78.333 238.668 -184.666 316.001 -318.999s116 -281.166 116 -440.499c0 -160 -38.833 -307.333 -116.5 -442s-183 -241.5 -316 -320.5s-279.167 -118.5 -438.5 -118.5s-305.5 39.5 -438.5 118.5s-238.167 185.833 -315.5 320.5s-116 282 -116 442
c0 159.333 38.667 306.166 116 440.499s182.5 240.666 315.5 318.999s279.167 117.5 438.5 117.5s305.666 -39.167 438.999 -117.5zM1435.5 312c111 67.333 198.167 158.5 261.5 273.5s95 240.833 95 377.5s-31.667 262.334 -95 377.001s-150.5 205.667 -261.5 273
s-234.833 101 -371.5 101s-260.5 -33.667 -371.5 -101s-198.167 -158.333 -261.5 -273s-95 -240.334 -95 -377.001s31.667 -262.5 95 -377.5s150.5 -206.167 261.5 -273.5s234.833 -101 371.5 -101s260.5 33.667 371.5 101zM815.002 1441
c22 0 42.498 0.332031 61.498 0.999023s36.167 1.33398 51.5 2.00098c61.333 2.66699 109.666 4 144.999 4c81.333 0 148.833 -12.167 202.5 -36.5s93.167 -57 118.5 -98s38 -87.5 38 -139.5c0 -77.333 -15.167 -141.5 -45.5 -192.5s-79.5 -86.833 -147.5 -107.5
c24.667 -18 45.834 -40.833 63.501 -68.5s38.5 -65.167 62.5 -112.5l27 -54c11.333 -20 32.333 -53 63 -99l40 -61l-204 1c-14.667 19.333 -27.667 39.166 -39 59.499s-24.666 46.5 -39.999 78.5l-14 31c-17.333 39.333 -32.5 71 -45.5 95s-29 45.833 -48 65.5
s-40.833 32.834 -65.5 39.501c-17.333 -0.666992 -58.666 -1 -123.999 -1v-369h-177v962h77zM1198.5 1016.5c33 27 49.5 71.833 49.5 134.5c0 54 -14.833 95 -44.5 123s-83.5 42 -161.5 42c-29.333 0 -53 -0.666992 -71 -2s-36.667 -4.33301 -56 -9v-325
c26.667 -2.66699 70 -4 130 -4c69.333 0 120.5 13.5 153.5 40.5z" />
    <glyph glyph-name="macron" unicode="&#xaf;" horiz-adv-x="647" 
d="M597 1588v-163h-547v163h547z" />
    <glyph glyph-name="degree" unicode="&#xb0;" horiz-adv-x="912" 
d="M627.5 1573c51.667 -29.333 92.666 -69.833 122.999 -121.5s45.5 -109.5 45.5 -173.5c0 -64.667 -15 -122.667 -45 -174s-71 -91.666 -123 -120.999s-109.333 -44 -172 -44c-62 0 -119 14.667 -171 44s-93.167 69.833 -123.5 121.5s-45.5 109.5 -45.5 173.5
c0 64.667 15 122.667 45 174s71 91.666 123 120.999s109.333 44 172 44s119.834 -14.667 171.501 -44zM548.999 1108.5c28 17 50.335 40.333 67.002 70s25 62.834 25 99.501s-8.33301 69.834 -25 99.501s-39 52.834 -67 69.501s-59 25 -93 25s-65 -8.33301 -93 -25
s-50.167 -39.834 -66.5 -69.501s-24.5 -62.834 -24.5 -99.501s8.16699 -69.834 24.5 -99.501s38.666 -53 66.999 -70s59.166 -25.5 92.499 -25.5c34 0 65 8.5 93 25.5z" />
    <glyph glyph-name="plusminus" unicode="&#xb1;" horiz-adv-x="1393" 
d="M614 692l-165 -7h-220v177h220l165 -11l-7 172v228h178v-228l-8 -172l141 11h246v-177h-246l-141 7l8 -171v-236h-178v236zM1142 165v-165h-892v165h892z" />
    <glyph glyph-name="uni00B2" unicode="&#xb2;" horiz-adv-x="1194" 
d="M996 830l-0.000976562 -164.998h-748l-43 110c63.333 33.333 135.5 80.5 216.5 141.5s152.167 129.667 213.5 206s92 150.166 92 221.499c0 61.333 -16.667 107.166 -50 137.499s-78.666 45.5 -135.999 45.5c-54 0 -103.333 -11.833 -148 -35.5s-87 -59.167 -127 -106.5
l-91 109c22 32.667 53 63.5 93 92.5s86.833 52.833 140.5 71.5s110.5 28 170.5 28c80.667 0 148.167 -14.5 202.5 -43.5s94.5 -66.5 120.5 -112.5s39 -95.333 39 -148c0 -102.667 -36.167 -201.167 -108.5 -295.5s-170.5 -181.5 -294.5 -261.5z" />
    <glyph glyph-name="uni00B3" unicode="&#xb3;" horiz-adv-x="1194" 
d="M410.5 731.5c23 -3 53.499 -4.49902 91.499 -4.49902c92.667 0 160.5 15.667 203.5 47s64.5 80.333 64.5 147c0 52.667 -19.667 95 -59 127s-91.333 49.667 -156 53l-88 -28l-37 128c20 4 45 11.167 75 21.5s56.667 20.833 80 31.5c84 38 126 93.333 126 166
c0 40.667 -14.333 71.834 -43 93.501s-66 32.5 -112 32.5c-33.333 0 -71.833 -7.16699 -115.5 -21.5s-82.5 -33.5 -116.5 -57.5l-62 119c28 22.667 62 42 102 58s79.333 27.833 118 35.5s69.667 11.5 93 11.5c74.667 0 137.167 -10.667 187.5 -32
s87.833 -49.833 112.5 -85.5s37 -75.834 37 -120.501c0 -58 -17.333 -110 -52 -156s-86.667 -84 -156 -114c59.333 -2.66699 109.833 -16.334 151.5 -41.001s73 -56.167 94 -94.5s31.5 -78.5 31.5 -120.5c0 -66.667 -15.833 -126.167 -47.5 -178.5
s-80.667 -93.833 -147 -124.5s-149.166 -46 -248.499 -46c-32.667 0 -65 2.5 -97 7.5s-69.333 11.833 -112 20.5l-14 142c40.667 -8 72.5 -13.5 95.5 -16.5z" />
    <glyph glyph-name="acute" unicode="&#xb4;" horiz-adv-x="594" 
d="M71 1407l187.498 210.503c45.667 53 88.834 108.167 129.501 165.5l156 -135c-16 -26.667 -50.333 -66.834 -103 -120.501s-106.667 -103.834 -162 -150.501s-94.666 -74.334 -117.999 -83.001l-111 90z" />
    <glyph glyph-name="uni00B5" unicode="&#xb5;" horiz-adv-x="1360" 
d="M1256 87c-6.66699 -9.33301 -20.502 -22.502 -41.502 -39.502s-46.667 -32.167 -77 -45.5s-61.833 -20 -94.5 -20c-38.667 0 -69 10.833 -91 32.5s-31.667 56.834 -29 105.501c-23.333 -26 -45.666 -48.167 -66.999 -66.5s-49 -34.5 -83 -48.5s-73.333 -21 -118 -21
c-66 0 -120.5 7.83301 -163.5 23.5s-79.167 42.5 -108.5 80.5l32 -459h-205v1511h219v-741c0 -60 8.83301 -107.667 26.5 -143s44.334 -60.666 80.001 -75.999s82.167 -23 139.5 -23c36.667 0 74 8.66699 112 26s73.333 38 106 62v895h220v-906
c0 -29.333 2.66699 -49.333 8 -60s14 -16 26 -16c22 0 48 9 78 27z" />
    <glyph glyph-name="paragraph" unicode="&#xb6;" horiz-adv-x="1320" 
d="M192 890c-72.667 75.333 -109 194.667 -109 358c0 94 21.833 175.667 65.5 245s108.5 123 194.5 161s190.667 57 314 57c48 0 135 -3.66699 261 -11c106 -5.33301 175.333 -8.33301 208 -9v-1691h-184v1548h-241v-1548h-184v777c-144 0 -252.333 37.667 -325 113z" />
    <glyph glyph-name="periodcentered" unicode="&#xb7;" horiz-adv-x="602" 
d="M170 803c15.333 26 35.332 46.8311 59.999 62.498s50.667 23.5 78 23.5c46.667 0 82.834 -15 108.501 -45s38.5 -67 38.5 -111c0 -31.333 -7.5 -60 -22.5 -86s-35 -46.5 -60 -61.5s-51.5 -22.5 -79.5 -22.5c-25.333 0 -49.333 6.83301 -72 20.5
s-40.667 32.334 -54 56.001s-20 49.834 -20 78.501c0 30.667 7.66699 59 23 85z" />
    <glyph glyph-name="cedilla" unicode="&#xb8;" horiz-adv-x="485" 
d="M144 -308c35.333 0 64.499 12.1689 87.499 36.502s36.167 62.166 39.5 113.499c3.33301 21.333 5 44.333 5 69c0 46 -8.33301 85.667 -25 119l83 4l43 -4c19.333 -20.667 34 -49.167 44 -85.5s15 -77.5 15 -123.5c0 -10.667 -0.666992 -27.334 -2 -50.001
c-6.66699 -79.333 -32.5 -138.333 -77.5 -177s-99.167 -58 -162.5 -58c-28 0 -56.667 2.66699 -86 8s-49.666 12 -60.999 20l15 142c14.667 -9.33301 42 -14 82 -14z" />
    <glyph glyph-name="uni00B9" unicode="&#xb9;" horiz-adv-x="1026" 
d="M374 1402c-45.333 -12.667 -82.668 -21.668 -112.001 -27.001l-40 121c37.333 10.667 79.833 28.334 127.5 53.001s92.5 50.5 134.5 77.5s72 47.833 90 62.5l105 -25v-1001h-211v763c-25.333 -5.33301 -56.666 -13.333 -93.999 -24z" />
    <glyph glyph-name="ordmasculine" unicode="&#xba;" horiz-adv-x="1033" 
d="M743.5 1542c58.333 -38 102.667 -91.332 133 -159.999s45.5 -148.334 45.5 -239.001c0 -106.667 -19.167 -194.834 -57.5 -264.501s-88.666 -120.667 -150.999 -153s-129.833 -48.5 -202.5 -48.5c-82.667 0 -154.167 19 -214.5 57s-106.333 92 -138 162
s-47.5 152 -47.5 246c0 104.667 20.667 191.334 62 260.001s94.166 118.667 158.499 150s131.5 47 201.5 47c82 0 152.167 -19 210.5 -57zM665.501 897.001c32.333 48 48.502 125.333 48.502 232c0 100.667 -16.333 179.667 -49 237s-79.334 86 -140.001 86
c-63.333 0 -113.5 -24 -150.5 -72s-55.5 -124.333 -55.5 -229c0 -66 8 -123.5 24 -172.5s39 -86.833 69 -113.5s65.667 -40 107 -40c65.333 0 114.166 24 146.499 72z" />
    <glyph glyph-name="guillemotright" unicode="&#xbb;" horiz-adv-x="1936" 
d="M316 1133l643 -430v-184l-643 -415l-57 159l484 352l-484 355zM1690 703v-184l-643 -415l-57 159l484 352l-484 355l57 163z" />
    <glyph glyph-name="onequarter" unicode="&#xbc;" horiz-adv-x="2479" 
d="M2075 234v-282h-204l1 282h-499l-52 94l482 811h68l131 -77l-396 -608l-42 -69h308v3l8 249l195 20v-272h194l1 -151h-195zM1287 1530h200l-542 -1530h-197zM397 1402c-45.333 -12.667 -82.668 -21.668 -112.001 -27.001l-40 121
c37.333 10.667 79.833 28.334 127.5 53.001s92.5 50.5 134.5 77.5s72 47.833 90 62.5l105 -25v-1001h-211v763c-25.333 -5.33301 -56.666 -13.333 -93.999 -24z" />
    <glyph glyph-name="onehalf" unicode="&#xbd;" horiz-adv-x="2479" 
d="M2283 162l-0.000976562 -164.998h-748l-43 110c63.333 33.333 135.5 80.5 216.5 141.5s152.167 129.667 213.5 206s92 150.166 92 221.499c0 61.333 -16.667 107.166 -50 137.499s-78.666 45.5 -135.999 45.5c-54 0 -103.333 -11.833 -148 -35.5s-87 -59.167 -127 -106.5
l-91 109c22 32.667 53 63.5 93 92.5s86.833 52.833 140.5 71.5s110.5 28 170.5 28c80.667 0 148.167 -14.5 202.5 -43.5s94.5 -66.5 120.5 -112.5s39 -95.333 39 -148c0 -102.667 -36.167 -201.167 -108.5 -295.5s-170.5 -181.5 -294.5 -261.5zM396.999 1402
c-45.333 -12.667 -82.668 -21.668 -112.001 -27.001l-40 121c37.333 10.667 79.833 28.334 127.5 53.001s92.5 50.5 134.5 77.5s72 47.833 90 62.5l105 -25v-1001h-211v763c-25.333 -5.33301 -56.666 -13.333 -93.999 -24zM1288 1530h200l-542 -1530h-197z" />
    <glyph glyph-name="threequarters" unicode="&#xbe;" horiz-adv-x="2479" 
d="M2075 234v-282h-204l1 282h-499l-52 94l482 811h68l131 -77l-396 -608l-42 -69h308v3l8 249l195 20v-272h194l1 -151h-195zM263.5 731.5c23 -3 53.499 -4.49902 91.499 -4.49902c92.667 0 160.5 15.667 203.5 47s64.5 80.333 64.5 147c0 52.667 -19.667 95 -59 127
s-91.333 49.667 -156 53l-88 -28l-37 128c20 4 45 11.167 75 21.5s56.667 20.833 80 31.5c84 38 126 93.333 126 166c0 40.667 -14.333 71.834 -43 93.501s-66 32.5 -112 32.5c-33.333 0 -71.833 -7.16699 -115.5 -21.5s-82.5 -33.5 -116.5 -57.5l-62 119
c28 22.667 62 42 102 58s79.333 27.833 118 35.5s69.667 11.5 93 11.5c74.667 0 137.167 -10.667 187.5 -32s87.833 -49.833 112.5 -85.5s37 -75.834 37 -120.501c0 -58 -17.333 -110 -52 -156s-86.667 -84 -156 -114c59.333 -2.66699 109.833 -16.334 151.5 -41.001
s73 -56.167 94 -94.5s31.5 -78.5 31.5 -120.5c0 -66.667 -15.833 -126.167 -47.5 -178.5s-80.667 -93.833 -147 -124.5s-149.166 -46 -248.499 -46c-32.667 0 -65 2.5 -97 7.5s-69.333 11.833 -112 20.5l-14 142c40.667 -8 72.5 -13.5 95.5 -16.5zM1287 1530h200l-542 -1530
h-197z" />
    <glyph glyph-name="questiondown" unicode="&#xbf;" horiz-adv-x="1047" 
d="M690 1312.5c-15.333 -25.667 -35.167 -46 -59.5 -61s-49.5 -22.5 -75.5 -22.5c-45.333 0 -80.666 14.5 -105.999 43.5s-38 64.833 -38 107.5c0 30.667 7.5 58.667 22.5 84s34.667 45.333 59 60s50.166 22 77.499 22c24.667 0 48 -6.66699 70 -20s39.667 -31.5 53 -54.5
s20 -48.5 20 -76.5c0 -29.333 -7.66699 -56.833 -23 -82.5zM741.999 652c-20.667 -31.333 -46.1631 -58.999 -76.4961 -82.999s-70.5 -52.333 -120.5 -85c-42 -27.333 -75.5 -50.333 -100.5 -69s-47 -39.334 -66 -62.001s-30.833 -46.667 -35.5 -72
c-9.33301 -39.333 -14 -75 -14 -107c0 -64.667 16.667 -119.667 50 -165s81.166 -79.833 143.499 -103.5s136.166 -35.5 221.499 -35.5c75.333 0 135.666 5.66699 180.999 17v-160c-12.667 -9.33301 -40.5 -18.666 -83.5 -27.999s-87.167 -14 -132.5 -14
c-134 0 -245.667 21.167 -335 63.5s-155.333 99.166 -198 170.499s-64 150.666 -64 237.999c0 37.333 4 75 12 113c8.66699 51.333 26.334 96.333 53.001 135s56.167 70.834 88.5 96.501s73.5 55.167 123.5 88.5c38 24.667 67.667 45.334 89 62.001
s39.666 35.167 54.999 55.5s24 42.833 26 67.5c1.33301 18.667 2 31.667 2 39c0 30 -3.16699 58.667 -9.5 86s-16.5 64.333 -30.5 111l-6 19h167c23.333 -28.667 43.5 -67.834 60.5 -117.501s26.5 -102.5 28.5 -158.5c1.33301 -36.667 -8.33398 -70.667 -29.001 -102z" />
    <glyph glyph-name="Agrave" unicode="&#xc0;" horiz-adv-x="1407" 
d="M1016 385h-623l-136 -385h-236l582 1538h215l568 -1538h-241zM960 551l-205 609l-43 142l-44 -142l-216 -609h508zM612 1639c-53.333 32.667 -105.501 68.5 -156.501 107.5s-88.833 72.5 -113.5 100.5l146 133c2 -5.33301 50.333 -50.833 145 -136.5l198 -178.5l-92 -92
c-31.333 11.333 -73.666 33.333 -126.999 66z" />
    <glyph glyph-name="Aacute" unicode="&#xc1;" horiz-adv-x="1407" 
d="M1016 385h-623l-136 -385h-236l582 1538h215l568 -1538h-241zM960 551l-205 609l-43 142l-44 -142l-216 -609h508zM772 1843.5c94.667 85.667 143 131.166 145 136.499l146 -133c-49.333 -50.667 -114 -104.167 -194 -160.5s-147.333 -94.166 -202 -113.499l-93 92z" />
    <glyph glyph-name="Acircumflex" unicode="&#xc2;" horiz-adv-x="1407" 
d="M1016 385h-623l-136 -385h-236l582 1538h215l568 -1538h-241zM960 551l-205 609l-43 142l-44 -142l-216 -609h508zM603 1990h197l262 -298l-144 -60l-216 202l-221 -202l-137 57z" />
    <glyph glyph-name="Atilde" unicode="&#xc3;" horiz-adv-x="1407" 
d="M1016 385h-623l-136 -385h-236l582 1538h215l568 -1538h-241zM960 551l-205 609l-43 142l-44 -142l-216 -609h508zM355 1871c30.667 30 65 53.334 103 70.001s74.667 25 110 25c38.667 0 70.667 -7 96 -21s53 -34 83 -60c23.333 -20 42.833 -34.667 58.5 -44
s33.5 -14 53.5 -14c32.667 0 63.334 9.33301 92.001 28s56.334 42.334 83.001 71.001l86 -71c-15.333 -36.667 -38.333 -69.834 -69 -99.501s-64.834 -52.834 -102.501 -69.501s-74.167 -25 -109.5 -25c-38.667 0 -70.834 7.16699 -96.501 21.5s-53.167 34.833 -82.5 61.5
c-22.667 20.667 -42.167 36 -58.5 46s-34.833 15 -55.5 15c-54.667 0 -113 -34 -175 -102l-85 68c15.333 36.667 38.333 70 69 100z" />
    <glyph glyph-name="Adieresis" unicode="&#xc4;" horiz-adv-x="1407" 
d="M1016 385h-623l-136 -385h-236l582 1538h215l568 -1538h-241zM960 551l-205 609l-43 142l-44 -142l-216 -609h508zM328.5 1878.5c15 23.667 34.834 42.332 59.501 55.999s50.334 20.5 77.001 20.5c45.333 0 79.666 -12.5 102.999 -37.5s35 -57.167 35 -96.5
c0 -30 -7.33301 -56.667 -22 -80s-34.334 -41.5 -59.001 -54.5s-51 -19.5 -79 -19.5c-38 0 -70.333 12.167 -97 36.5s-40 56.5 -40 96.5c0 28.667 7.5 54.834 22.5 78.501zM825.001 1878.5c15.333 23.667 35.335 42.332 60.002 55.999s50 20.5 76 20.5
c45.333 0 79.666 -12.5 102.999 -37.5s35 -57.167 35 -96.5c0 -30 -7.33301 -56.667 -22 -80s-34.334 -41.5 -59.001 -54.5s-51 -19.5 -79 -19.5c-38 0 -70.333 12.167 -97 36.5s-40 56.5 -40 96.5c0 28.667 7.66699 54.834 23 78.501z" />
    <glyph glyph-name="Aring" unicode="&#xc5;" horiz-adv-x="1407" 
d="M1016 385l-623 -0.000976562l-136 -385h-236l550 1453c-59.333 18 -105.833 48.833 -139.5 92.5s-50.5 96.167 -50.5 157.5s15.167 112 45.5 152s69.666 69.167 117.999 87.5s100.5 27.5 156.5 27.5c98.667 0 176.834 -22.667 234.501 -68s86.5 -109.666 86.5 -192.999
c0 -64 -15.667 -117 -47 -159s-74 -72.333 -128 -91l539 -1459h-241zM582 1814c-30 -21.333 -44.999 -56.668 -44.999 -106.001c0 -45.333 15 -81.166 45 -107.499s70.333 -39.5 121 -39.5c51.333 0 91.666 11.5 120.999 34.5s44 59.833 44 110.5
c0 45.333 -16.167 80 -48.5 104s-73.833 36 -124.5 36c-45.333 0 -83 -10.667 -113 -32zM960.001 550.997l-205 609l-43 142l-44 -142l-216 -609h508z" />
    <glyph glyph-name="AE" unicode="&#xc6;" horiz-adv-x="1860" 
d="M1786 175v-175h-949v385h-481l-183 -385h-246l725 1522h1061v-172h-653v-480h479v-172h-479v-523h726zM837 551v825h-10l-392 -825h402z" />
    <glyph glyph-name="Ccedilla" unicode="&#xc7;" horiz-adv-x="1313" 
d="M1188 64c-41.333 -16 -74.999 -28.499 -100.999 -37.499s-58.5 -17.5 -97.5 -25.5s-82.167 -13.333 -129.5 -16c20 -42 30 -97 30 -165c0 -10 -0.666992 -26.333 -2 -49c-6.66699 -79.333 -32.5 -138.333 -77.5 -177s-99.167 -58 -162.5 -58c-28 0 -56.667 2.66699 -86 8
s-49.666 12 -60.999 20l15 142c14.667 -9.33301 42 -14 82 -14c35.333 0 64.5 12.167 87.5 36.5s36.167 62.166 39.5 113.499c3.33301 21.333 5 44.333 5 69c0 26 -3 51.667 -9 77c-126.667 12 -237.167 51.333 -331.5 118s-167 155.5 -218 266.5s-76.5 237.833 -76.5 380.5
c0 162 32 302.333 96 421s149.667 209 257 271s224.333 93 351 93c85.333 0 156.333 -4.66699 213 -14s108.667 -21 156 -35l30 -8l-32 -198c-24.667 12.667 -48 23.5 -70 32.5s-57.333 18.167 -106 27.5s-107.334 14 -176.001 14c-102 0 -190.5 -24 -265.5 -72
s-132.5 -116.333 -172.5 -205s-60 -192.667 -60 -312c0 -118.667 20 -224 60 -316s97.5 -163.667 172.5 -215s163.167 -77 264.5 -77c50 0 100.667 4.33301 152 13s96.666 20.167 135.999 34.5s68 29.5 86 45.5z" />
    <glyph glyph-name="Egrave" unicode="&#xc8;" 
d="M590 1639c-53.333 32.667 -105.501 68.5 -156.501 107.5s-88.833 72.5 -113.5 100.5l146 133c2 -5.33301 50.333 -50.833 145 -136.5l198 -178.5l-92 -92c-31.333 11.333 -73.666 33.333 -126.999 66zM1070 1522v-172h-653v-480h479v-172h-479v-523h726v-175h-949v1522
h876z" />
    <glyph glyph-name="Eacute" unicode="&#xc9;" 
d="M750 1843.5c94.667 85.667 143 131.166 145 136.499l146 -133c-49.333 -50.667 -114 -104.167 -194 -160.5s-147.333 -94.166 -202 -113.499l-93 92zM1070 1522v-172h-653v-480h479v-172h-479v-523h726v-175h-949v1522h876z" />
    <glyph glyph-name="Ecircumflex" unicode="&#xca;" 
d="M1070 1522v-172h-653v-480h479v-172h-479v-523h726v-175h-949v1522h876zM581 1990h197l262 -298l-144 -60l-216 202l-221 -202l-137 57z" />
    <glyph glyph-name="Edieresis" unicode="&#xcb;" 
d="M306.5 1878.5c15 23.667 34.834 42.332 59.501 55.999s50.334 20.5 77.001 20.5c45.333 0 79.666 -12.5 102.999 -37.5s35 -57.167 35 -96.5c0 -30 -7.33301 -56.667 -22 -80s-34.334 -41.5 -59.001 -54.5s-51 -19.5 -79 -19.5c-38 0 -70.333 12.167 -97 36.5
s-40 56.5 -40 96.5c0 28.667 7.5 54.834 22.5 78.501zM803.001 1878.5c15.333 23.667 35.335 42.332 60.002 55.999s50 20.5 76 20.5c45.333 0 79.666 -12.5 102.999 -37.5s35 -57.167 35 -96.5c0 -30 -7.33301 -56.667 -22 -80s-34.334 -41.5 -59.001 -54.5
s-51 -19.5 -79 -19.5c-38 0 -70.333 12.167 -97 36.5s-40 56.5 -40 96.5c0 28.667 7.66699 54.834 23 78.501zM1070 1522v-172h-653v-480h479v-172h-479v-523h726v-175h-949v1522h876z" />
    <glyph glyph-name="Igrave" unicode="&#xcc;" horiz-adv-x="640" 
d="M433 1522v-1522h-226v1522h226zM231 1639c-53.333 32.667 -105.501 68.5 -156.501 107.5s-88.833 72.5 -113.5 100.5l146 133c2 -5.33301 50.333 -50.833 145 -136.5l198 -178.5l-92 -92c-31.333 11.333 -73.666 33.333 -126.999 66z" />
    <glyph glyph-name="Iacute" unicode="&#xcd;" horiz-adv-x="640" 
d="M433 1522v-1522h-226v1522h226zM391 1843.5c94.667 85.667 143 131.166 145 136.499l146 -133c-49.333 -50.667 -114 -104.167 -194 -160.5s-147.333 -94.166 -202 -113.499l-93 92z" />
    <glyph glyph-name="Icircumflex" unicode="&#xce;" horiz-adv-x="640" 
d="M433 1522v-1522h-226v1522h226zM222 1990h197l262 -298l-144 -60l-216 202l-221 -202l-137 57z" />
    <glyph glyph-name="Idieresis" unicode="&#xcf;" horiz-adv-x="640" 
d="M433 1522v-1522h-226v1522h226zM-52.5 1878.5c15 23.667 34.834 42.332 59.501 55.999s50.334 20.5 77.001 20.5c45.333 0 79.666 -12.5 102.999 -37.5s35 -57.167 35 -96.5c0 -30 -7.33301 -56.667 -22 -80s-34.334 -41.5 -59.001 -54.5s-51 -19.5 -79 -19.5
c-38 0 -70.333 12.167 -97 36.5s-40 56.5 -40 96.5c0 28.667 7.5 54.834 22.5 78.501zM444.001 1878.5c15.333 23.667 35.335 42.332 60.002 55.999s50 20.5 76 20.5c45.333 0 79.666 -12.5 102.999 -37.5s35 -57.167 35 -96.5c0 -30 -7.33301 -56.667 -22 -80
s-34.334 -41.5 -59.001 -54.5s-51 -19.5 -79 -19.5c-38 0 -70.333 12.167 -97 36.5s-40 56.5 -40 96.5c0 28.667 7.66699 54.834 23 78.501z" />
    <glyph glyph-name="Eth" unicode="&#xd0;" horiz-adv-x="1472" 
d="M1207.5 1348c120.333 -126.667 180.5 -308.001 180.5 -544.001c0 -169.333 -29.333 -315.5 -88 -438.5s-142.667 -217.333 -252 -283s-238.333 -98.5 -387 -98.5c-30.667 0 -89.334 2.66699 -176.001 8c-96 5.33301 -164.667 8 -206 8h-85v720h-128v149h128v653h112
c38 0 90.333 2.33301 157 7c9.33301 0.666992 35.833 2.33398 79.5 5.00098s84.834 4 123.501 4c240.667 0 421.167 -63.333 541.5 -190zM1027.5 305.499c85.667 101 128.5 256.167 128.5 465.5c0 148 -20 266.333 -60 355s-99.667 152.667 -179 192s-180.333 59 -303 59
c-78.667 0 -144 -5.33301 -196 -16v-492h394v-149h-394v-552c31.333 -7.33301 70.5 -12.5 117.5 -15.5s94.167 -4.16699 141.5 -3.5c148 3.33301 264.833 55.5 350.5 156.5z" />
    <glyph glyph-name="Ntilde" unicode="&#xd1;" horiz-adv-x="1556" 
d="M445 1871c30.667 30 65 53.334 103 70.001s74.667 25 110 25c38.667 0 70.667 -7 96 -21s53 -34 83 -60c23.333 -20 42.833 -34.667 58.5 -44s33.5 -14 53.5 -14c32.667 0 63.334 9.33301 92.001 28s56.334 42.334 83.001 71.001l86 -71
c-15.333 -36.667 -38.333 -69.834 -69 -99.501s-64.834 -52.834 -102.501 -69.501s-74.167 -25 -109.5 -25c-38.667 0 -70.834 7.16699 -96.501 21.5s-53.167 34.833 -82.5 61.5c-22.667 20.667 -42.167 36 -58.5 46s-34.833 15 -55.5 15c-54.667 0 -113 -34 -175 -102
l-85 68c15.333 36.667 38.333 70 69 100zM1363 1522v-1522h-207l-630 967l-140 249l12 -264v-952h-205v1522h204l651 -1005l124 -225l-14 253v977h205z" />
    <glyph glyph-name="Ograve" unicode="&#xd2;" horiz-adv-x="1569" 
d="M718 1639c-53.333 32.667 -105.501 68.5 -156.501 107.5s-88.833 72.5 -113.5 100.5l146 133c2 -5.33301 50.333 -50.833 145 -136.5l198 -178.5l-92 -92c-31.333 11.333 -73.666 33.333 -126.999 66zM193.499 1181c62.333 118.667 146.999 207.833 253.999 267.5
s227.167 89.5 360.5 89.5c131.333 0 246.833 -31 346.5 -93s177 -149.833 232 -263.5s82.5 -246.167 82.5 -397.5c0 -171.333 -30.333 -317 -91 -437s-144.167 -210.5 -250.5 -271.5s-228.166 -91.5 -365.499 -91.5c-132.667 0 -249 32.667 -349 98s-177.167 156 -231.5 272
s-81.5 247.667 -81.5 395c0 169.333 31.167 313.333 93.5 432zM1192 1071c-34 90.667 -84.165 162.833 -150.498 216.5s-146.5 80.5 -240.5 80.5c-88.667 0 -169 -22.5 -241 -67.5s-129.167 -113.167 -171.5 -204.5s-63.5 -204 -63.5 -338c0 -108 17.667 -207.833 53 -299.5
s87.666 -165.167 156.999 -220.5s152.666 -83 249.999 -83c92.667 0 173.5 23.667 242.5 71s122.167 117.166 159.5 209.499s56 204.5 56 336.5c0 108.667 -17 208.334 -51 299.001z" />
    <glyph glyph-name="Oacute" unicode="&#xd3;" horiz-adv-x="1569" 
d="M878 1843.5c94.667 85.667 143 131.166 145 136.499l146 -133c-49.333 -50.667 -114 -104.167 -194 -160.5s-147.333 -94.166 -202 -113.499l-93 92zM193.5 1181c62.333 118.667 146.999 207.833 253.999 267.5s227.167 89.5 360.5 89.5c131.333 0 246.833 -31 346.5 -93
s177 -149.833 232 -263.5s82.5 -246.167 82.5 -397.5c0 -171.333 -30.333 -317 -91 -437s-144.167 -210.5 -250.5 -271.5s-228.166 -91.5 -365.499 -91.5c-132.667 0 -249 32.667 -349 98s-177.167 156 -231.5 272s-81.5 247.667 -81.5 395
c0 169.333 31.167 313.333 93.5 432zM1192 1071c-34 90.667 -84.165 162.833 -150.498 216.5s-146.5 80.5 -240.5 80.5c-88.667 0 -169 -22.5 -241 -67.5s-129.167 -113.167 -171.5 -204.5s-63.5 -204 -63.5 -338c0 -108 17.667 -207.833 53 -299.5
s87.666 -165.167 156.999 -220.5s152.666 -83 249.999 -83c92.667 0 173.5 23.667 242.5 71s122.167 117.166 159.5 209.499s56 204.5 56 336.5c0 108.667 -17 208.334 -51 299.001z" />
    <glyph glyph-name="Ocircumflex" unicode="&#xd4;" horiz-adv-x="1569" 
d="M193.5 1181c62.333 118.667 146.999 207.833 253.999 267.5s227.167 89.5 360.5 89.5c131.333 0 246.833 -31 346.5 -93s177 -149.833 232 -263.5s82.5 -246.167 82.5 -397.5c0 -171.333 -30.333 -317 -91 -437s-144.167 -210.5 -250.5 -271.5
s-228.166 -91.5 -365.499 -91.5c-132.667 0 -249 32.667 -349 98s-177.167 156 -231.5 272s-81.5 247.667 -81.5 395c0 169.333 31.167 313.333 93.5 432zM1192 1071c-34 90.667 -84.165 162.833 -150.498 216.5s-146.5 80.5 -240.5 80.5c-88.667 0 -169 -22.5 -241 -67.5
s-129.167 -113.167 -171.5 -204.5s-63.5 -204 -63.5 -338c0 -108 17.667 -207.833 53 -299.5s87.666 -165.167 156.999 -220.5s152.666 -83 249.999 -83c92.667 0 173.5 23.667 242.5 71s122.167 117.166 159.5 209.499s56 204.5 56 336.5
c0 108.667 -17 208.334 -51 299.001zM709.001 1990h197l262 -298l-144 -60l-216 202l-221 -202l-137 57z" />
    <glyph glyph-name="Otilde" unicode="&#xd5;" horiz-adv-x="1569" 
d="M461 1871c30.667 30 65 53.334 103 70.001s74.667 25 110 25c38.667 0 70.667 -7 96 -21s53 -34 83 -60c23.333 -20 42.833 -34.667 58.5 -44s33.5 -14 53.5 -14c32.667 0 63.334 9.33301 92.001 28s56.334 42.334 83.001 71.001l86 -71
c-15.333 -36.667 -38.333 -69.834 -69 -99.501s-64.834 -52.834 -102.501 -69.501s-74.167 -25 -109.5 -25c-38.667 0 -70.834 7.16699 -96.501 21.5s-53.167 34.833 -82.5 61.5c-22.667 20.667 -42.167 36 -58.5 46s-34.833 15 -55.5 15c-54.667 0 -113 -34 -175 -102
l-85 68c15.333 36.667 38.333 70 69 100zM193.5 1181c62.333 118.667 146.999 207.833 253.999 267.5s227.167 89.5 360.5 89.5c131.333 0 246.833 -31 346.5 -93s177 -149.833 232 -263.5s82.5 -246.167 82.5 -397.5c0 -171.333 -30.333 -317 -91 -437
s-144.167 -210.5 -250.5 -271.5s-228.166 -91.5 -365.499 -91.5c-132.667 0 -249 32.667 -349 98s-177.167 156 -231.5 272s-81.5 247.667 -81.5 395c0 169.333 31.167 313.333 93.5 432zM1192 1071c-34 90.667 -84.165 162.833 -150.498 216.5s-146.5 80.5 -240.5 80.5
c-88.667 0 -169 -22.5 -241 -67.5s-129.167 -113.167 -171.5 -204.5s-63.5 -204 -63.5 -338c0 -108 17.667 -207.833 53 -299.5s87.666 -165.167 156.999 -220.5s152.666 -83 249.999 -83c92.667 0 173.5 23.667 242.5 71s122.167 117.166 159.5 209.499s56 204.5 56 336.5
c0 108.667 -17 208.334 -51 299.001z" />
    <glyph glyph-name="Odieresis" unicode="&#xd6;" horiz-adv-x="1569" 
d="M434.5 1878.5c15 23.667 34.834 42.332 59.501 55.999s50.334 20.5 77.001 20.5c45.333 0 79.666 -12.5 102.999 -37.5s35 -57.167 35 -96.5c0 -30 -7.33301 -56.667 -22 -80s-34.334 -41.5 -59.001 -54.5s-51 -19.5 -79 -19.5c-38 0 -70.333 12.167 -97 36.5
s-40 56.5 -40 96.5c0 28.667 7.5 54.834 22.5 78.501zM931.001 1878.5c15.333 23.667 35.335 42.332 60.002 55.999s50 20.5 76 20.5c45.333 0 79.666 -12.5 102.999 -37.5s35 -57.167 35 -96.5c0 -30 -7.33301 -56.667 -22 -80s-34.334 -41.5 -59.001 -54.5
s-51 -19.5 -79 -19.5c-38 0 -70.333 12.167 -97 36.5s-40 56.5 -40 96.5c0 28.667 7.66699 54.834 23 78.501zM193.503 1181c62.333 118.667 146.999 207.833 253.999 267.5s227.167 89.5 360.5 89.5c131.333 0 246.833 -31 346.5 -93s177 -149.833 232 -263.5
s82.5 -246.167 82.5 -397.5c0 -171.333 -30.333 -317 -91 -437s-144.167 -210.5 -250.5 -271.5s-228.166 -91.5 -365.499 -91.5c-132.667 0 -249 32.667 -349 98s-177.167 156 -231.5 272s-81.5 247.667 -81.5 395c0 169.333 31.167 313.333 93.5 432zM1192 1071
c-34 90.667 -84.165 162.833 -150.498 216.5s-146.5 80.5 -240.5 80.5c-88.667 0 -169 -22.5 -241 -67.5s-129.167 -113.167 -171.5 -204.5s-63.5 -204 -63.5 -338c0 -108 17.667 -207.833 53 -299.5s87.666 -165.167 156.999 -220.5s152.666 -83 249.999 -83
c92.667 0 173.5 23.667 242.5 71s122.167 117.166 159.5 209.499s56 204.5 56 336.5c0 108.667 -17 208.334 -51 299.001z" />
    <glyph glyph-name="multiply" unicode="&#xd7;" horiz-adv-x="1370" 
d="M234 1119l130 128l322 -354l322 354l130 -128l-338 -342l338 -338l-130 -128l-322 343l-322 -343l-130 128l338 335z" />
    <glyph glyph-name="Oslash" unicode="&#xd8;" horiz-adv-x="1569" 
d="M1300.5 1317.5c54.333 -65.667 96.001 -143.666 125.001 -233.999s43.5 -189.5 43.5 -297.5c0 -172.667 -30.5 -319.167 -91.5 -439.5s-145 -210.833 -252 -271.5s-229.167 -91 -366.5 -91c-60.667 0 -120.334 8 -179.001 24l-75 -208l-125 36l79 219
c-74.667 39.333 -139 93.166 -193 161.499s-95.167 148 -123.5 239s-42.5 189.5 -42.5 295.5c0 168.667 31.167 312.167 93.5 430.5s147 207.333 254 267s227.167 89.5 360.5 89.5c63.333 0 122.333 -7 177 -21l80 221l125 -36l-83 -230
c74.667 -37.333 139.167 -88.833 193.5 -154.5zM377.001 460.501c34.667 -91 84.666 -163.167 149.999 -216.5l398 1105c-37.333 12.667 -78.666 19 -123.999 19c-88.667 0 -169 -22.5 -241 -67.5s-129.167 -113.167 -171.5 -204.5s-63.5 -204 -63.5 -338
c0 -107.333 17.333 -206.5 52 -297.5zM1027.5 226.001c69 47.333 122.167 117.168 159.5 209.501s56 204.5 56 336.5c0 110 -17.333 210.667 -52 302s-84.667 162.666 -150 213.999l-399 -1109c43.333 -16 91 -24 143 -24c92.667 0 173.5 23.667 242.5 71z" />
    <glyph glyph-name="Ugrave" unicode="&#xd9;" horiz-adv-x="1463" 
d="M655 1639c-53.333 32.667 -105.501 68.5 -156.501 107.5s-88.833 72.5 -113.5 100.5l146 133c2 -5.33301 50.333 -50.833 145 -136.5l198 -178.5l-92 -92c-31.333 11.333 -73.666 33.333 -126.999 66zM158.999 1522l223 0.000976562l-1 -836
c0 -136.667 14 -243.5 42 -320.5s68.5 -130.833 121.5 -161.5s120.833 -46 203.5 -46c73.333 0 134.333 15.5 183 46.5s86.167 85.167 112.5 162.5s39.5 183.666 39.5 318.999v836h222v-892c0 -210 -47 -370.167 -141 -480.5s-235 -165.5 -423 -165.5
c-203.333 0 -351.333 55 -444 165s-138.667 271.333 -138 484v889z" />
    <glyph glyph-name="Uacute" unicode="&#xda;" horiz-adv-x="1463" 
d="M815 1843.5c94.667 85.667 143 131.166 145 136.499l146 -133c-49.333 -50.667 -114 -104.167 -194 -160.5s-147.333 -94.166 -202 -113.499l-93 92zM159 1522l223 0.000976562l-1 -836c0 -136.667 14 -243.5 42 -320.5s68.5 -130.833 121.5 -161.5
s120.833 -46 203.5 -46c73.333 0 134.333 15.5 183 46.5s86.167 85.167 112.5 162.5s39.5 183.666 39.5 318.999v836h222v-892c0 -210 -47 -370.167 -141 -480.5s-235 -165.5 -423 -165.5c-203.333 0 -351.333 55 -444 165s-138.667 271.333 -138 484v889z" />
    <glyph glyph-name="Ucircumflex" unicode="&#xdb;" horiz-adv-x="1463" 
d="M159 1522l223 0.000976562l-1 -836c0 -136.667 14 -243.5 42 -320.5s68.5 -130.833 121.5 -161.5s120.833 -46 203.5 -46c73.333 0 134.333 15.5 183 46.5s86.167 85.167 112.5 162.5s39.5 183.666 39.5 318.999v836h222v-892c0 -210 -47 -370.167 -141 -480.5
s-235 -165.5 -423 -165.5c-203.333 0 -351.333 55 -444 165s-138.667 271.333 -138 484v889zM646 1990h197l262 -298l-144 -60l-216 202l-221 -202l-137 57z" />
    <glyph glyph-name="Udieresis" unicode="&#xdc;" horiz-adv-x="1463" 
d="M371.5 1878.5c15 23.667 34.834 42.332 59.501 55.999s50.334 20.5 77.001 20.5c45.333 0 79.666 -12.5 102.999 -37.5s35 -57.167 35 -96.5c0 -30 -7.33301 -56.667 -22 -80s-34.334 -41.5 -59.001 -54.5s-51 -19.5 -79 -19.5c-38 0 -70.333 12.167 -97 36.5
s-40 56.5 -40 96.5c0 28.667 7.5 54.834 22.5 78.501zM868.001 1878.5c15.333 23.667 35.335 42.332 60.002 55.999s50 20.5 76 20.5c45.333 0 79.666 -12.5 102.999 -37.5s35 -57.167 35 -96.5c0 -30 -7.33301 -56.667 -22 -80s-34.334 -41.5 -59.001 -54.5
s-51 -19.5 -79 -19.5c-38 0 -70.333 12.167 -97 36.5s-40 56.5 -40 96.5c0 28.667 7.66699 54.834 23 78.501zM159.003 1522l223 0.000976562l-1 -836c0 -136.667 14 -243.5 42 -320.5s68.5 -130.833 121.5 -161.5s120.833 -46 203.5 -46c73.333 0 134.333 15.5 183 46.5
s86.167 85.167 112.5 162.5s39.5 183.666 39.5 318.999v836h222v-892c0 -210 -47 -370.167 -141 -480.5s-235 -165.5 -423 -165.5c-203.333 0 -351.333 55 -444 165s-138.667 271.333 -138 484v889z" />
    <glyph glyph-name="Yacute" unicode="&#xdd;" horiz-adv-x="1264" 
d="M749 594v-594h-226v594l-501 928h238l338 -660l43 -105l36 105l331 660h234zM720 1843.5c94.667 85.667 143 131.166 145 136.499l146 -133c-49.333 -50.667 -114 -104.167 -194 -160.5s-147.333 -94.166 -202 -113.499l-93 92z" />
    <glyph glyph-name="Thorn" unicode="&#xde;" horiz-adv-x="1262" 
d="M1182 793c0 -107.333 -22.168 -198.834 -66.501 -274.501s-109.833 -133.5 -196.5 -173.5s-192.667 -60 -318 -60c-40 0 -91.667 1.66699 -155 5c-13.333 1.33301 -23 2 -29 2v-292h-223v1522h223v-275l36 3c6.66699 0.666992 30.834 2.33398 72.501 5.00098
s83.167 4 124.5 4c354.667 0 532 -155.333 532 -466zM775.999 473.999c55.333 18 99.833 52.167 133.5 102.5s50.5 121.5 50.5 213.5c0 106 -29.167 184 -87.5 234s-147.5 75 -267.5 75c-77.333 0 -140 -5.66699 -188 -17v-626c45.333 -6 99.333 -9 162 -9
c76 0 141.667 9 197 27z" />
    <glyph glyph-name="germandbls" unicode="&#xdf;" horiz-adv-x="1268" 
d="M892.5 799c13 -23.333 29.335 -44.3311 49.002 -62.998s46.5 -41.334 80.5 -68.001c45.333 -36 82.166 -68.333 110.499 -97s52.666 -64.5 72.999 -107.5s30.5 -93.167 30.5 -150.5c0 -76.667 -18.667 -139.667 -56 -189s-86 -85 -146 -107s-125 -33 -195 -33
c-48 0 -93.333 3.16699 -136 9.5s-74.334 14.166 -95.001 23.499v173c24 -14 56.167 -26.167 96.5 -36.5s87.833 -15.5 142.5 -15.5c46.667 0 86 12 118 36s48 62.333 48 115c0 31.333 -6.66699 59.666 -20 84.999s-29.666 47.833 -48.999 67.5s-46 44.167 -80 73.5
c-41.333 34.667 -75 65.834 -101 93.501s-48 61.667 -66 102s-27 87.166 -27 140.499c0 30 4.83301 57.5 14.5 82.5s21.5 47.167 35.5 66.5s33 43 57 71c22.667 26.667 40.834 49.167 54.501 67.5s25 39 34 62s13.5 47.833 13.5 74.5c0 49.333 -16.833 86.333 -50.5 111
s-82.5 37 -146.5 37c-90.667 0 -161.334 -36 -212.001 -108s-76 -194.333 -76 -367v-948h-220v966v8h-138v129l154 40c18.667 98 53 179.667 103 245s111.333 113.5 184 144.5s153.334 46.5 242.001 46.5c70.667 0 134.667 -10.667 192 -32s102.666 -52.833 135.999 -94.5
s50 -91.5 50 -149.5c0 -38.667 -6.16699 -73.667 -18.5 -105s-27.333 -58.666 -45 -81.999s-40.5 -50 -68.5 -80c-31.333 -33.333 -54.5 -61.5 -69.5 -84.5s-22.5 -47.833 -22.5 -74.5c0 -28.667 6.5 -54.667 19.5 -78z" />
    <glyph glyph-name="agrave" unicode="&#xe0;" horiz-adv-x="1131" 
d="M784 1127c58.667 -20 104.33 -56.501 136.997 -109.501s49 -127.5 49 -223.5v-810h-90c-30 0 -52.667 2 -68 6s-27.333 13.333 -36 28s-13 38 -13 70v8c-33.333 -30.667 -79.166 -57 -137.499 -79s-119.166 -33 -182.499 -33c-67.333 0 -127.5 13 -180.5 39
s-94.333 63.167 -124 111.5s-44.5 105.166 -44.5 170.499c0 72 19.5 134.333 58.5 187s93.5 93.334 163.5 122.001c62 24.667 132.167 43.167 210.5 55.5s152.833 18.5 223.5 18.5v115c0 53.333 -8.5 93.333 -25.5 120s-42.5 44.667 -76.5 54s-81 14 -141 14
c-32 0 -68.833 -4.33301 -110.5 -13s-80.667 -19.5 -117 -32.5s-63.166 -25.5 -80.499 -37.5l-54 144c17.333 10.667 48.833 24.334 94.5 41.001s97.667 31.5 156 44.5s114.5 19.5 168.5 19.5c88 0 161.333 -10 220 -30zM606.996 161.999
c34.667 9.33301 65.167 20.5 91.5 33.5s43.5 24.167 51.5 33.5v319c-48.667 0 -103.5 -4.66699 -164.5 -14s-110.167 -23 -147.5 -41c-40.667 -19.333 -72 -42 -94 -68s-33 -59.667 -33 -101c0 -117.333 65.667 -176 197 -176c31.333 0 64.333 4.66699 99 14z
M445.996 1378.5c-53.333 44.333 -105.5 92.167 -156.5 143.5s-87.167 93.333 -108.5 126l157 135c64.667 -83.333 166.667 -204 306 -362l32 -37l-111 -90c-26 12 -65.667 40.167 -119 84.5z" />
    <glyph glyph-name="aacute" unicode="&#xe1;" horiz-adv-x="1131" 
d="M784 1127c58.667 -20 104.33 -56.501 136.997 -109.501s49 -127.5 49 -223.5v-810h-90c-30 0 -52.667 2 -68 6s-27.333 13.333 -36 28s-13 38 -13 70v8c-33.333 -30.667 -79.166 -57 -137.499 -79s-119.166 -33 -182.499 -33c-67.333 0 -127.5 13 -180.5 39
s-94.333 63.167 -124 111.5s-44.5 105.166 -44.5 170.499c0 72 19.5 134.333 58.5 187s93.5 93.334 163.5 122.001c62 24.667 132.167 43.167 210.5 55.5s152.833 18.5 223.5 18.5v115c0 53.333 -8.5 93.333 -25.5 120s-42.5 44.667 -76.5 54s-81 14 -141 14
c-32 0 -68.833 -4.33301 -110.5 -13s-80.667 -19.5 -117 -32.5s-63.166 -25.5 -80.499 -37.5l-54 144c17.333 10.667 48.833 24.334 94.5 41.001s97.667 31.5 156 44.5s114.5 19.5 168.5 19.5c88 0 161.333 -10 220 -30zM606.996 161.999
c34.667 9.33301 65.167 20.5 91.5 33.5s43.5 24.167 51.5 33.5v319c-48.667 0 -103.5 -4.66699 -164.5 -14s-110.167 -23 -147.5 -41c-40.667 -19.333 -72 -42 -94 -68s-33 -59.667 -33 -101c0 -117.333 65.667 -176 197 -176c31.333 0 64.333 4.66699 99 14zM456.996 1407
l187.498 210.503c45.667 53 88.834 108.167 129.501 165.5l156 -135c-16 -26.667 -50.333 -66.834 -103 -120.501s-106.667 -103.834 -162 -150.501s-94.666 -74.334 -117.999 -83.001l-111 90z" />
    <glyph glyph-name="acircumflex" unicode="&#xe2;" horiz-adv-x="1131" 
d="M784 1127c58.667 -20 104.33 -56.501 136.997 -109.501s49 -127.5 49 -223.5v-810h-90c-30 0 -52.667 2 -68 6s-27.333 13.333 -36 28s-13 38 -13 70v8c-33.333 -30.667 -79.166 -57 -137.499 -79s-119.166 -33 -182.499 -33c-67.333 0 -127.5 13 -180.5 39
s-94.333 63.167 -124 111.5s-44.5 105.166 -44.5 170.499c0 72 19.5 134.333 58.5 187s93.5 93.334 163.5 122.001c62 24.667 132.167 43.167 210.5 55.5s152.833 18.5 223.5 18.5v115c0 53.333 -8.5 93.333 -25.5 120s-42.5 44.667 -76.5 54s-81 14 -141 14
c-32 0 -68.833 -4.33301 -110.5 -13s-80.667 -19.5 -117 -32.5s-63.166 -25.5 -80.499 -37.5l-54 144c17.333 10.667 48.833 24.334 94.5 41.001s97.667 31.5 156 44.5s114.5 19.5 168.5 19.5c88 0 161.333 -10 220 -30zM606.996 161.999
c34.667 9.33301 65.167 20.5 91.5 33.5s43.5 24.167 51.5 33.5v319c-48.667 0 -103.5 -4.66699 -164.5 -14s-110.167 -23 -147.5 -41c-40.667 -19.333 -72 -42 -94 -68s-33 -59.667 -33 -101c0 -117.333 65.667 -176 197 -176c31.333 0 64.333 4.66699 99 14zM467.996 1682
h198l268 -332l-135 -56l-232 222l-249 -223l-126 56z" />
    <glyph glyph-name="atilde" unicode="&#xe3;" horiz-adv-x="1131" 
d="M784 1127c58.667 -20 104.33 -56.501 136.997 -109.501s49 -127.5 49 -223.5v-810h-90c-30 0 -52.667 2 -68 6s-27.333 13.333 -36 28s-13 38 -13 70v8c-33.333 -30.667 -79.166 -57 -137.499 -79s-119.166 -33 -182.499 -33c-67.333 0 -127.5 13 -180.5 39
s-94.333 63.167 -124 111.5s-44.5 105.166 -44.5 170.499c0 72 19.5 134.333 58.5 187s93.5 93.334 163.5 122.001c62 24.667 132.167 43.167 210.5 55.5s152.833 18.5 223.5 18.5v115c0 53.333 -8.5 93.333 -25.5 120s-42.5 44.667 -76.5 54s-81 14 -141 14
c-32 0 -68.833 -4.33301 -110.5 -13s-80.667 -19.5 -117 -32.5s-63.166 -25.5 -80.499 -37.5l-54 144c17.333 10.667 48.833 24.334 94.5 41.001s97.667 31.5 156 44.5s114.5 19.5 168.5 19.5c88 0 161.333 -10 220 -30zM606.996 161.999
c34.667 9.33301 65.167 20.5 91.5 33.5s43.5 24.167 51.5 33.5v319c-48.667 0 -103.5 -4.66699 -164.5 -14s-110.167 -23 -147.5 -41c-40.667 -19.333 -72 -42 -94 -68s-33 -59.667 -33 -101c0 -117.333 65.667 -176 197 -176c31.333 0 64.333 4.66699 99 14z
M210.996 1549.5c27.333 29.667 58.8311 53.498 94.498 71.498s72.834 27 111.501 27c39.333 0 72.166 -6.83301 98.499 -20.5s54.5 -33.5 84.5 -59.5c22.667 -19.333 41.834 -33.666 57.501 -42.999s33.834 -14 54.501 -14c40 0 73.5 8.66699 100.5 26s54.5 41.333 82.5 72
l86 -72c-27.333 -56.667 -64.666 -103 -111.999 -139s-100 -54 -158 -54c-42.667 0 -77.167 7.16699 -103.5 21.5s-54.166 34.5 -83.499 60.5c-22 19.333 -40.5 33.5 -55.5 42.5s-32.833 13.5 -53.5 13.5c-36 0 -68.833 -9.16699 -98.5 -27.5s-57.834 -41.5 -84.501 -69.5
l-85 68c15.333 34.667 36.666 66.834 63.999 96.501z" />
    <glyph glyph-name="adieresis" unicode="&#xe4;" horiz-adv-x="1131" 
d="M784 1127c58.667 -20 104.33 -56.501 136.997 -109.501s49 -127.5 49 -223.5v-810h-90c-30 0 -52.667 2 -68 6s-27.333 13.333 -36 28s-13 38 -13 70v8c-33.333 -30.667 -79.166 -57 -137.499 -79s-119.166 -33 -182.499 -33c-67.333 0 -127.5 13 -180.5 39
s-94.333 63.167 -124 111.5s-44.5 105.166 -44.5 170.499c0 72 19.5 134.333 58.5 187s93.5 93.334 163.5 122.001c62 24.667 132.167 43.167 210.5 55.5s152.833 18.5 223.5 18.5v115c0 53.333 -8.5 93.333 -25.5 120s-42.5 44.667 -76.5 54s-81 14 -141 14
c-32 0 -68.833 -4.33301 -110.5 -13s-80.667 -19.5 -117 -32.5s-63.166 -25.5 -80.499 -37.5l-54 144c17.333 10.667 48.833 24.334 94.5 41.001s97.667 31.5 156 44.5s114.5 19.5 168.5 19.5c88 0 161.333 -10 220 -30zM606.996 161.999
c34.667 9.33301 65.167 20.5 91.5 33.5s43.5 24.167 51.5 33.5v319c-48.667 0 -103.5 -4.66699 -164.5 -14s-110.167 -23 -147.5 -41c-40.667 -19.333 -72 -42 -94 -68s-33 -59.667 -33 -101c0 -117.333 65.667 -176 197 -176c31.333 0 64.333 4.66699 99 14z
M217.496 1567.5c15 23 34.501 41.1689 58.501 54.502s48.667 20 74 20c43.333 0 75.833 -12 97.5 -36s32.5 -55.333 32.5 -94c0 -28.667 -7.16699 -54.334 -21.5 -77.001s-33.333 -40.334 -57 -53.001s-48.834 -19 -75.501 -19c-37.333 0 -68.5 11.833 -93.5 35.5
s-37.5 55.167 -37.5 94.5c0 26.667 7.5 51.5 22.5 74.5zM675.497 1567.5c15 23 34.501 41.1689 58.501 54.502s48.667 20 74 20c42.667 0 75 -12.167 97 -36.5s33 -55.5 33 -93.5c0 -28.667 -7.16699 -54.334 -21.5 -77.001s-33.333 -40.334 -57 -53.001
s-48.834 -19 -75.501 -19c-37.333 0 -68.5 11.833 -93.5 35.5s-37.5 55.167 -37.5 94.5c0 26.667 7.5 51.5 22.5 74.5z" />
    <glyph glyph-name="aring" unicode="&#xe5;" horiz-adv-x="1131" 
d="M784 1127c58.667 -20 104.33 -56.501 136.997 -109.501s49 -127.5 49 -223.5v-810h-90c-30 0 -52.667 2 -68 6s-27.333 13.333 -36 28s-13 38 -13 70v8c-33.333 -30.667 -79.166 -57 -137.499 -79s-119.166 -33 -182.499 -33c-67.333 0 -127.5 13 -180.5 39
s-94.333 63.167 -124 111.5s-44.5 105.166 -44.5 170.499c0 72 19.5 134.333 58.5 187s93.5 93.334 163.5 122.001c62 24.667 132.167 43.167 210.5 55.5s152.833 18.5 223.5 18.5v115c0 53.333 -8.5 93.333 -25.5 120s-42.5 44.667 -76.5 54s-81 14 -141 14
c-32 0 -68.833 -4.33301 -110.5 -13s-80.667 -19.5 -117 -32.5s-63.166 -25.5 -80.499 -37.5l-54 144c17.333 10.667 48.833 24.334 94.5 41.001s97.667 31.5 156 44.5s114.5 19.5 168.5 19.5c88 0 161.333 -10 220 -30zM606.996 161.999
c34.667 9.33301 65.167 20.5 91.5 33.5s43.5 24.167 51.5 33.5v319c-48.667 0 -103.5 -4.66699 -164.5 -14s-110.167 -23 -147.5 -41c-40.667 -19.333 -72 -42 -94 -68s-33 -59.667 -33 -101c0 -117.333 65.667 -176 197 -176c31.333 0 64.333 4.66699 99 14zM291.496 1755
c30.333 40.667 69.666 70.501 117.999 89.501s100.5 28.5 156.5 28.5c98.667 0 176.834 -23.167 234.501 -69.5s86.5 -111.5 86.5 -195.5c0 -61.333 -14.5 -113 -43.5 -155s-68 -73.333 -117 -94s-103.5 -31 -163.5 -31c-62.667 0 -118 11.167 -166 33.5
s-85.167 54.166 -111.5 95.499s-39.5 89.333 -39.5 144c0 62 15.167 113.333 45.5 154zM684.496 1711c-32.333 25.333 -73.499 38 -123.499 38c-44.667 0 -82.334 -11.333 -113.001 -34s-46 -58.667 -46 -108c0 -45.333 15 -82.166 45 -110.499s70 -42.5 120 -42.5
c51.333 0 91.833 12.333 121.5 37s44.5 62.667 44.5 114c0 45.333 -16.167 80.666 -48.5 105.999z" />
    <glyph glyph-name="ae" unicode="&#xe6;" horiz-adv-x="1780" 
d="M1681 600.5c-1.33301 -29.667 -4.33984 -55.834 -9.00684 -78.501h-702c0.666992 -4.66699 1 -11.334 1 -20.001c6 -129.333 39.333 -220.166 100 -272.499s142.334 -78.5 245.001 -78.5c40.667 0 92.334 6.33301 155.001 19s107.334 26.667 134.001 42l42 -126
c-36.667 -29.333 -92.667 -53.666 -168 -72.999s-148.666 -29 -219.999 -29c-178 0 -310.333 59.333 -397 178c-51.333 -60 -112.166 -104.667 -182.499 -134s-147.166 -44 -230.499 -44c-67.333 0 -128 13 -182 39s-96.333 63.167 -127 111.5s-46 105.166 -46 170.499
c0 71.333 20 133.333 60 186s94 93.667 162 123c117.333 49.333 262.333 74 435 74v115c0 53.333 -8 93.333 -24 120s-39.5 44.667 -70.5 54s-74.167 14 -129.5 14c-48 0 -106 -9.5 -174 -28.5s-117.667 -38.167 -149 -57.5l-54 147c18 10.667 51 24.334 99 41.001
s102 31.5 162 44.5s116.667 19.5 170 19.5c84.667 0 153.667 -10.5 207 -31.5s93.333 -58.167 120 -111.5c44 45.333 96.667 80.333 158 105s130.333 37 207 37c75.333 0 143.5 -16.5 204.5 -49.5s109.833 -81.833 146.5 -146.5s56.334 -142.667 59.001 -234
c0 -54 -0.666992 -95.833 -2 -125.5zM1478.99 715c0 84.667 -17.168 153.333 -51.501 206s-93.166 79 -176.499 79c-74 0 -135.333 -26.167 -184 -78.5s-79 -136.833 -91 -253.5h501c1.33301 21.333 2 37 2 47zM672.992 185.499c58 25 100.334 56.167 127.001 93.5
c-28.667 78 -44 168.333 -46 271l-1 -2c-59.333 0 -117 -4.5 -173 -13.5s-103.333 -22.833 -142 -41.5c-40 -19.333 -70.5 -42 -91.5 -68s-31.5 -59.667 -31.5 -101c0 -58.667 15.167 -102.667 45.5 -132s78.166 -44 143.499 -44c54.667 0 111 12.5 169 37.5z" />
    <glyph glyph-name="ccedilla" unicode="&#xe7;" horiz-adv-x="1002" 
d="M821.5 20.5c-53.667 -19 -111.836 -30.5 -174.503 -34.5c20 -43.333 30 -98.666 30 -165.999c0 -10 -0.666992 -26.333 -2 -49c-6.66699 -79.333 -32.5 -138.333 -77.5 -177s-99.167 -58 -162.5 -58c-28 0 -56.667 2.66699 -86 8s-49.666 12 -60.999 20l15 142
c14.667 -9.33301 42 -14 82 -14c35.333 0 64.5 12.167 87.5 36.5s36.167 62.166 39.5 113.499c3.33301 28.667 5 52 5 70c0 29.333 -3.33301 55.666 -10 78.999c-86 14 -159.833 47 -221.5 99s-108.5 118.333 -140.5 199s-48 170.334 -48 269.001
c0 114 20.833 216.167 62.5 306.5s103.834 161.5 186.501 213.5s183.334 78 302.001 78c64.667 0 122 -6.16699 172 -18.5s86 -25.833 108 -40.5l-35 -174c-30.667 21.333 -66.667 37.166 -108 47.499s-90.666 15.5 -147.999 15.5s-110.833 -14.667 -160.5 -44
s-89.834 -75.166 -120.501 -137.499s-46 -140.833 -46 -235.5c0 -88 14 -163.5 42 -226.5s66.333 -110.833 115 -143.5s103.334 -49 164.001 -49c52.667 0 104 6.83301 154 20.5s89.333 29.167 118 46.5l45 -125c-30.667 -28.667 -72.834 -52.5 -126.501 -71.5z" />
    <glyph glyph-name="egrave" unicode="&#xe8;" horiz-adv-x="1123" 
d="M1024 600.5c-1.33301 -29.667 -4.33594 -55.8301 -9.00293 -78.4971h-703c0.666992 -4.66699 1 -11.334 1 -20.001c11.333 -234.667 127.333 -352 348 -352c40 0 90.667 6.33301 152 19s105.333 27 132 43l42 -126c-36.667 -30 -92.334 -54.5 -167.001 -73.5
s-147.334 -28.5 -218.001 -28.5c-107.333 0 -198.666 23.167 -273.999 69.5s-132.666 113.5 -171.999 201.5s-59 193.667 -59 317c0 112 19.5 211.667 58.5 299s96.667 156.166 173 206.499s168.833 76.5 277.5 78.5c76.667 1.33301 146.334 -14.334 209.001 -47.001
s112.834 -81.667 150.501 -147s57.834 -144 60.501 -236c0 -54 -0.666992 -95.833 -2 -125.5zM821.997 715.004c0 84.667 -17.168 153.333 -51.501 206s-93.166 79 -176.499 79c-74 0 -135.5 -26.167 -184.5 -78.5s-79.5 -136.833 -91.5 -253.5h502
c1.33301 21.333 2 37 2 47zM476.996 1378.5c-53.333 44.333 -105.5 92.167 -156.5 143.5s-87.167 93.333 -108.5 126l157 135c64.667 -83.333 166.667 -204 306 -362l32 -37l-111 -90c-26 12 -65.667 40.167 -119 84.5z" />
    <glyph glyph-name="eacute" unicode="&#xe9;" horiz-adv-x="1123" 
d="M488 1407l187.498 210.503c45.667 53 88.834 108.167 129.501 165.5l156 -135c-16 -26.667 -50.333 -66.834 -103 -120.501s-106.667 -103.834 -162 -150.501s-94.666 -74.334 -117.999 -83.001l-111 90zM1024 600.503
c-1.33301 -29.667 -4.33594 -55.8301 -9.00293 -78.4971h-703c0.666992 -4.66699 1 -11.334 1 -20.001c11.333 -234.667 127.333 -352 348 -352c40 0 90.667 6.33301 152 19s105.333 27 132 43l42 -126c-36.667 -30 -92.334 -54.5 -167.001 -73.5
s-147.334 -28.5 -218.001 -28.5c-107.333 0 -198.666 23.167 -273.999 69.5s-132.666 113.5 -171.999 201.5s-59 193.667 -59 317c0 112 19.5 211.667 58.5 299s96.667 156.166 173 206.499s168.833 76.5 277.5 78.5c76.667 1.33301 146.334 -14.334 209.001 -47.001
s112.834 -81.667 150.501 -147s57.834 -144 60.501 -236c0 -54 -0.666992 -95.833 -2 -125.5zM821.995 715.007c0 84.667 -17.168 153.333 -51.501 206s-93.166 79 -176.499 79c-74 0 -135.5 -26.167 -184.5 -78.5s-79.5 -136.833 -91.5 -253.5h502
c1.33301 21.333 2 37 2 47z" />
    <glyph glyph-name="ecircumflex" unicode="&#xea;" horiz-adv-x="1123" 
d="M499 1682h198l268 -332l-135 -56l-232 222l-249 -223l-126 56zM1024 600.5c-1.33301 -29.667 -4.33594 -55.8301 -9.00293 -78.4971h-703c0.666992 -4.66699 1 -11.334 1 -20.001c11.333 -234.667 127.333 -352 348 -352c40 0 90.667 6.33301 152 19s105.333 27 132 43
l42 -126c-36.667 -30 -92.334 -54.5 -167.001 -73.5s-147.334 -28.5 -218.001 -28.5c-107.333 0 -198.666 23.167 -273.999 69.5s-132.666 113.5 -171.999 201.5s-59 193.667 -59 317c0 112 19.5 211.667 58.5 299s96.667 156.166 173 206.499s168.833 76.5 277.5 78.5
c76.667 1.33301 146.334 -14.334 209.001 -47.001s112.834 -81.667 150.501 -147s57.834 -144 60.501 -236c0 -54 -0.666992 -95.833 -2 -125.5zM821.997 715.004c0 84.667 -17.168 153.333 -51.501 206s-93.166 79 -176.499 79c-74 0 -135.5 -26.167 -184.5 -78.5
s-79.5 -136.833 -91.5 -253.5h502c1.33301 21.333 2 37 2 47z" />
    <glyph glyph-name="edieresis" unicode="&#xeb;" horiz-adv-x="1123" 
d="M248.5 1567.5c15 23 34.501 41.1689 58.501 54.502s48.667 20 74 20c43.333 0 75.833 -12 97.5 -36s32.5 -55.333 32.5 -94c0 -28.667 -7.16699 -54.334 -21.5 -77.001s-33.333 -40.334 -57 -53.001s-48.834 -19 -75.501 -19c-37.333 0 -68.5 11.833 -93.5 35.5
s-37.5 55.167 -37.5 94.5c0 26.667 7.5 51.5 22.5 74.5zM706.501 1567.5c15 23 34.501 41.1689 58.501 54.502s48.667 20 74 20c42.667 0 75 -12.167 97 -36.5s33 -55.5 33 -93.5c0 -28.667 -7.16699 -54.334 -21.5 -77.001s-33.333 -40.334 -57 -53.001
s-48.834 -19 -75.501 -19c-37.333 0 -68.5 11.833 -93.5 35.5s-37.5 55.167 -37.5 94.5c0 26.667 7.5 51.5 22.5 74.5zM1024 600.504c-1.33301 -29.667 -4.33594 -55.8301 -9.00293 -78.4971h-703c0.666992 -4.66699 1 -11.334 1 -20.001
c11.333 -234.667 127.333 -352 348 -352c40 0 90.667 6.33301 152 19s105.333 27 132 43l42 -126c-36.667 -30 -92.334 -54.5 -167.001 -73.5s-147.334 -28.5 -218.001 -28.5c-107.333 0 -198.666 23.167 -273.999 69.5s-132.666 113.5 -171.999 201.5s-59 193.667 -59 317
c0 112 19.5 211.667 58.5 299s96.667 156.166 173 206.499s168.833 76.5 277.5 78.5c76.667 1.33301 146.334 -14.334 209.001 -47.001s112.834 -81.667 150.501 -147s57.834 -144 60.501 -236c0 -54 -0.666992 -95.833 -2 -125.5zM821.999 715.008
c0 84.667 -17.168 153.333 -51.501 206s-93.166 79 -176.499 79c-74 0 -135.5 -26.167 -184.5 -78.5s-79.5 -136.833 -91.5 -253.5h502c1.33301 21.333 2 37 2 47z" />
    <glyph glyph-name="igrave" unicode="&#xec;" horiz-adv-x="606" 
d="M413 1138v-1138h-220v1138h220zM183 1378.5c-53.333 44.333 -105.5 92.167 -156.5 143.5s-87.167 93.333 -108.5 126l157 135c64.667 -83.333 166.667 -204 306 -362l32 -37l-111 -90c-26 12 -65.667 40.167 -119 84.5z" />
    <glyph glyph-name="iacute" unicode="&#xed;" horiz-adv-x="606" 
d="M194 1407l187.498 210.503c45.667 53 88.834 108.167 129.501 165.5l156 -135c-16 -26.667 -50.333 -66.834 -103 -120.501s-106.667 -103.834 -162 -150.501s-94.666 -74.334 -117.999 -83.001l-111 90zM412.998 1138v-1138h-220v1138h220z" />
    <glyph glyph-name="icircumflex" unicode="&#xee;" horiz-adv-x="606" 
d="M205 1682h198l268 -332l-135 -56l-232 222l-249 -223l-126 56zM413 1138v-1138h-220v1138h220z" />
    <glyph glyph-name="idieresis" unicode="&#xef;" horiz-adv-x="606" 
d="M-33.5 1567.5c15 23 34.501 41.1689 58.501 54.502s48.667 20 74 20c43.333 0 75.833 -12 97.5 -36s32.5 -55.333 32.5 -94c0 -28.667 -7.16699 -54.334 -21.5 -77.001s-33.333 -40.334 -57 -53.001s-48.834 -19 -75.501 -19c-37.333 0 -68.5 11.833 -93.5 35.5
s-37.5 55.167 -37.5 94.5c0 26.667 7.5 51.5 22.5 74.5zM400.501 1567.5c15 23 34.501 41.1689 58.501 54.502s48.667 20 74 20c42.667 0 75 -12.167 97 -36.5s33 -55.5 33 -93.5c0 -28.667 -7.16699 -54.334 -21.5 -77.001s-33.333 -40.334 -57 -53.001
s-48.834 -19 -75.501 -19c-37.333 0 -68.5 11.833 -93.5 35.5s-37.5 55.167 -37.5 94.5c0 26.667 7.5 51.5 22.5 74.5zM413.002 1138v-1138h-220v1138h220z" />
    <glyph glyph-name="eth" unicode="&#xf0;" horiz-adv-x="1190" 
d="M1000.5 1153.5c75.667 -163.667 113.5 -345.5 113.5 -545.5c0 -139.333 -21.167 -256.5 -63.5 -351.5s-102 -166 -179 -213s-167.833 -70.5 -272.5 -70.5c-102 0 -191 23.667 -267 71s-134.5 114.666 -175.5 201.999s-61.5 189.666 -61.5 306.999
c0 122.667 21.167 229.334 63.5 320.001s101.833 160.167 178.5 208.5s165.667 72.5 267 72.5c43.333 0 83.166 -6.5 119.499 -19.5s68.5 -31.167 96.5 -54.5c-26 72.667 -62 140.5 -108 203.5s-99 120.167 -159 171.5l-134 -149l-115 90l133 143
c-72 46.667 -143.667 82.334 -215 107.001l52 125c96 -30 185.333 -69.333 268 -118c24 26 50.167 56.167 78.5 90.5l55.5 67.5l117 -90l-53 -61c-27.333 -31.333 -53.666 -60 -78.999 -86l13 -10c142 -110 250.833 -246.833 326.5 -410.5zM896 692
c0 60 -2.00098 112.335 -6.00098 157.002c-4.66699 22.667 -17.667 44.667 -39 66s-52 39.166 -92 53.499s-88 21.5 -144 21.5c-99.333 0 -174.5 -38.833 -225.5 -116.5s-76.5 -181.834 -76.5 -312.501c0 -85.333 11.333 -160.833 34 -226.5s56.834 -117.167 102.501 -154.5
s101.167 -56 166.5 -56c56 0 105 17.667 147 53s74.5 85.5 97.5 150.5s34.5 140.5 34.5 226.5z" />
    <glyph glyph-name="ntilde" unicode="&#xf1;" horiz-adv-x="1279" 
d="M372 1138l1 -120.001c52 35.333 116.5 67.333 193.5 96s150.5 43 220.5 43c78.667 0 141.334 -14.667 188.001 -44s80.667 -76.333 102 -141s32 -152 32 -262v-710h-220v711c0 64 -5 114.833 -15 152.5s-28.333 65.834 -55 84.501s-65.334 28 -116.001 28
c-12 0 -21 -0.333008 -27 -1c-40 -1.33301 -85.833 -11.5 -137.5 -30.5s-99.167 -44.167 -142.5 -75.5v-869h-220v1138h196zM355 1549.5c27.333 29.667 58.8311 53.498 94.498 71.498s72.834 27 111.501 27c39.333 0 72.166 -6.83301 98.499 -20.5s54.5 -33.5 84.5 -59.5
c22.667 -19.333 41.834 -33.666 57.501 -42.999s33.834 -14 54.501 -14c40 0 73.5 8.66699 100.5 26s54.5 41.333 82.5 72l86 -72c-27.333 -56.667 -64.666 -103 -111.999 -139s-100 -54 -158 -54c-42.667 0 -77.167 7.16699 -103.5 21.5s-54.166 34.5 -83.499 60.5
c-22 19.333 -40.5 33.5 -55.5 42.5s-32.833 13.5 -53.5 13.5c-36 0 -68.833 -9.16699 -98.5 -27.5s-57.834 -41.5 -84.501 -69.5l-85 68c15.333 34.667 36.666 66.834 63.999 96.501z" />
    <glyph glyph-name="ograve" unicode="&#xf2;" horiz-adv-x="1213" 
d="M163 892.5c44.667 86.333 106.336 151.833 185.003 196.5s168 67 268 67c115.333 0 210.333 -26.667 285 -80s129.334 -124.666 164.001 -213.999s52 -190 52 -302c0 -122 -22.333 -226.333 -67 -313s-106.334 -152.167 -185.001 -196.5s-168.334 -66.5 -269.001 -66.5
c-114.667 0 -209.334 26.667 -284.001 80s-129.334 124.666 -164.001 213.999s-52 190 -52 302c0 122 22.333 226.167 67 312.5zM862.502 783.5c-21 66.333 -53.168 118.668 -96.501 157.001s-97.666 57.5 -162.999 57.5c-92.667 0 -163.167 -35.167 -211.5 -105.5
s-72.5 -170.833 -72.5 -301.5c0 -84.667 10.667 -161.167 32 -229.5s53.666 -122.333 96.999 -162s97 -59.5 161 -59.5c92.667 0 163.334 36.333 212.001 109s73 175 73 307c0 85.333 -10.5 161.166 -31.5 227.499zM496.001 1378.5
c-53.333 44.333 -105.5 92.167 -156.5 143.5s-87.167 93.333 -108.5 126l157 135c64.667 -83.333 166.667 -204 306 -362l32 -37l-111 -90c-26 12 -65.667 40.167 -119 84.5z" />
    <glyph glyph-name="oacute" unicode="&#xf3;" horiz-adv-x="1213" 
d="M507 1407l187.498 210.503c45.667 53 88.834 108.167 129.501 165.5l156 -135c-16 -26.667 -50.333 -66.834 -103 -120.501s-106.667 -103.834 -162 -150.501s-94.666 -74.334 -117.999 -83.001l-111 90zM162.998 892.503c44.667 86.333 106.336 151.833 185.003 196.5
s168 67 268 67c115.333 0 210.333 -26.667 285 -80s129.334 -124.666 164.001 -213.999s52 -190 52 -302c0 -122 -22.333 -226.333 -67 -313s-106.334 -152.167 -185.001 -196.5s-168.334 -66.5 -269.001 -66.5c-114.667 0 -209.334 26.667 -284.001 80
s-129.334 124.666 -164.001 213.999s-52 190 -52 302c0 122 22.333 226.167 67 312.5zM862.5 783.503c-21 66.333 -53.168 118.668 -96.501 157.001s-97.666 57.5 -162.999 57.5c-92.667 0 -163.167 -35.167 -211.5 -105.5s-72.5 -170.833 -72.5 -301.5
c0 -84.667 10.667 -161.167 32 -229.5s53.666 -122.333 96.999 -162s97 -59.5 161 -59.5c92.667 0 163.334 36.333 212.001 109s73 175 73 307c0 85.333 -10.5 161.166 -31.5 227.499z" />
    <glyph glyph-name="ocircumflex" unicode="&#xf4;" horiz-adv-x="1213" 
d="M518 1682h198l268 -332l-135 -56l-232 222l-249 -223l-126 56zM163 892.5c44.667 86.333 106.336 151.833 185.003 196.5s168 67 268 67c115.333 0 210.333 -26.667 285 -80s129.334 -124.666 164.001 -213.999s52 -190 52 -302c0 -122 -22.333 -226.333 -67 -313
s-106.334 -152.167 -185.001 -196.5s-168.334 -66.5 -269.001 -66.5c-114.667 0 -209.334 26.667 -284.001 80s-129.334 124.666 -164.001 213.999s-52 190 -52 302c0 122 22.333 226.167 67 312.5zM862.502 783.5c-21 66.333 -53.168 118.668 -96.501 157.001
s-97.666 57.5 -162.999 57.5c-92.667 0 -163.167 -35.167 -211.5 -105.5s-72.5 -170.833 -72.5 -301.5c0 -84.667 10.667 -161.167 32 -229.5s53.666 -122.333 96.999 -162s97 -59.5 161 -59.5c92.667 0 163.334 36.333 212.001 109s73 175 73 307
c0 85.333 -10.5 161.166 -31.5 227.499z" />
    <glyph glyph-name="otilde" unicode="&#xf5;" horiz-adv-x="1213" 
d="M163 892.5c44.667 86.333 106.336 151.833 185.003 196.5s168 67 268 67c115.333 0 210.333 -26.667 285 -80s129.334 -124.666 164.001 -213.999s52 -190 52 -302c0 -122 -22.333 -226.333 -67 -313s-106.334 -152.167 -185.001 -196.5s-168.334 -66.5 -269.001 -66.5
c-114.667 0 -209.334 26.667 -284.001 80s-129.334 124.666 -164.001 213.999s-52 190 -52 302c0 122 22.333 226.167 67 312.5zM862.502 783.5c-21 66.333 -53.168 118.668 -96.501 157.001s-97.666 57.5 -162.999 57.5c-92.667 0 -163.167 -35.167 -211.5 -105.5
s-72.5 -170.833 -72.5 -301.5c0 -84.667 10.667 -161.167 32 -229.5s53.666 -122.333 96.999 -162s97 -59.5 161 -59.5c92.667 0 163.334 36.333 212.001 109s73 175 73 307c0 85.333 -10.5 161.166 -31.5 227.499zM261.001 1549.5
c27.333 29.667 58.8311 53.498 94.498 71.498s72.834 27 111.501 27c39.333 0 72.166 -6.83301 98.499 -20.5s54.5 -33.5 84.5 -59.5c22.667 -19.333 41.834 -33.666 57.501 -42.999s33.834 -14 54.501 -14c40 0 73.5 8.66699 100.5 26s54.5 41.333 82.5 72l86 -72
c-27.333 -56.667 -64.666 -103 -111.999 -139s-100 -54 -158 -54c-42.667 0 -77.167 7.16699 -103.5 21.5s-54.166 34.5 -83.499 60.5c-22 19.333 -40.5 33.5 -55.5 42.5s-32.833 13.5 -53.5 13.5c-36 0 -68.833 -9.16699 -98.5 -27.5s-57.834 -41.5 -84.501 -69.5l-85 68
c15.333 34.667 36.666 66.834 63.999 96.501z" />
    <glyph glyph-name="odieresis" unicode="&#xf6;" horiz-adv-x="1213" 
d="M267.5 1567.5c15 23 34.501 41.1689 58.501 54.502s48.667 20 74 20c43.333 0 75.833 -12 97.5 -36s32.5 -55.333 32.5 -94c0 -28.667 -7.16699 -54.334 -21.5 -77.001s-33.333 -40.334 -57 -53.001s-48.834 -19 -75.501 -19c-37.333 0 -68.5 11.833 -93.5 35.5
s-37.5 55.167 -37.5 94.5c0 26.667 7.5 51.5 22.5 74.5zM725.501 1567.5c15 23 34.501 41.1689 58.501 54.502s48.667 20 74 20c42.667 0 75 -12.167 97 -36.5s33 -55.5 33 -93.5c0 -28.667 -7.16699 -54.334 -21.5 -77.001s-33.333 -40.334 -57 -53.001
s-48.834 -19 -75.501 -19c-37.333 0 -68.5 11.833 -93.5 35.5s-37.5 55.167 -37.5 94.5c0 26.667 7.5 51.5 22.5 74.5zM163.002 892.504c44.667 86.333 106.336 151.833 185.003 196.5s168 67 268 67c115.333 0 210.333 -26.667 285 -80s129.334 -124.666 164.001 -213.999
s52 -190 52 -302c0 -122 -22.333 -226.333 -67 -313s-106.334 -152.167 -185.001 -196.5s-168.334 -66.5 -269.001 -66.5c-114.667 0 -209.334 26.667 -284.001 80s-129.334 124.666 -164.001 213.999s-52 190 -52 302c0 122 22.333 226.167 67 312.5zM862.504 783.504
c-21 66.333 -53.168 118.668 -96.501 157.001s-97.666 57.5 -162.999 57.5c-92.667 0 -163.167 -35.167 -211.5 -105.5s-72.5 -170.833 -72.5 -301.5c0 -84.667 10.667 -161.167 32 -229.5s53.666 -122.333 96.999 -162s97 -59.5 161 -59.5
c92.667 0 163.334 36.333 212.001 109s73 175 73 307c0 85.333 -10.5 161.166 -31.5 227.499z" />
    <glyph glyph-name="divide" unicode="&#xf7;" horiz-adv-x="1393" 
d="M574.5 1249c15.667 24.667 36.168 44.1689 61.501 58.502s51.666 21.5 78.999 21.5c45.333 0 80.333 -13.167 105 -39.5s37 -59.833 37 -100.5c0 -30.667 -7.66699 -58.167 -23 -82.5s-35.666 -43.333 -60.999 -57s-52.333 -20.5 -81 -20.5
c-25.333 0 -48.833 5.66699 -70.5 17s-38.834 27.666 -51.501 48.999s-19 45.666 -19 72.999c0 29.333 7.83301 56.333 23.5 81zM1164 858.002v-170h-935v170h935zM573.501 444.002c15.667 24.667 36.168 44.167 61.501 58.5s51.666 21.5 78.999 21.5
c45.333 0 80.333 -13 105 -39s37 -59.333 37 -100c0 -30.667 -7.66699 -58.167 -23 -82.5s-35.666 -43.333 -60.999 -57s-52.333 -20.5 -81 -20.5c-25.333 0 -48.833 5.66699 -70.5 17s-38.834 27.5 -51.501 48.5s-19 45.167 -19 72.5c0 29.333 7.83301 56.333 23.5 81z" />
    <glyph glyph-name="oslash" unicode="&#xf8;" horiz-adv-x="1213" 
d="M1052.5 890.5c43 -96.333 64.501 -206.5 64.501 -330.5c0 -122 -22.333 -226.333 -67 -313s-106.334 -152.167 -185.001 -196.5s-168.334 -66.5 -269.001 -66.5c-39.333 0 -78 3.66699 -116 11l-66 -195l-125 36l68 201c-88 45.333 -153.5 116.166 -196.5 212.499
s-64.5 206.5 -64.5 330.5c0 122 22.333 226.167 67 312.5s106.334 151.833 185.001 196.5s168 67 268 67c40 0 79 -3.66699 117 -11l67 197l125 -36l-69 -203c88 -45.333 153.5 -116.166 196.5 -212.499zM345.001 381.5c17.333 -63 43 -114.5 77 -154.5l258 761
c-22 6.66699 -47.667 10 -77 10c-92.667 0 -163.167 -35.167 -211.5 -105.5s-72.5 -170.833 -72.5 -301.5c0 -76.667 8.66699 -146.5 26 -209.5zM821.001 249c48.667 72.667 73 175 73 307c0 76.667 -8.5 146 -25.5 208s-42.5 112.333 -76.5 151l-259 -764
c21.333 -7.33301 46.666 -11 75.999 -11c92.667 0 163.334 36.333 212.001 109z" />
    <glyph glyph-name="ugrave" unicode="&#xf9;" horiz-adv-x="1249" 
d="M1073 1140v-1156h-85c-26 0 -46.667 2 -62 6s-27.166 12.333 -35.499 25s-12.5 31.667 -12.5 57v28c-52 -31.333 -111.833 -58.5 -179.5 -81.5s-130.834 -34.5 -189.501 -34.5c-92.667 0 -163.667 19.667 -213 59s-82.666 93.833 -99.999 163.5s-26 158.834 -26 267.501
v666h220v-665c0 -92.667 6.83301 -160.834 20.5 -204.501s34.667 -72.167 63 -85.5s70.166 -20 125.499 -20c40 0 85.167 8.66699 135.5 26s89.833 35.333 118.5 54v895h220zM514 1378.5c-53.333 44.333 -105.5 92.167 -156.5 143.5s-87.167 93.333 -108.5 126l157 135
c64.667 -83.333 166.667 -204 306 -362l32 -37l-111 -90c-26 12 -65.667 40.167 -119 84.5z" />
    <glyph glyph-name="uacute" unicode="&#xfa;" horiz-adv-x="1249" 
d="M525 1407l187.498 210.503c45.667 53 88.834 108.167 129.501 165.5l156 -135c-16 -26.667 -50.333 -66.834 -103 -120.501s-106.667 -103.834 -162 -150.501s-94.666 -74.334 -117.999 -83.001l-111 90zM1073 1140v-1156h-85c-26 0 -46.667 2 -62 6
s-27.166 12.333 -35.499 25s-12.5 31.667 -12.5 57v28c-52 -31.333 -111.833 -58.5 -179.5 -81.5s-130.834 -34.5 -189.501 -34.5c-92.667 0 -163.667 19.667 -213 59s-82.666 93.833 -99.999 163.5s-26 158.834 -26 267.501v666h220v-665
c0 -92.667 6.83301 -160.834 20.5 -204.501s34.667 -72.167 63 -85.5s70.166 -20 125.499 -20c40 0 85.167 8.66699 135.5 26s89.833 35.333 118.5 54v895h220z" />
    <glyph glyph-name="ucircumflex" unicode="&#xfb;" horiz-adv-x="1249" 
d="M536 1682h198l268 -332l-135 -56l-232 222l-249 -223l-126 56zM1073 1140v-1156h-85c-26 0 -46.667 2 -62 6s-27.166 12.333 -35.499 25s-12.5 31.667 -12.5 57v28c-52 -31.333 -111.833 -58.5 -179.5 -81.5s-130.834 -34.5 -189.501 -34.5
c-92.667 0 -163.667 19.667 -213 59s-82.666 93.833 -99.999 163.5s-26 158.834 -26 267.501v666h220v-665c0 -92.667 6.83301 -160.834 20.5 -204.501s34.667 -72.167 63 -85.5s70.166 -20 125.499 -20c40 0 85.167 8.66699 135.5 26s89.833 35.333 118.5 54v895h220z" />
    <glyph glyph-name="udieresis" unicode="&#xfc;" horiz-adv-x="1249" 
d="M285.5 1567.5c15 23 34.501 41.1689 58.501 54.502s48.667 20 74 20c43.333 0 75.833 -12 97.5 -36s32.5 -55.333 32.5 -94c0 -28.667 -7.16699 -54.334 -21.5 -77.001s-33.333 -40.334 -57 -53.001s-48.834 -19 -75.501 -19c-37.333 0 -68.5 11.833 -93.5 35.5
s-37.5 55.167 -37.5 94.5c0 26.667 7.5 51.5 22.5 74.5zM743.501 1567.5c15 23 34.501 41.1689 58.501 54.502s48.667 20 74 20c42.667 0 75 -12.167 97 -36.5s33 -55.5 33 -93.5c0 -28.667 -7.16699 -54.334 -21.5 -77.001s-33.333 -40.334 -57 -53.001
s-48.834 -19 -75.501 -19c-37.333 0 -68.5 11.833 -93.5 35.5s-37.5 55.167 -37.5 94.5c0 26.667 7.5 51.5 22.5 74.5zM1073 1140v-1156h-85c-26 0 -46.667 2 -62 6s-27.166 12.333 -35.499 25s-12.5 31.667 -12.5 57v28c-52 -31.333 -111.833 -58.5 -179.5 -81.5
s-130.834 -34.5 -189.501 -34.5c-92.667 0 -163.667 19.667 -213 59s-82.666 93.833 -99.999 163.5s-26 158.834 -26 267.501v666h220v-665c0 -92.667 6.83301 -160.834 20.5 -204.501s34.667 -72.167 63 -85.5s70.166 -20 125.499 -20c40 0 85.167 8.66699 135.5 26
s89.833 35.333 118.5 54v895h220z" />
    <glyph glyph-name="yacute" unicode="&#xfd;" horiz-adv-x="1116" 
d="M1093 1140l-384 -1176c-85.333 -260.667 -204.666 -412.667 -357.999 -456c-15.333 -4 -33.333 -7.5 -54 -10.5s-38.667 -4.5 -54 -4.5c-17.333 0 -39 1.5 -65 4.5s-41.667 6.16699 -47 9.5v179c10 -3.33301 25.167 -6 45.5 -8s37.166 -3 50.499 -3
c33.333 0 68.5 9 105.5 27s72.833 51.167 107.5 99.5s62 114.5 82 198.5h-65l-413 1140h235l252 -768l58 -186l51 186l216 768h237zM481 1407l187.498 210.503c45.667 53 88.834 108.167 129.501 165.5l156 -135c-16 -26.667 -50.333 -66.834 -103 -120.501
s-106.667 -103.834 -162 -150.501s-94.666 -74.334 -117.999 -83.001l-111 90z" />
    <glyph glyph-name="thorn" unicode="&#xfe;" horiz-adv-x="1238" 
d="M917 1095.5c68 -40.333 122.332 -101.332 162.999 -182.999s61 -181.834 61 -300.501c0 -122 -23.833 -230.833 -71.5 -326.5s-115.167 -170.167 -202.5 -223.5s-187.666 -80 -300.999 -80c-58.667 0 -123 6.66699 -193 20l13 -171v-338h-220v2168h220v-472l-8 -159
c35.333 36 77.5 66 126.5 90s111.167 36 186.5 36c82.667 0 158 -20.167 226 -60.5zM843.499 886.501c-49 64.333 -120.167 96.501 -213.5 96.501c-48.667 0 -93.5 -9.16699 -134.5 -27.5s-77.5 -40.166 -109.5 -65.499v-706c38 -26.667 106.333 -40 205 -40
c62.667 0 118.667 17.333 168 52s88 85.667 116 153s42 148.666 42 243.999c0 131.333 -24.5 229.166 -73.5 293.499z" />
    <glyph glyph-name="ydieresis" unicode="&#xff;" horiz-adv-x="1116" 
d="M1093 1140l-384 -1176c-85.333 -260.667 -204.666 -412.667 -357.999 -456c-15.333 -4 -33.333 -7.5 -54 -10.5s-38.667 -4.5 -54 -4.5c-17.333 0 -39 1.5 -65 4.5s-41.667 6.16699 -47 9.5v179c10 -3.33301 25.167 -6 45.5 -8s37.166 -3 50.499 -3
c33.333 0 68.5 9 105.5 27s72.833 51.167 107.5 99.5s62 114.5 82 198.5h-65l-413 1140h235l252 -768l58 -186l51 186l216 768h237zM241.5 1567.5c15 23 34.501 41.1689 58.501 54.502s48.667 20 74 20c43.333 0 75.833 -12 97.5 -36s32.5 -55.333 32.5 -94
c0 -28.667 -7.16699 -54.334 -21.5 -77.001s-33.333 -40.334 -57 -53.001s-48.834 -19 -75.501 -19c-37.333 0 -68.5 11.833 -93.5 35.5s-37.5 55.167 -37.5 94.5c0 26.667 7.5 51.5 22.5 74.5zM699.501 1567.5c15 23 34.501 41.1689 58.501 54.502s48.667 20 74 20
c42.667 0 75 -12.167 97 -36.5s33 -55.5 33 -93.5c0 -28.667 -7.16699 -54.334 -21.5 -77.001s-33.333 -40.334 -57 -53.001s-48.834 -19 -75.501 -19c-37.333 0 -68.5 11.833 -93.5 35.5s-37.5 55.167 -37.5 94.5c0 26.667 7.5 51.5 22.5 74.5z" />
    <glyph glyph-name="Amacron" unicode="&#x100;" horiz-adv-x="1407" 
d="M1016 385h-623l-136 -385h-236l582 1538h215l568 -1538h-241zM960 551l-205 609l-43 142l-44 -142l-216 -609h508zM978 1891v-162h-547v162h547z" />
    <glyph glyph-name="amacron" unicode="&#x101;" horiz-adv-x="1131" 
d="M784 1127c58.667 -20 104.33 -56.501 136.997 -109.501s49 -127.5 49 -223.5v-810h-90c-30 0 -52.667 2 -68 6s-27.333 13.333 -36 28s-13 38 -13 70v8c-33.333 -30.667 -79.166 -57 -137.499 -79s-119.166 -33 -182.499 -33c-67.333 0 -127.5 13 -180.5 39
s-94.333 63.167 -124 111.5s-44.5 105.166 -44.5 170.499c0 72 19.5 134.333 58.5 187s93.5 93.334 163.5 122.001c62 24.667 132.167 43.167 210.5 55.5s152.833 18.5 223.5 18.5v115c0 53.333 -8.5 93.333 -25.5 120s-42.5 44.667 -76.5 54s-81 14 -141 14
c-32 0 -68.833 -4.33301 -110.5 -13s-80.667 -19.5 -117 -32.5s-63.166 -25.5 -80.499 -37.5l-54 144c17.333 10.667 48.833 24.334 94.5 41.001s97.667 31.5 156 44.5s114.5 19.5 168.5 19.5c88 0 161.333 -10 220 -30zM606.996 161.999
c34.667 9.33301 65.167 20.5 91.5 33.5s43.5 24.167 51.5 33.5v319c-48.667 0 -103.5 -4.66699 -164.5 -14s-110.167 -23 -147.5 -41c-40.667 -19.333 -72 -42 -94 -68s-33 -59.667 -33 -101c0 -117.333 65.667 -176 197 -176c31.333 0 64.333 4.66699 99 14zM840.996 1588
v-163h-547v163h547z" />
    <glyph glyph-name="Abreve" unicode="&#x102;" horiz-adv-x="1407" 
d="M1016 385h-623l-136 -385h-236l582 1538h215l568 -1538h-241zM960 551l-205 609l-43 142l-44 -142l-216 -609h508zM513 1970c0.666992 -22 4.16895 -44.168 10.502 -66.501s23.5 -44.333 51.5 -66s70.333 -32.5 127 -32.5c80.667 0 132.667 18.333 156 55
s35.666 73.334 36.999 110.001h149c0.666992 -6.66699 1 -16.667 1 -30c0 -56 -14.333 -107.5 -43 -154.5s-69 -84.333 -121 -112s-111.667 -41.5 -179 -41.5c-70.667 0 -131.834 13.667 -183.501 41s-91.167 64.5 -118.5 111.5s-41 98.833 -41 155.5
c0 13.333 0.333008 23.333 1 30h153z" />
    <glyph glyph-name="abreve" unicode="&#x103;" horiz-adv-x="1131" 
d="M784 1127c58.667 -20 104.33 -56.501 136.997 -109.501s49 -127.5 49 -223.5v-810h-90c-30 0 -52.667 2 -68 6s-27.333 13.333 -36 28s-13 38 -13 70v8c-33.333 -30.667 -79.166 -57 -137.499 -79s-119.166 -33 -182.499 -33c-67.333 0 -127.5 13 -180.5 39
s-94.333 63.167 -124 111.5s-44.5 105.166 -44.5 170.499c0 72 19.5 134.333 58.5 187s93.5 93.334 163.5 122.001c62 24.667 132.167 43.167 210.5 55.5s152.833 18.5 223.5 18.5v115c0 53.333 -8.5 93.333 -25.5 120s-42.5 44.667 -76.5 54s-81 14 -141 14
c-32 0 -68.833 -4.33301 -110.5 -13s-80.667 -19.5 -117 -32.5s-63.166 -25.5 -80.499 -37.5l-54 144c17.333 10.667 48.833 24.334 94.5 41.001s97.667 31.5 156 44.5s114.5 19.5 168.5 19.5c88 0 161.333 -10 220 -30zM606.996 161.999
c34.667 9.33301 65.167 20.5 91.5 33.5s43.5 24.167 51.5 33.5v319c-48.667 0 -103.5 -4.66699 -164.5 -14s-110.167 -23 -147.5 -41c-40.667 -19.333 -72 -42 -94 -68s-33 -59.667 -33 -101c0 -117.333 65.667 -176 197 -176c31.333 0 64.333 4.66699 99 14zM376.996 1685
c0.666992 -26.667 4.16602 -53.833 10.499 -81.5s23.5 -55.167 51.5 -82.5s70.667 -41 128 -41c80 0 131.5 22.833 154.5 68.5s35.5 91.167 37.5 136.5h150c0.666992 -6.66699 1 -17 1 -31c0 -60 -14.667 -116.5 -44 -169.5s-70.166 -95.667 -122.499 -128
s-111.5 -48.5 -177.5 -48.5c-69.333 0 -130 16 -182 48s-92 74.5 -120 127.5s-42 109.833 -42 170.5c0 14 0.333008 24.333 1 31h154z" />
    <glyph glyph-name="Aogonek" unicode="&#x104;" horiz-adv-x="1407" 
d="M1394 -335l0.00195312 -118.001c-26.667 -20 -61.334 -34.833 -104.001 -44.5s-87 -14.5 -133 -14.5c-72.667 0 -131.834 18.667 -177.501 56s-68.5 89.666 -68.5 156.999c0 58 26.5 113.167 79.5 165.5s115.167 96.833 186.5 133.5h-32l-129 385h-623l-136 -385h-236
l582 1538h215l568 -1538h-38c-62.667 -34.667 -115.167 -75.167 -157.5 -121.5s-63.5 -91.166 -63.5 -134.499c0 -41.333 11.167 -69.666 33.5 -84.999s53.833 -23 94.5 -23c42.667 0 89 9.66699 139 29zM960.002 550.999l-205 609l-43 142l-44 -142l-216 -609h508z" />
    <glyph glyph-name="aogonek" unicode="&#x105;" horiz-adv-x="1131" 
d="M1042 -335l-0.00390625 -118.001c-26.667 -20 -61.334 -34.833 -104.001 -44.5s-87 -14.5 -133 -14.5c-73.333 0 -132.666 18.667 -177.999 56s-68 90 -68 158c0 37.333 11 75 33 113s50.833 72.833 86.5 104.5s73.834 58.167 114.501 79.5
c-10 7.33301 -17.5 18 -22.5 32s-7.5 33 -7.5 57v8c-33.333 -30.667 -79.166 -57 -137.499 -79s-119.166 -33 -182.499 -33c-67.333 0 -127.5 13 -180.5 39s-94.333 63.167 -124 111.5s-44.5 105.166 -44.5 170.499c0 72 19.5 134.333 58.5 187s93.5 93.334 163.5 122.001
c62 24.667 132.167 43.167 210.5 55.5s152.833 18.5 223.5 18.5v115c0 53.333 -8.5 93.333 -25.5 120s-42.5 44.667 -76.5 54s-81 14 -141 14c-32 0 -68.833 -4.33301 -110.5 -13s-80.667 -19.5 -117 -32.5s-63.166 -25.5 -80.499 -37.5l-54 144
c17.333 10.667 48.833 24.334 94.5 41.001s97.667 31.5 156 44.5s114.5 19.5 168.5 19.5c88 0 161.333 -10 220 -30s104.334 -56.5 137.001 -109.5s49 -127.5 49 -223.5v-810h-15c-54.667 -34.667 -98.334 -72.334 -131.001 -113.001s-49 -83 -49 -127
c0 -41.333 11.167 -69.666 33.5 -84.999s53.833 -23 94.5 -23c42.667 0 89 9.66699 139 29zM606.996 161.999c34.667 9.33301 65.167 20.5 91.5 33.5s43.5 24.167 51.5 33.5v319c-48.667 0 -103.5 -4.66699 -164.5 -14s-110.167 -23 -147.5 -41
c-40.667 -19.333 -72 -42 -94 -68s-33 -59.667 -33 -101c0 -117.333 65.667 -176 197 -176c31.333 0 64.333 4.66699 99 14z" />
    <glyph glyph-name="Cacute" unicode="&#x106;" horiz-adv-x="1313" 
d="M1012 1524c56.667 -9.33301 108.669 -21.001 156.002 -35.001l30 -8l-32 -198c-24.667 12.667 -48 23.5 -70 32.5s-57.333 18.167 -106 27.5s-107.334 14 -176.001 14c-102 0 -190.5 -24 -265.5 -72s-132.5 -116.333 -172.5 -205s-60 -192.667 -60 -312
c0 -118.667 20 -224 60 -316s97.5 -163.667 172.5 -215s163.167 -77 264.5 -77c50 0 100.667 4.33301 152 13s96.666 20.167 135.999 34.5s68 29.5 86 45.5l1 -189c-43.333 -17.333 -80.5 -31.166 -111.5 -41.499s-69.667 -19.333 -116 -27s-98.5 -11.5 -156.5 -11.5
c-142 0 -266.5 32 -373.5 96s-189.667 154 -248 270s-87.5 250.333 -87.5 403c0 162 32 302.333 96 421s149.667 209 257 271s224.333 93 351 93c85.333 0 156.333 -4.66699 213 -14zM865.002 1843.5c94.667 85.667 143 131.166 145 136.499l146 -133
c-49.333 -50.667 -114 -104.167 -194 -160.5s-147.333 -94.166 -202 -113.499l-93 92z" />
    <glyph glyph-name="cacute" unicode="&#x107;" horiz-adv-x="1002" 
d="M503 1407l187.498 210.503c45.667 53 88.834 108.167 129.501 165.5l156 -135c-16 -26.667 -50.333 -66.834 -103 -120.501s-106.667 -103.834 -162 -150.501s-94.666 -74.334 -117.999 -83.001l-111 90zM819.998 1137.5c50 -12.333 85.9951 -25.833 107.995 -40.5
l-35 -174c-30.667 21.333 -66.667 37.166 -108 47.499s-90.666 15.5 -147.999 15.5s-110.833 -14.667 -160.5 -44s-89.834 -75.166 -120.501 -137.499s-46 -140.833 -46 -235.5c0 -88 14 -163.5 42 -226.5s66.333 -110.833 115 -143.5s103.334 -49 164.001 -49
c52.667 0 104 6.83301 154 20.5s89.333 29.167 118 46.5l45 -125c-35.333 -32.667 -84.666 -58.834 -147.999 -78.501s-130.666 -29.5 -201.999 -29.5c-104 0 -193.833 24.833 -269.5 74.5s-133.167 117.834 -172.5 204.501s-59 185 -59 295
c0 114 20.833 216.167 62.5 306.5s103.834 161.5 186.501 213.5s183.334 78 302.001 78c64.667 0 122 -6.16699 172 -18.5z" />
    <glyph glyph-name="Ccircumflex" unicode="&#x108;" horiz-adv-x="1313" 
d="M1012 1524c56.667 -9.33301 108.669 -21.001 156.002 -35.001l30 -8l-32 -198c-24.667 12.667 -48 23.5 -70 32.5s-57.333 18.167 -106 27.5s-107.334 14 -176.001 14c-102 0 -190.5 -24 -265.5 -72s-132.5 -116.333 -172.5 -205s-60 -192.667 -60 -312
c0 -118.667 20 -224 60 -316s97.5 -163.667 172.5 -215s163.167 -77 264.5 -77c50 0 100.667 4.33301 152 13s96.666 20.167 135.999 34.5s68 29.5 86 45.5l1 -189c-43.333 -17.333 -80.5 -31.166 -111.5 -41.499s-69.667 -19.333 -116 -27s-98.5 -11.5 -156.5 -11.5
c-142 0 -266.5 32 -373.5 96s-189.667 154 -248 270s-87.5 250.333 -87.5 403c0 162 32 302.333 96 421s149.667 209 257 271s224.333 93 351 93c85.333 0 156.333 -4.66699 213 -14zM696.002 1990h197l262 -298l-144 -60l-216 202l-221 -202l-137 57z" />
    <glyph glyph-name="ccircumflex" unicode="&#x109;" horiz-adv-x="1002" 
d="M514 1682h198l268 -332l-135 -56l-232 222l-249 -223l-126 56zM820 1137.5c50 -12.333 85.9951 -25.833 107.995 -40.5l-35 -174c-30.667 21.333 -66.667 37.166 -108 47.499s-90.666 15.5 -147.999 15.5s-110.833 -14.667 -160.5 -44s-89.834 -75.166 -120.501 -137.499
s-46 -140.833 -46 -235.5c0 -88 14 -163.5 42 -226.5s66.333 -110.833 115 -143.5s103.334 -49 164.001 -49c52.667 0 104 6.83301 154 20.5s89.333 29.167 118 46.5l45 -125c-35.333 -32.667 -84.666 -58.834 -147.999 -78.501s-130.666 -29.5 -201.999 -29.5
c-104 0 -193.833 24.833 -269.5 74.5s-133.167 117.834 -172.5 204.501s-59 185 -59 295c0 114 20.833 216.167 62.5 306.5s103.834 161.5 186.501 213.5s183.334 78 302.001 78c64.667 0 122 -6.16699 172 -18.5z" />
    <glyph glyph-name="Cdotaccent" unicode="&#x10a;" horiz-adv-x="1313" 
d="M670 1879.5c15.333 23.667 35.5 42.333 60.5 56s50.5 20.5 76.5 20.5c45.333 0 79.833 -12.333 103.5 -37s35.5 -56.667 35.5 -96c0 -30 -7.5 -56.667 -22.5 -80s-34.667 -41.5 -59 -54.5s-50.5 -19.5 -78.5 -19.5c-38.667 0 -71.5 12.167 -98.5 36.5
s-40.5 56.5 -40.5 96.5c0 28 7.66699 53.833 23 77.5zM1012 1524c56.667 -9.33301 108.669 -21.001 156.002 -35.001l30 -8l-32 -198c-24.667 12.667 -48 23.5 -70 32.5s-57.333 18.167 -106 27.5s-107.334 14 -176.001 14c-102 0 -190.5 -24 -265.5 -72
s-132.5 -116.333 -172.5 -205s-60 -192.667 -60 -312c0 -118.667 20 -224 60 -316s97.5 -163.667 172.5 -215s163.167 -77 264.5 -77c50 0 100.667 4.33301 152 13s96.666 20.167 135.999 34.5s68 29.5 86 45.5l1 -189c-43.333 -17.333 -80.5 -31.166 -111.5 -41.499
s-69.667 -19.333 -116 -27s-98.5 -11.5 -156.5 -11.5c-142 0 -266.5 32 -373.5 96s-189.667 154 -248 270s-87.5 250.333 -87.5 403c0 162 32 302.333 96 421s149.667 209 257 271s224.333 93 351 93c85.333 0 156.333 -4.66699 213 -14z" />
    <glyph glyph-name="cdotaccent" unicode="&#x10b;" horiz-adv-x="1002" 
d="M820 1137.5c50 -12.333 85.9951 -25.833 107.995 -40.5l-35 -174c-30.667 21.333 -66.667 37.166 -108 47.499s-90.666 15.5 -147.999 15.5s-110.833 -14.667 -160.5 -44s-89.834 -75.166 -120.501 -137.499s-46 -140.833 -46 -235.5c0 -88 14 -163.5 42 -226.5
s66.333 -110.833 115 -143.5s103.334 -49 164.001 -49c52.667 0 104 6.83301 154 20.5s89.333 29.167 118 46.5l45 -125c-35.333 -32.667 -84.666 -58.834 -147.999 -78.501s-130.666 -29.5 -201.999 -29.5c-104 0 -193.833 24.833 -269.5 74.5
s-133.167 117.834 -172.5 204.501s-59 185 -59 295c0 114 20.833 216.167 62.5 306.5s103.834 161.5 186.501 213.5s183.334 78 302.001 78c64.667 0 122 -6.16699 172 -18.5zM483.495 1560c15.667 24 36.167 42.998 61.5 56.998s51 21 77 21
c45.333 0 80.166 -12.667 104.499 -38s36.5 -57.666 36.5 -96.999c0 -29.333 -7.66699 -56 -23 -80s-35.333 -42.667 -60 -56s-51 -20 -79 -20c-25.333 0 -48.666 5.5 -69.999 16.5s-38.5 26.833 -51.5 47.5s-19.5 44.334 -19.5 71.001c0 28 7.83301 54 23.5 78z" />
    <glyph glyph-name="Ccaron" unicode="&#x10c;" horiz-adv-x="1313" 
d="M1012 1524c56.667 -9.33301 108.669 -21.001 156.002 -35.001l30 -8l-32 -198c-24.667 12.667 -48 23.5 -70 32.5s-57.333 18.167 -106 27.5s-107.334 14 -176.001 14c-102 0 -190.5 -24 -265.5 -72s-132.5 -116.333 -172.5 -205s-60 -192.667 -60 -312
c0 -118.667 20 -224 60 -316s97.5 -163.667 172.5 -215s163.167 -77 264.5 -77c50 0 100.667 4.33301 152 13s96.666 20.167 135.999 34.5s68 29.5 86 45.5l1 -189c-43.333 -17.333 -80.5 -31.166 -111.5 -41.499s-69.667 -19.333 -116 -27s-98.5 -11.5 -156.5 -11.5
c-142 0 -266.5 32 -373.5 96s-189.667 154 -248 270s-87.5 250.333 -87.5 403c0 162 32 302.333 96 421s149.667 209 257 271s224.333 93 351 93c85.333 0 156.333 -4.66699 213 -14zM580.002 1990l216 -174l221 174l120 -57l-242 -263h-197l-246 260z" />
    <glyph glyph-name="ccaron" unicode="&#x10d;" horiz-adv-x="1002" 
d="M615 1487l232 222l135 -56l-268 -332h-198l-276 333l126 56zM820 1137.5c50 -12.333 85.9951 -25.833 107.995 -40.5l-35 -174c-30.667 21.333 -66.667 37.166 -108 47.499s-90.666 15.5 -147.999 15.5s-110.833 -14.667 -160.5 -44s-89.834 -75.166 -120.501 -137.499
s-46 -140.833 -46 -235.5c0 -88 14 -163.5 42 -226.5s66.333 -110.833 115 -143.5s103.334 -49 164.001 -49c52.667 0 104 6.83301 154 20.5s89.333 29.167 118 46.5l45 -125c-35.333 -32.667 -84.666 -58.834 -147.999 -78.501s-130.666 -29.5 -201.999 -29.5
c-104 0 -193.833 24.833 -269.5 74.5s-133.167 117.834 -172.5 204.501s-59 185 -59 295c0 114 20.833 216.167 62.5 306.5s103.834 161.5 186.501 213.5s183.334 78 302.001 78c64.667 0 122 -6.16699 172 -18.5z" />
    <glyph glyph-name="Dcaron" unicode="&#x10e;" horiz-adv-x="1472" 
d="M517 1990l216 -174l221 174l120 -57l-242 -263h-197l-246 260zM306 1522c38 0 90.333 2.33203 157 6.99902c9.33301 0.666992 35.833 2.33398 79.5 5.00098s84.834 4 123.501 4c240.667 0 421.167 -63.333 541.5 -190s180.5 -308 180.5 -544
c0 -169.333 -29.333 -315.5 -88 -438.5s-142.667 -217.333 -252 -283s-238.333 -98.5 -387 -98.5c-30.667 0 -89.334 2.66699 -176.001 8c-96 5.33301 -164.667 8 -206 8h-85v1522h112zM1027.5 305.499c85.667 101 128.5 256.167 128.5 465.5c0 148 -20 266.333 -60 355
s-99.667 152.667 -179 192s-180.333 59 -303 59c-78.667 0 -144 -5.33301 -196 -16v-1193c31.333 -7.33301 70.5 -12.5 117.5 -15.5s94.167 -4.16699 141.5 -3.5c148 3.33301 264.833 55.5 350.5 156.5z" />
    <glyph glyph-name="dcaron" unicode="&#x10f;" horiz-adv-x="1648" 
d="M1071 1664l0.00390625 -1680h-95c-26 0 -46.833 2 -62.5 6s-28 12.333 -37 25s-13.5 31.667 -13.5 57v41c-36 -36.667 -78.667 -67.334 -128 -92.001s-112.333 -37 -189 -37c-82.667 0 -157.834 20.167 -225.501 60.5s-121.834 101.333 -162.501 183
s-61 181.834 -61 300.501c0 122 23.667 230.667 71 326s114.166 169.5 200.499 222.5s186.166 79.5 299.499 79.5c64 0 126 -9.33301 186 -28l-3 61v475h220zM394.504 253.5c49 -64.333 119.831 -96.499 212.498 -96.499c48.667 0 93.834 9.16699 135.501 27.5
s77.834 39.833 108.501 64.5v697c-20 17.333 -46.667 30 -80 38s-75 12 -125 12c-62 0 -117.667 -17.333 -167 -52s-88 -85.834 -116 -153.501s-42 -148.834 -42 -243.501c0 -131.333 24.5 -229.166 73.5 -293.499zM1300 1096l12 41c12 38 21 73.833 27 107.5
s9 79.834 9 138.501c0 37.333 -5.83301 76.166 -17.5 116.499s-24.167 68.833 -37.5 85.5l14 47l176 55c20.667 -18.667 36.167 -49.5 46.5 -92.5s15.5 -92.5 15.5 -148.5c0 -83.333 -12.333 -162.333 -37 -237s-54.667 -133 -90 -175l-110 34z" />
    <glyph glyph-name="Dcroat" unicode="&#x110;" horiz-adv-x="1472" 
d="M1207.5 1348c120.333 -126.667 180.5 -308.001 180.5 -544.001c0 -169.333 -29.333 -315.5 -88 -438.5s-142.667 -217.333 -252 -283s-238.333 -98.5 -387 -98.5c-30.667 0 -89.334 2.66699 -176.001 8c-96 5.33301 -164.667 8 -206 8h-85v720h-128v149h128v653h112
c38 0 90.333 2.33301 157 7c9.33301 0.666992 35.833 2.33398 79.5 5.00098s84.834 4 123.501 4c240.667 0 421.167 -63.333 541.5 -190zM1027.5 305.499c85.667 101 128.5 256.167 128.5 465.5c0 148 -20 266.333 -60 355s-99.667 152.667 -179 192s-180.333 59 -303 59
c-78.667 0 -144 -5.33301 -196 -16v-492h394v-149h-394v-552c31.333 -7.33301 70.5 -12.5 117.5 -15.5s94.167 -4.16699 141.5 -3.5c148 3.33301 264.833 55.5 350.5 156.5z" />
    <glyph glyph-name="dcroat" unicode="&#x111;" horiz-adv-x="1237" 
d="M1212 1306h-140.996v-1322h-95c-26 0 -46.833 2 -62.5 6s-28 12.333 -37 25s-13.5 31.667 -13.5 57v41c-36 -36.667 -78.667 -67.334 -128 -92.001s-112.333 -37 -189 -37c-82.667 0 -157.834 20.167 -225.501 60.5s-121.834 101.333 -162.501 183
s-61 181.834 -61 300.501c0 122 23.667 230.667 71 326s114.166 169.5 200.499 222.5s186.166 79.5 299.499 79.5c64 0 126 -9.33301 186 -28l-3 61v117h-270v141h270v217h220v-217h141v-141zM394.504 253.5c49 -64.333 119.831 -96.499 212.498 -96.499
c48.667 0 93.834 9.16699 135.501 27.5s77.834 39.833 108.501 64.5v697c-20 17.333 -46.667 30 -80 38s-75 12 -125 12c-62 0 -117.667 -17.333 -167 -52s-88 -85.834 -116 -153.501s-42 -148.834 -42 -243.501c0 -131.333 24.5 -229.166 73.5 -293.499z" />
    <glyph glyph-name="Emacron" unicode="&#x112;" 
d="M956 1891v-162h-547v162h547zM1070 1522v-172h-653v-480h479v-172h-479v-523h726v-175h-949v1522h876z" />
    <glyph glyph-name="emacron" unicode="&#x113;" horiz-adv-x="1123" 
d="M1024 600.5c-1.33301 -29.667 -4.33594 -55.8301 -9.00293 -78.4971h-703c0.666992 -4.66699 1 -11.334 1 -20.001c11.333 -234.667 127.333 -352 348 -352c40 0 90.667 6.33301 152 19s105.333 27 132 43l42 -126c-36.667 -30 -92.334 -54.5 -167.001 -73.5
s-147.334 -28.5 -218.001 -28.5c-107.333 0 -198.666 23.167 -273.999 69.5s-132.666 113.5 -171.999 201.5s-59 193.667 -59 317c0 112 19.5 211.667 58.5 299s96.667 156.166 173 206.499s168.833 76.5 277.5 78.5c76.667 1.33301 146.334 -14.334 209.001 -47.001
s112.834 -81.667 150.501 -147s57.834 -144 60.501 -236c0 -54 -0.666992 -95.833 -2 -125.5zM821.997 715.004c0 84.667 -17.168 153.333 -51.501 206s-93.166 79 -176.499 79c-74 0 -135.5 -26.167 -184.5 -78.5s-79.5 -136.833 -91.5 -253.5h502
c1.33301 21.333 2 37 2 47zM871.996 1588v-163h-547v163h547z" />
    <glyph glyph-name="Ebreve" unicode="&#x114;" 
d="M491 1970c0.666992 -22 4.16895 -44.168 10.502 -66.501s23.5 -44.333 51.5 -66s70.333 -32.5 127 -32.5c80.667 0 132.667 18.333 156 55s35.666 73.334 36.999 110.001h149c0.666992 -6.66699 1 -16.667 1 -30c0 -56 -14.333 -107.5 -43 -154.5s-69 -84.333 -121 -112
s-111.667 -41.5 -179 -41.5c-70.667 0 -131.834 13.667 -183.501 41s-91.167 64.5 -118.5 111.5s-41 98.833 -41 155.5c0 13.333 0.333008 23.333 1 30h153zM1070 1522v-172h-653v-480h479v-172h-479v-523h726v-175h-949v1522h876z" />
    <glyph glyph-name="ebreve" unicode="&#x115;" horiz-adv-x="1123" 
d="M1024 600.5c-1.33301 -29.667 -4.33594 -55.8301 -9.00293 -78.4971h-703c0.666992 -4.66699 1 -11.334 1 -20.001c11.333 -234.667 127.333 -352 348 -352c40 0 90.667 6.33301 152 19s105.333 27 132 43l42 -126c-36.667 -30 -92.334 -54.5 -167.001 -73.5
s-147.334 -28.5 -218.001 -28.5c-107.333 0 -198.666 23.167 -273.999 69.5s-132.666 113.5 -171.999 201.5s-59 193.667 -59 317c0 112 19.5 211.667 58.5 299s96.667 156.166 173 206.499s168.833 76.5 277.5 78.5c76.667 1.33301 146.334 -14.334 209.001 -47.001
s112.834 -81.667 150.501 -147s57.834 -144 60.501 -236c0 -54 -0.666992 -95.833 -2 -125.5zM821.997 715.004c0 84.667 -17.168 153.333 -51.501 206s-93.166 79 -176.499 79c-74 0 -135.5 -26.167 -184.5 -78.5s-79.5 -136.833 -91.5 -253.5h502
c1.33301 21.333 2 37 2 47zM407.996 1685c0.666992 -26.667 4.16602 -53.833 10.499 -81.5s23.5 -55.167 51.5 -82.5s70.667 -41 128 -41c80 0 131.5 22.833 154.5 68.5s35.5 91.167 37.5 136.5h150c0.666992 -6.66699 1 -17 1 -31c0 -60 -14.667 -116.5 -44 -169.5
s-70.166 -95.667 -122.499 -128s-111.5 -48.5 -177.5 -48.5c-69.333 0 -130 16 -182 48s-92 74.5 -120 127.5s-42 109.833 -42 170.5c0 14 0.333008 24.333 1 31h154z" />
    <glyph glyph-name="Edotaccent" unicode="&#x116;" 
d="M555 1879.5c15.333 23.667 35.5 42.333 60.5 56s50.5 20.5 76.5 20.5c45.333 0 79.833 -12.333 103.5 -37s35.5 -56.667 35.5 -96c0 -30 -7.5 -56.667 -22.5 -80s-34.667 -41.5 -59 -54.5s-50.5 -19.5 -78.5 -19.5c-38.667 0 -71.5 12.167 -98.5 36.5
s-40.5 56.5 -40.5 96.5c0 28 7.66699 53.833 23 77.5zM1070 1522v-172h-653v-480h479v-172h-479v-523h726v-175h-949v1522h876z" />
    <glyph glyph-name="edotaccent" unicode="&#x117;" horiz-adv-x="1123" 
d="M1024 600.5c-1.33301 -29.667 -4.33594 -55.8301 -9.00293 -78.4971h-703c0.666992 -4.66699 1 -11.334 1 -20.001c11.333 -234.667 127.333 -352 348 -352c40 0 90.667 6.33301 152 19s105.333 27 132 43l42 -126c-36.667 -30 -92.334 -54.5 -167.001 -73.5
s-147.334 -28.5 -218.001 -28.5c-107.333 0 -198.666 23.167 -273.999 69.5s-132.666 113.5 -171.999 201.5s-59 193.667 -59 317c0 112 19.5 211.667 58.5 299s96.667 156.166 173 206.499s168.833 76.5 277.5 78.5c76.667 1.33301 146.334 -14.334 209.001 -47.001
s112.834 -81.667 150.501 -147s57.834 -144 60.501 -236c0 -54 -0.666992 -95.833 -2 -125.5zM821.997 715.004c0 84.667 -17.168 153.333 -51.501 206s-93.166 79 -176.499 79c-74 0 -135.5 -26.167 -184.5 -78.5s-79.5 -136.833 -91.5 -253.5h502
c1.33301 21.333 2 37 2 47zM468.496 1560c15.667 24 36.167 42.998 61.5 56.998s51 21 77 21c45.333 0 80.166 -12.667 104.499 -38s36.5 -57.666 36.5 -96.999c0 -29.333 -7.66699 -56 -23 -80s-35.333 -42.667 -60 -56s-51 -20 -79 -20
c-25.333 0 -48.666 5.5 -69.999 16.5s-38.5 26.833 -51.5 47.5s-19.5 44.334 -19.5 71.001c0 28 7.83301 54 23.5 78z" />
    <glyph glyph-name="Eogonek" unicode="&#x118;" 
d="M936.5 -121.5c-42.333 -46.333 -63.499 -91.168 -63.499 -134.501c0 -41.333 11.167 -69.666 33.5 -84.999s53.833 -23 94.5 -23c42.667 0 89 9.66699 139 29v-118c-26.667 -20 -61.334 -34.833 -104.001 -44.5s-87 -14.5 -133 -14.5c-74 0 -133.5 17.167 -178.5 51.5
s-67.5 84.833 -67.5 151.5c0 41.333 11.667 81.833 35 121.5s55 75.667 95 108s84.667 58.833 134 79.5h-727v1522h876v-172h-653v-480h479v-172h-479v-523h726v-175h-49c-62.667 -34.667 -115.167 -75.167 -157.5 -121.5z" />
    <glyph glyph-name="eogonek" unicode="&#x119;" horiz-adv-x="1123" 
d="M1024 600.5c-1.33301 -29.667 -4.33789 -55.8301 -9.00488 -78.4971h-703c0.666992 -4.66699 1 -11.334 1 -20.001c11.333 -234.667 127.333 -352 348 -352c40 0 90.667 6.33301 152 19s105.333 27 132 43l42 -126l-16 -12h1c-45.333 -28.667 -86 -62.5 -122 -101.5
s-64.167 -78.833 -84.5 -119.5s-30.5 -77 -30.5 -109c0 -41.333 11.167 -69.666 33.5 -84.999s53.833 -23 94.5 -23c42.667 0 89 9.66699 139 29v-118c-26.667 -20 -61.334 -34.833 -104.001 -44.5s-87 -14.5 -133 -14.5c-73.333 0 -132.666 18.833 -177.999 56.5
s-68 90.5 -68 158.5c0 31.333 8.5 65.333 25.5 102s40.167 71.667 69.5 105s61.666 60.666 96.999 81.999c-39.333 -5.33301 -75.666 -8 -108.999 -8c-107.333 0 -198.666 23.167 -273.999 69.5s-132.666 113.5 -171.999 201.5s-59 193.667 -59 317
c0 112 19.5 211.667 58.5 299s96.667 156.166 173 206.499s168.833 76.5 277.5 78.5c76.667 1.33301 146.334 -14.334 209.001 -47.001s112.834 -81.667 150.501 -147s57.834 -144 60.501 -236c0 -54 -0.666992 -95.833 -2 -125.5zM821.995 715.004
c0 84.667 -17.168 153.333 -51.501 206s-93.166 79 -176.499 79c-74 0 -135.5 -26.167 -184.5 -78.5s-79.5 -136.833 -91.5 -253.5h502c1.33301 21.333 2 37 2 47z" />
    <glyph glyph-name="Ecaron" unicode="&#x11a;" 
d="M465 1990l216 -174l221 174l120 -57l-242 -263h-197l-246 260zM1070 1522v-172h-653v-480h479v-172h-479v-523h726v-175h-949v1522h876z" />
    <glyph glyph-name="ecaron" unicode="&#x11b;" horiz-adv-x="1123" 
d="M600 1487l232 222l135 -56l-268 -332h-198l-276 333l126 56zM1024 600.5c-1.33301 -29.667 -4.33594 -55.8301 -9.00293 -78.4971h-703c0.666992 -4.66699 1 -11.334 1 -20.001c11.333 -234.667 127.333 -352 348 -352c40 0 90.667 6.33301 152 19s105.333 27 132 43
l42 -126c-36.667 -30 -92.334 -54.5 -167.001 -73.5s-147.334 -28.5 -218.001 -28.5c-107.333 0 -198.666 23.167 -273.999 69.5s-132.666 113.5 -171.999 201.5s-59 193.667 -59 317c0 112 19.5 211.667 58.5 299s96.667 156.166 173 206.499s168.833 76.5 277.5 78.5
c76.667 1.33301 146.334 -14.334 209.001 -47.001s112.834 -81.667 150.501 -147s57.834 -144 60.501 -236c0 -54 -0.666992 -95.833 -2 -125.5zM821.997 715.004c0 84.667 -17.168 153.333 -51.501 206s-93.166 79 -176.499 79c-74 0 -135.5 -26.167 -184.5 -78.5
s-79.5 -136.833 -91.5 -253.5h502c1.33301 21.333 2 37 2 47z" />
    <glyph glyph-name="Gcircumflex" unicode="&#x11c;" horiz-adv-x="1433" 
d="M1317 761l0.000976562 -667c-13.333 -0.666992 -27.5 -3.33398 -42.5 -8.00098s-34.833 -12 -59.5 -22c-62 -24 -123.333 -43.333 -184 -58s-136.334 -22 -227.001 -22c-146.667 0 -273 33 -379 99s-186.833 157.167 -242.5 273.5s-83.5 248.5 -83.5 396.5
c0 168.667 30.833 312 92.5 430s145.667 206.667 252 266s226.5 89 360.5 89c76.667 0 138 -3.33301 184 -10s96.333 -16.667 151 -30c38.667 -9.33301 69 -16 91 -20l-10 -200c-55.333 28.667 -115 50.167 -179 64.5s-147.667 21.5 -251 21.5
c-88.667 0 -167.834 -23.333 -237.501 -70s-124.167 -114 -163.5 -202s-59 -192 -59 -312c0 -120.667 17.333 -228 52 -322s87.334 -168.167 158.001 -222.5s157.667 -81.5 261 -81.5c59.333 0 117.5 4.83301 174.5 14.5s99.167 23.834 126.5 42.501v377l-277 13v160h492z
M708.001 1990h197l262 -298l-144 -60l-216 202l-221 -202l-137 57z" />
    <glyph glyph-name="gcircumflex" unicode="&#x11d;" 
d="M499 1682h198l268 -332l-135 -56l-232 222l-249 -223l-126 56zM1187 973l-209.001 0.00195312c34 -57.333 51 -123.333 51 -198c0 -82 -20 -152.5 -60 -211.5s-94.667 -103.667 -164 -134s-147.666 -45.5 -234.999 -45.5c-45.333 0 -86.666 4.33301 -123.999 13
c-18.667 -12.667 -34 -29.334 -46 -50.001s-18 -42 -18 -64c0 -42 9.5 -70.833 28.5 -86.5s52.833 -23.5 101.5 -23.5h207c158 0 267.5 -29.5 328.5 -88.5s91.5 -135.5 91.5 -229.5c0 -74 -24.667 -139.167 -74 -195.5s-115.833 -99.833 -199.5 -130.5
s-176.167 -46 -277.5 -46c-150 0 -267.167 28 -351.5 84s-126.5 140 -126.5 252c0 52 15.667 98 47 138s68.666 72 111.999 96c-58.667 34 -88 89 -88 165c0 38.667 12.5 78.5 37.5 119.5s59.167 76.167 102.5 105.5c-61.333 32.667 -109.5 76.667 -144.5 132
s-52.5 117.666 -52.5 186.999c0 87.333 20 160.5 60 219.5s94.833 102.833 164.5 131.5s149.167 43 238.5 43c108.667 0 200.667 -23 276 -69c25.333 17.333 57.333 31.833 96 43.5s77.667 17.5 117 17.5h111v-175zM750.499 584.002
c39.667 35.333 59.499 96.332 59.499 182.999c0 78.667 -18.667 138.334 -56 179.001s-93.666 61 -168.999 61c-73.333 0 -132 -17.167 -176 -51.5s-66 -95.5 -66 -183.5c0 -70 19.167 -127.667 57.5 -173s96.5 -68 174.5 -68c77.333 0 135.833 17.667 175.5 53z
M396.998 7.00098c-22.667 -20 -40.5 -42.333 -53.5 -67s-19.5 -56.334 -19.5 -95.001c0 -71.333 21.167 -124.333 63.5 -159s110.833 -52 205.5 -52c60.667 0 116.5 6.66699 167.5 20s91.833 33 122.5 59s46 57.333 46 94c0 44 -7.83301 79.833 -23.5 107.5
s-44 48.834 -85 63.501s-98.833 22 -173.5 22h-102c-60.667 0 -110 2.33301 -148 7z" />
    <glyph glyph-name="Gbreve" unicode="&#x11e;" horiz-adv-x="1433" 
d="M618 1970c0.666992 -22 4.16895 -44.168 10.502 -66.501s23.5 -44.333 51.5 -66s70.333 -32.5 127 -32.5c80.667 0 132.667 18.333 156 55s35.666 73.334 36.999 110.001h149c0.666992 -6.66699 1 -16.667 1 -30c0 -56 -14.333 -107.5 -43 -154.5s-69 -84.333 -121 -112
s-111.667 -41.5 -179 -41.5c-70.667 0 -131.834 13.667 -183.501 41s-91.167 64.5 -118.5 111.5s-41 98.833 -41 155.5c0 13.333 0.333008 23.333 1 30h153zM1317 760.999l0.000976562 -667c-13.333 -0.666992 -27.5 -3.33398 -42.5 -8.00098s-34.833 -12 -59.5 -22
c-62 -24 -123.333 -43.333 -184 -58s-136.334 -22 -227.001 -22c-146.667 0 -273 33 -379 99s-186.833 157.167 -242.5 273.5s-83.5 248.5 -83.5 396.5c0 168.667 30.833 312 92.5 430s145.667 206.667 252 266s226.5 89 360.5 89c76.667 0 138 -3.33301 184 -10
s96.333 -16.667 151 -30c38.667 -9.33301 69 -16 91 -20l-10 -200c-55.333 28.667 -115 50.167 -179 64.5s-147.667 21.5 -251 21.5c-88.667 0 -167.834 -23.333 -237.501 -70s-124.167 -114 -163.5 -202s-59 -192 -59 -312c0 -120.667 17.333 -228 52 -322
s87.334 -168.167 158.001 -222.5s157.667 -81.5 261 -81.5c59.333 0 117.5 4.83301 174.5 14.5s99.167 23.834 126.5 42.501v377l-277 13v160h492z" />
    <glyph glyph-name="gbreve" unicode="&#x11f;" 
d="M1187 973l-209.001 0.00195312c34 -57.333 51 -123.333 51 -198c0 -82 -20 -152.5 -60 -211.5s-94.667 -103.667 -164 -134s-147.666 -45.5 -234.999 -45.5c-45.333 0 -86.666 4.33301 -123.999 13c-18.667 -12.667 -34 -29.334 -46 -50.001s-18 -42 -18 -64
c0 -42 9.5 -70.833 28.5 -86.5s52.833 -23.5 101.5 -23.5h207c158 0 267.5 -29.5 328.5 -88.5s91.5 -135.5 91.5 -229.5c0 -74 -24.667 -139.167 -74 -195.5s-115.833 -99.833 -199.5 -130.5s-176.167 -46 -277.5 -46c-150 0 -267.167 28 -351.5 84s-126.5 140 -126.5 252
c0 52 15.667 98 47 138s68.666 72 111.999 96c-58.667 34 -88 89 -88 165c0 38.667 12.5 78.5 37.5 119.5s59.167 76.167 102.5 105.5c-61.333 32.667 -109.5 76.667 -144.5 132s-52.5 117.666 -52.5 186.999c0 87.333 20 160.5 60 219.5s94.833 102.833 164.5 131.5
s149.167 43 238.5 43c108.667 0 200.667 -23 276 -69c25.333 17.333 57.333 31.833 96 43.5s77.667 17.5 117 17.5h111v-175zM750.499 584.002c39.667 35.333 59.499 96.332 59.499 182.999c0 78.667 -18.667 138.334 -56 179.001s-93.666 61 -168.999 61
c-73.333 0 -132 -17.167 -176 -51.5s-66 -95.5 -66 -183.5c0 -70 19.167 -127.667 57.5 -173s96.5 -68 174.5 -68c77.333 0 135.833 17.667 175.5 53zM396.998 7.00098c-22.667 -20 -40.5 -42.333 -53.5 -67s-19.5 -56.334 -19.5 -95.001
c0 -71.333 21.167 -124.333 63.5 -159s110.833 -52 205.5 -52c60.667 0 116.5 6.66699 167.5 20s91.833 33 122.5 59s46 57.333 46 94c0 44 -7.83301 79.833 -23.5 107.5s-44 48.834 -85 63.501s-98.833 22 -173.5 22h-102c-60.667 0 -110 2.33301 -148 7zM407.998 1685
c0.666992 -26.667 4.16602 -53.833 10.499 -81.5s23.5 -55.167 51.5 -82.5s70.667 -41 128 -41c80 0 131.5 22.833 154.5 68.5s35.5 91.167 37.5 136.5h150c0.666992 -6.66699 1 -17 1 -31c0 -60 -14.667 -116.5 -44 -169.5s-70.166 -95.667 -122.499 -128
s-111.5 -48.5 -177.5 -48.5c-69.333 0 -130 16 -182 48s-92 74.5 -120 127.5s-42 109.833 -42 170.5c0 14 0.333008 24.333 1 31h154z" />
    <glyph glyph-name="Gdotaccent" unicode="&#x120;" horiz-adv-x="1433" 
d="M682 1879.5c15.333 23.667 35.5 42.333 60.5 56s50.5 20.5 76.5 20.5c45.333 0 79.833 -12.333 103.5 -37s35.5 -56.667 35.5 -96c0 -30 -7.5 -56.667 -22.5 -80s-34.667 -41.5 -59 -54.5s-50.5 -19.5 -78.5 -19.5c-38.667 0 -71.5 12.167 -98.5 36.5
s-40.5 56.5 -40.5 96.5c0 28 7.66699 53.833 23 77.5zM1317 760.999l0.000976562 -667c-13.333 -0.666992 -27.5 -3.33398 -42.5 -8.00098s-34.833 -12 -59.5 -22c-62 -24 -123.333 -43.333 -184 -58s-136.334 -22 -227.001 -22c-146.667 0 -273 33 -379 99
s-186.833 157.167 -242.5 273.5s-83.5 248.5 -83.5 396.5c0 168.667 30.833 312 92.5 430s145.667 206.667 252 266s226.5 89 360.5 89c76.667 0 138 -3.33301 184 -10s96.333 -16.667 151 -30c38.667 -9.33301 69 -16 91 -20l-10 -200
c-55.333 28.667 -115 50.167 -179 64.5s-147.667 21.5 -251 21.5c-88.667 0 -167.834 -23.333 -237.501 -70s-124.167 -114 -163.5 -202s-59 -192 -59 -312c0 -120.667 17.333 -228 52 -322s87.334 -168.167 158.001 -222.5s157.667 -81.5 261 -81.5
c59.333 0 117.5 4.83301 174.5 14.5s99.167 23.834 126.5 42.501v377l-277 13v160h492z" />
    <glyph glyph-name="gdotaccent" unicode="&#x121;" 
d="M1187 973l-209.001 0.00195312c34 -57.333 51 -123.333 51 -198c0 -82 -20 -152.5 -60 -211.5s-94.667 -103.667 -164 -134s-147.666 -45.5 -234.999 -45.5c-45.333 0 -86.666 4.33301 -123.999 13c-18.667 -12.667 -34 -29.334 -46 -50.001s-18 -42 -18 -64
c0 -42 9.5 -70.833 28.5 -86.5s52.833 -23.5 101.5 -23.5h207c158 0 267.5 -29.5 328.5 -88.5s91.5 -135.5 91.5 -229.5c0 -74 -24.667 -139.167 -74 -195.5s-115.833 -99.833 -199.5 -130.5s-176.167 -46 -277.5 -46c-150 0 -267.167 28 -351.5 84s-126.5 140 -126.5 252
c0 52 15.667 98 47 138s68.666 72 111.999 96c-58.667 34 -88 89 -88 165c0 38.667 12.5 78.5 37.5 119.5s59.167 76.167 102.5 105.5c-61.333 32.667 -109.5 76.667 -144.5 132s-52.5 117.666 -52.5 186.999c0 87.333 20 160.5 60 219.5s94.833 102.833 164.5 131.5
s149.167 43 238.5 43c108.667 0 200.667 -23 276 -69c25.333 17.333 57.333 31.833 96 43.5s77.667 17.5 117 17.5h111v-175zM750.499 584.002c39.667 35.333 59.499 96.332 59.499 182.999c0 78.667 -18.667 138.334 -56 179.001s-93.666 61 -168.999 61
c-73.333 0 -132 -17.167 -176 -51.5s-66 -95.5 -66 -183.5c0 -70 19.167 -127.667 57.5 -173s96.5 -68 174.5 -68c77.333 0 135.833 17.667 175.5 53zM396.998 7.00098c-22.667 -20 -40.5 -42.333 -53.5 -67s-19.5 -56.334 -19.5 -95.001
c0 -71.333 21.167 -124.333 63.5 -159s110.833 -52 205.5 -52c60.667 0 116.5 6.66699 167.5 20s91.833 33 122.5 59s46 57.333 46 94c0 44 -7.83301 79.833 -23.5 107.5s-44 48.834 -85 63.501s-98.833 22 -173.5 22h-102c-60.667 0 -110 2.33301 -148 7zM468.498 1560
c15.667 24 36.167 42.998 61.5 56.998s51 21 77 21c45.333 0 80.166 -12.667 104.499 -38s36.5 -57.666 36.5 -96.999c0 -29.333 -7.66699 -56 -23 -80s-35.333 -42.667 -60 -56s-51 -20 -79 -20c-25.333 0 -48.666 5.5 -69.999 16.5s-38.5 26.833 -51.5 47.5
s-19.5 44.334 -19.5 71.001c0 28 7.83301 54 23.5 78z" />
    <glyph glyph-name="Gcommaaccent" unicode="&#x122;" horiz-adv-x="1433" 
d="M717 -493c10.667 12.667 19.833 32.332 27.5 58.999s11.5 55.334 11.5 86.001c0 27.333 -6.33301 53.833 -19 79.5s-28.667 40.5 -48 44.5v50l158 92c26.667 -12.667 49.5 -38 68.5 -76s28.5 -83.333 28.5 -136c0 -43.333 -8 -83.5 -24 -120.5s-35.667 -68 -59 -93
s-46.333 -42.5 -69 -52.5l-75 41v26zM1317 760.998l0.000976562 -667c-13.333 -0.666992 -27.5 -3.33398 -42.5 -8.00098s-34.833 -12 -59.5 -22c-62 -24 -123.333 -43.333 -184 -58s-136.334 -22 -227.001 -22c-146.667 0 -273 33 -379 99s-186.833 157.167 -242.5 273.5
s-83.5 248.5 -83.5 396.5c0 168.667 30.833 312 92.5 430s145.667 206.667 252 266s226.5 89 360.5 89c76.667 0 138 -3.33301 184 -10s96.333 -16.667 151 -30c38.667 -9.33301 69 -16 91 -20l-10 -200c-55.333 28.667 -115 50.167 -179 64.5s-147.667 21.5 -251 21.5
c-88.667 0 -167.834 -23.333 -237.501 -70s-124.167 -114 -163.5 -202s-59 -192 -59 -312c0 -120.667 17.333 -228 52 -322s87.334 -168.167 158.001 -222.5s157.667 -81.5 261 -81.5c59.333 0 117.5 4.83301 174.5 14.5s99.167 23.834 126.5 42.501v377l-277 13v160h492z
" />
    <glyph glyph-name="gcommaaccent" unicode="&#x123;" 
d="M499.5 1400c-19 38 -28.499 83.335 -28.499 136.002c0 43.333 8 83.5 24 120.5s35.667 68 59 93s46.333 42.5 69 52.5l75 -41v-26c-10.667 -12.667 -19.834 -32.334 -27.501 -59.001s-11.5 -55.334 -11.5 -86.001c0 -27.333 6.33301 -53.833 19 -79.5
s28.667 -40.5 48 -44.5v-50l-158 -92c-26.667 12.667 -49.5 38 -68.5 76zM1187 973.002l-209.001 0.00195312c34 -57.333 51 -123.333 51 -198c0 -82 -20 -152.5 -60 -211.5s-94.667 -103.667 -164 -134s-147.666 -45.5 -234.999 -45.5
c-45.333 0 -86.666 4.33301 -123.999 13c-18.667 -12.667 -34 -29.334 -46 -50.001s-18 -42 -18 -64c0 -42 9.5 -70.833 28.5 -86.5s52.833 -23.5 101.5 -23.5h207c158 0 267.5 -29.5 328.5 -88.5s91.5 -135.5 91.5 -229.5c0 -74 -24.667 -139.167 -74 -195.5
s-115.833 -99.833 -199.5 -130.5s-176.167 -46 -277.5 -46c-150 0 -267.167 28 -351.5 84s-126.5 140 -126.5 252c0 52 15.667 98 47 138s68.666 72 111.999 96c-58.667 34 -88 89 -88 165c0 38.667 12.5 78.5 37.5 119.5s59.167 76.167 102.5 105.5
c-61.333 32.667 -109.5 76.667 -144.5 132s-52.5 117.666 -52.5 186.999c0 87.333 20 160.5 60 219.5s94.833 102.833 164.5 131.5s149.167 43 238.5 43c108.667 0 200.667 -23 276 -69c25.333 17.333 57.333 31.833 96 43.5s77.667 17.5 117 17.5h111v-175zM750.5 584.004
c39.667 35.333 59.499 96.332 59.499 182.999c0 78.667 -18.667 138.334 -56 179.001s-93.666 61 -168.999 61c-73.333 0 -132 -17.167 -176 -51.5s-66 -95.5 -66 -183.5c0 -70 19.167 -127.667 57.5 -173s96.5 -68 174.5 -68c77.333 0 135.833 17.667 175.5 53z
M396.999 7.00293c-22.667 -20 -40.5 -42.333 -53.5 -67s-19.5 -56.334 -19.5 -95.001c0 -71.333 21.167 -124.333 63.5 -159s110.833 -52 205.5 -52c60.667 0 116.5 6.66699 167.5 20s91.833 33 122.5 59s46 57.333 46 94c0 44 -7.83301 79.833 -23.5 107.5
s-44 48.834 -85 63.501s-98.833 22 -173.5 22h-102c-60.667 0 -110 2.33301 -148 7z" />
    <glyph glyph-name="Hcircumflex" unicode="&#x124;" horiz-adv-x="1552" 
d="M417 1522v-667h718v667h223v-1522h-223v683h-718v-683h-223v1522h223zM677 1990h197l262 -298l-144 -60l-216 202l-221 -202l-137 57z" />
    <glyph glyph-name="hcircumflex" unicode="&#x125;" horiz-adv-x="1289" 
d="M976.5 1109.5c49 -31.667 84.998 -81.3359 107.998 -149.003s34.5 -156.167 34.5 -265.5v-695h-220v711c0 64.667 -6.5 116.334 -19.5 155.001s-35.667 66.834 -68 84.501s-77.166 25.167 -134.499 22.5c-40 -1.33301 -86 -11.166 -138 -29.499
s-99.667 -43.166 -143 -74.499v-869h-220v1664h220v-475l-10 -161c49.333 35.333 110.833 65.666 184.5 90.999s144.834 38 213.501 38c79.333 0 143.5 -15.833 192.5 -47.5zM654.998 1990h197l262 -298l-144 -60l-216 202l-221 -202l-137 57z" />
    <glyph glyph-name="Hbar" unicode="&#x126;" horiz-adv-x="1563" 
d="M1558 1065h-189v-1065h-223v674h-729v-674h-223v1065h-186v142h186v315h223v-315h729v315h223v-315h189v-142zM1146 1065h-729v-220h729v220z" />
    <glyph glyph-name="hbar" unicode="&#x127;" horiz-adv-x="1289" 
d="M976.5 1109.5c49 -31.667 84.998 -81.3359 107.998 -149.003s34.5 -156.167 34.5 -265.5v-695h-220v711c0 64.667 -6.5 116.334 -19.5 155.001s-35.667 66.834 -68 84.501s-77.166 25.167 -134.499 22.5c-40 -1.33301 -86 -11.166 -138 -29.499
s-99.667 -43.166 -143 -74.499v-869h-220v1284h-140v132h140v248h220v-248h232v-132h-232v-95l-10 -161c49.333 35.333 110.833 65.666 184.5 90.999s144.834 38 213.501 38c79.333 0 143.5 -15.833 192.5 -47.5z" />
    <glyph glyph-name="Itilde" unicode="&#x128;" horiz-adv-x="640" 
d="M433 1522v-1522h-226v1522h226zM-26 1871c30.667 30 65 53.334 103 70.001s74.667 25 110 25c38.667 0 70.667 -7 96 -21s53 -34 83 -60c23.333 -20 42.833 -34.667 58.5 -44s33.5 -14 53.5 -14c32.667 0 63.334 9.33301 92.001 28s56.334 42.334 83.001 71.001l86 -71
c-15.333 -36.667 -38.333 -69.834 -69 -99.501s-64.834 -52.834 -102.501 -69.501s-74.167 -25 -109.5 -25c-38.667 0 -70.834 7.16699 -96.501 21.5s-53.167 34.833 -82.5 61.5c-22.667 20.667 -42.167 36 -58.5 46s-34.833 15 -55.5 15c-54.667 0 -113 -34 -175 -102
l-85 68c15.333 36.667 38.333 70 69 100z" />
    <glyph glyph-name="itilde" unicode="&#x129;" horiz-adv-x="606" 
d="M413 1138v-1138h-220v1138h220zM-52 1549.5c27.333 29.667 58.8311 53.498 94.498 71.498s72.834 27 111.501 27c39.333 0 72.166 -6.83301 98.499 -20.5s54.5 -33.5 84.5 -59.5c22.667 -19.333 41.834 -33.666 57.501 -42.999s33.834 -14 54.501 -14
c40 0 73.5 8.66699 100.5 26s54.5 41.333 82.5 72l86 -72c-27.333 -56.667 -64.666 -103 -111.999 -139s-100 -54 -158 -54c-42.667 0 -77.167 7.16699 -103.5 21.5s-54.166 34.5 -83.499 60.5c-22 19.333 -40.5 33.5 -55.5 42.5s-32.833 13.5 -53.5 13.5
c-36 0 -68.833 -9.16699 -98.5 -27.5s-57.834 -41.5 -84.501 -69.5l-85 68c15.333 34.667 36.666 66.834 63.999 96.501z" />
    <glyph glyph-name="Imacron" unicode="&#x12a;" horiz-adv-x="640" 
d="M433 1522v-1522h-226v1522h226zM597 1891v-162h-547v162h547z" />
    <glyph glyph-name="imacron" unicode="&#x12b;" horiz-adv-x="606" 
d="M413 1138v-1138h-220v1138h220zM578 1588v-163h-547v163h547z" />
    <glyph glyph-name="Ibreve" unicode="&#x12c;" horiz-adv-x="640" 
d="M433 1522v-1522h-226v1522h226zM132 1970c0.666992 -22 4.16895 -44.168 10.502 -66.501s23.5 -44.333 51.5 -66s70.333 -32.5 127 -32.5c80.667 0 132.667 18.333 156 55s35.666 73.334 36.999 110.001h149c0.666992 -6.66699 1 -16.667 1 -30
c0 -56 -14.333 -107.5 -43 -154.5s-69 -84.333 -121 -112s-111.667 -41.5 -179 -41.5c-70.667 0 -131.834 13.667 -183.501 41s-91.167 64.5 -118.5 111.5s-41 98.833 -41 155.5c0 13.333 0.333008 23.333 1 30h153z" />
    <glyph glyph-name="ibreve" unicode="&#x12d;" horiz-adv-x="606" 
d="M413 1138v-1138h-220v1138h220zM114 1685c0.666992 -26.667 4.16602 -53.833 10.499 -81.5s23.5 -55.167 51.5 -82.5s70.667 -41 128 -41c80 0 131.5 22.833 154.5 68.5s35.5 91.167 37.5 136.5h150c0.666992 -6.66699 1 -17 1 -31c0 -60 -14.667 -116.5 -44 -169.5
s-70.166 -95.667 -122.499 -128s-111.5 -48.5 -177.5 -48.5c-69.333 0 -130 16 -182 48s-92 74.5 -120 127.5s-42 109.833 -42 170.5c0 14 0.333008 24.333 1 31h154z" />
    <glyph glyph-name="Iogonek" unicode="&#x12e;" horiz-adv-x="640" 
d="M536 -335l-0.00292969 -118c-27.333 -20.667 -60.666 -35.667 -99.999 -45s-81.666 -14 -126.999 -14c-50.667 0 -96.167 9 -136.5 27s-72 44 -95 78s-34.5 73.667 -34.5 119c0 54.667 19.333 108 58 160s85.334 94.667 140.001 128h-34v1522h226v-1522h-25
c-99.333 -63.333 -149 -144 -149 -242c0 -42.667 13 -73.667 39 -93s59 -29 99 -29c42.667 0 89 9.66699 139 29z" />
    <glyph glyph-name="iogonek" unicode="&#x12f;" horiz-adv-x="606" 
d="M225 1363.5c-21.333 11 -38.5 26.8311 -51.5 47.498s-19.5 44.334 -19.5 71.001c0 28 7.83301 54 23.5 78s36.167 43 61.5 57s51 21 77 21c45.333 0 80.166 -12.667 104.499 -38s36.5 -57.666 36.5 -96.999c0 -29.333 -7.66699 -56 -23 -80s-35.333 -42.667 -60 -56
s-51 -20 -79 -20c-25.333 0 -48.666 5.5 -69.999 16.5zM516 -335.002l-0.00292969 -118c-27.333 -20.667 -60.666 -35.667 -99.999 -45s-81.666 -14 -126.999 -14c-50.667 0 -96.167 9 -136.5 27s-72 44 -95 78s-34.5 73.667 -34.5 119c0 54.667 19.333 108 58 160
s85.334 94.667 140.001 128h-28v1138h220v-1138h-25c-99.333 -63.333 -149 -144 -149 -242c0 -42.667 13 -73.667 39 -93s59 -29 99 -29c42.667 0 89 9.66699 139 29z" />
    <glyph glyph-name="Idotaccent" unicode="&#x130;" horiz-adv-x="640" 
d="M433 1522v-1522h-226v1522h226zM196 1879.5c15.333 23.667 35.5 42.333 60.5 56s50.5 20.5 76.5 20.5c45.333 0 79.833 -12.333 103.5 -37s35.5 -56.667 35.5 -96c0 -30 -7.5 -56.667 -22.5 -80s-34.667 -41.5 -59 -54.5s-50.5 -19.5 -78.5 -19.5
c-38.667 0 -71.5 12.167 -98.5 36.5s-40.5 56.5 -40.5 96.5c0 28 7.66699 53.833 23 77.5z" />
    <glyph glyph-name="dotlessi" unicode="&#x131;" horiz-adv-x="606" 
d="M413 1138v-1138h-220v1138h220z" />
    <glyph glyph-name="IJ" unicode="&#x132;" horiz-adv-x="1353" 
d="M433 1522v-1522h-226v1522h226zM769 -111.5c52 46.333 87.665 105.5 106.998 177.5c14 50.667 22.833 115.5 26.5 194.5s5.5 182.833 5.5 311.5v36v914h226v-909l1 -214c0 -66 -1.33301 -124 -4 -174s-8 -96.333 -16 -139c-14.667 -81.333 -46.167 -152 -94.5 -212
s-104.166 -107 -167.499 -141s-125.666 -55.667 -186.999 -65l-68 117c62 22.667 119 57.167 171 103.5z" />
    <glyph glyph-name="ij" unicode="&#x133;" horiz-adv-x="1180" 
d="M413 1138v-1138h-220v1138h220zM174.5 1560c15.667 24 36.167 42.998 61.5 56.998s51 21 77 21c45.333 0 80.166 -12.667 104.499 -38s36.5 -57.666 36.5 -96.999c0 -29.333 -7.66699 -56 -23 -80s-35.333 -42.667 -60 -56s-51 -20 -79 -20
c-25.333 0 -48.666 5.5 -69.999 16.5s-38.5 26.833 -51.5 47.5s-19.5 44.334 -19.5 71.001c0 28 7.83301 54 23.5 78zM581 -346.002c25.333 -4.66699 46.333 -7 63 -7c58 0 98.333 24.667 121 74s34 126.333 34 231v1186h220v-1101c0 -191.333 -29.5 -329.833 -88.5 -415.5
s-147.167 -128.5 -264.5 -128.5c-22 0 -49 1.16699 -81 3.5s-51.333 5.5 -58 9.5v163c10.667 -5.33301 28.667 -10.333 54 -15zM784.5 1560c15.667 24 36.167 42.998 61.5 56.998s51 21 77 21c45.333 0 80.166 -12.667 104.499 -38s36.5 -57.666 36.5 -96.999
c0 -29.333 -7.66699 -56 -23 -80s-35.333 -42.667 -60 -56s-51 -20 -79 -20c-25.333 0 -48.666 5.5 -69.999 16.5s-38.5 26.833 -51.5 47.5s-19.5 44.334 -19.5 71.001c0 28 7.83301 54 23.5 78z" />
    <glyph glyph-name="Jcircumflex" unicode="&#x134;" horiz-adv-x="713" 
d="M129 -111.5c52 46.333 87.665 105.5 106.998 177.5c14 50.667 22.833 115.5 26.5 194.5s5.5 182.833 5.5 311.5v36v914h226v-909l1 -214c0 -66 -1.33301 -124 -4 -174s-8 -96.333 -16 -139c-14.667 -81.333 -46.167 -152 -94.5 -212s-104.166 -107 -167.499 -141
s-125.666 -55.667 -186.999 -65l-68 117c62 22.667 119 57.167 171 103.5zM276.998 1990h197l262 -298l-144 -60l-216 202l-221 -202l-137 57z" />
    <glyph glyph-name="jcircumflex" unicode="&#x135;" horiz-adv-x="574" 
d="M-25 -346c25.333 -4.66699 46.333 -7 63 -7c58 0 98.333 24.667 121 74s34 126.333 34 231v1186h220v-1101c0 -191.333 -29.5 -329.833 -88.5 -415.5s-147.167 -128.5 -264.5 -128.5c-22 0 -49 1.16699 -81 3.5s-51.333 5.5 -58 9.5v163
c10.667 -5.33301 28.667 -10.333 54 -15zM209 1682h198l268 -332l-135 -56l-232 222l-249 -223l-126 56z" />
    <glyph glyph-name="Kcommaaccent" unicode="&#x136;" horiz-adv-x="1371" 
d="M605 -493c10.667 12.667 19.833 32.332 27.5 58.999s11.5 55.334 11.5 86.001c0 27.333 -6.33301 53.833 -19 79.5s-28.667 40.5 -48 44.5v50l158 92c26.667 -12.667 49.5 -38 68.5 -76s28.5 -83.333 28.5 -136c0 -43.333 -8 -83.5 -24 -120.5s-35.667 -68 -59 -93
s-46.333 -42.5 -69 -52.5l-75 41v26zM1302 -0.00195312l-256.999 0.00195312c-6.66699 10 -15.334 25.333 -26.001 46c-11.333 24.667 -23 47 -35 67c-27.333 49.333 -59 102.166 -95 158.499l-144 218.5l-69 104l-69 107l-190 -220v-481h-223v1522h223v-764l603 764h263
l-539 -656c22 -36.667 54.833 -87.334 98.5 -152.001l83.5 -123l192.5 -287.5c47.667 -72.333 87.167 -136.833 118.5 -193.5z" />
    <glyph glyph-name="kcommaaccent" unicode="&#x137;" horiz-adv-x="1163" 
d="M521 -493c10.667 12.667 19.833 32.332 27.5 58.999s11.5 55.334 11.5 86.001c0 27.333 -6.33301 53.833 -19 79.5s-28.667 40.5 -48 44.5v50l158 92c26.667 -12.667 49.5 -38 68.5 -76s28.5 -83.333 28.5 -136c0 -43.333 -8 -83.5 -24 -120.5s-35.667 -68 -59 -93
s-46.333 -42.5 -69 -52.5l-75 41v26zM523.999 541.998l-141 -148l5 -171v-223h-220v1661h220v-910l-4 -112l455 501h259l-430 -449l483 -691h-250z" />
    <glyph glyph-name="kgreenlandic" unicode="&#x138;" horiz-adv-x="1169" 
d="M551 504l-153 -168l6 -146v-190h-220l-3 1140h220v-481l-3 -80l480 561h251l-439 -482l478 -658h-251z" />
    <glyph glyph-name="Lacute" unicode="&#x139;" horiz-adv-x="1080" 
d="M376 1843.5c94.667 85.667 143 131.166 145 136.499l146 -133c-49.333 -50.667 -114 -104.167 -194 -160.5s-147.333 -94.166 -202 -113.499l-93 92zM422 1522v-1347h604v-175h-832v1522h228z" />
    <glyph glyph-name="lacute" unicode="&#x13a;" horiz-adv-x="631" 
d="M382 1843.5c94.667 85.667 143 131.166 145 136.499l146 -133c-49.333 -50.667 -114 -104.167 -194 -160.5s-147.333 -94.166 -202 -113.499l-93 92zM417 1532v-1532h-220v1532h220z" />
    <glyph glyph-name="Lcommaaccent" unicode="&#x13b;" horiz-adv-x="1080" 
d="M516 -493c10.667 12.667 19.833 32.332 27.5 58.999s11.5 55.334 11.5 86.001c0 27.333 -6.33301 53.833 -19 79.5s-28.667 40.5 -48 44.5v50l158 92c26.667 -12.667 49.5 -38 68.5 -76s28.5 -83.333 28.5 -136c0 -43.333 -8 -83.5 -24 -120.5s-35.667 -68 -59 -93
s-46.333 -42.5 -69 -52.5l-75 41v26zM421.999 1522v-1347h604v-175h-832v1522h228z" />
    <glyph glyph-name="lcommaaccent" unicode="&#x13c;" horiz-adv-x="613" 
d="M202 -493c10.667 12.667 19.833 32.332 27.5 58.999s11.5 55.334 11.5 86.001c0 27.333 -6.33301 53.833 -19 79.5s-28.667 40.5 -48 44.5v50l158 92c26.667 -12.667 49.5 -38 68.5 -76s28.5 -83.333 28.5 -136c0 -43.333 -8 -83.5 -24 -120.5s-35.667 -68 -59 -93
s-46.333 -42.5 -69 -52.5l-75 41v26zM416.999 1664v-1664h-220v1664h220z" />
    <glyph glyph-name="Lcaron" unicode="&#x13d;" horiz-adv-x="1080" 
d="M422 1522v-1347h604v-175h-832v1522h228zM728 1096l12 41c12 38 21 73.833 27 107.5s9 79.834 9 138.501c0 37.333 -5.83301 76.166 -17.5 116.499s-24.167 68.833 -37.5 85.5l14 47l176 55c20.667 -18.667 36.167 -49.5 46.5 -92.5s15.5 -92.5 15.5 -148.5
c0 -83.333 -12.333 -162.333 -37 -237s-54.667 -133 -90 -175l-110 34z" />
    <glyph glyph-name="lcaron" unicode="&#x13e;" horiz-adv-x="790" 
d="M417 1664v-1664h-220v1664h220zM570 1096l12 41c12 38 21 73.833 27 107.5s9 79.834 9 138.501c0 37.333 -5.83301 76.166 -17.5 116.499s-24.167 68.833 -37.5 85.5l14 47l176 55c20.667 -18.667 36.167 -49.5 46.5 -92.5s15.5 -92.5 15.5 -148.5
c0 -83.333 -12.333 -162.333 -37 -237s-54.667 -133 -90 -175l-110 34z" />
    <glyph glyph-name="Ldot" unicode="&#x13f;" horiz-adv-x="1357" 
d="M928 924c15.333 26 35.332 46.8311 59.999 62.498s50.667 23.5 78 23.5c46.667 0 82.834 -15 108.501 -45s38.5 -67 38.5 -111c0 -31.333 -7.5 -60 -22.5 -86s-35 -46.5 -60 -61.5s-51.5 -22.5 -79.5 -22.5c-25.333 0 -49.333 6.83301 -72 20.5
s-40.667 32.334 -54 56.001s-20 49.834 -20 78.501c0 30.667 7.66699 59 23 85zM421.999 1522v-1347h604v-175h-832v1522h228z" />
    <glyph glyph-name="ldot" unicode="&#x140;" horiz-adv-x="1026" 
d="M417 1664v-1664h-220v1664h220zM695 929c15.333 26 35.332 46.8311 59.999 62.498s50.667 23.5 78 23.5c46.667 0 82.834 -15 108.501 -45s38.5 -67 38.5 -111c0 -31.333 -7.5 -60 -22.5 -86s-35 -46.5 -60 -61.5s-51.5 -22.5 -79.5 -22.5
c-25.333 0 -49.333 6.83301 -72 20.5s-40.667 32.334 -54 56.001s-20 49.834 -20 78.501c0 30.667 7.66699 59 23 85z" />
    <glyph glyph-name="Lslash" unicode="&#x141;" horiz-adv-x="1080" 
d="M1026 175v-175h-832v613l-123 -45l-53 136l176 65v753h228v-669l390 144l53 -138l-443 -162v-522h604z" />
    <glyph glyph-name="lslash" unicode="&#x142;" horiz-adv-x="613" 
d="M596 990l-179 -69v-921h-220v837l-167 -64v151l167 67v673h220v-585l179 72v-161z" />
    <glyph glyph-name="Nacute" unicode="&#x143;" horiz-adv-x="1556" 
d="M862 1843.5c94.667 85.667 143 131.166 145 136.499l146 -133c-49.333 -50.667 -114 -104.167 -194 -160.5s-147.333 -94.166 -202 -113.499l-93 92zM1363 1522v-1522h-207l-630 967l-140 249l12 -264v-952h-205v1522h204l651 -1005l124 -225l-14 253v977h205z" />
    <glyph glyph-name="nacute" unicode="&#x144;" horiz-adv-x="1279" 
d="M601 1407l187.498 210.503c45.667 53 88.834 108.167 129.501 165.5l156 -135c-16 -26.667 -50.333 -66.834 -103 -120.501s-106.667 -103.834 -162 -150.501s-94.666 -74.334 -117.999 -83.001l-111 90zM371.998 1138l1 -120.001c52 35.333 116.5 67.333 193.5 96
s150.5 43 220.5 43c78.667 0 141.334 -14.667 188.001 -44s80.667 -76.333 102 -141s32 -152 32 -262v-710h-220v711c0 64 -5 114.833 -15 152.5s-28.333 65.834 -55 84.501s-65.334 28 -116.001 28c-12 0 -21 -0.333008 -27 -1c-40 -1.33301 -85.833 -11.5 -137.5 -30.5
s-99.167 -44.167 -142.5 -75.5v-869h-220v1138h196z" />
    <glyph glyph-name="Ncommaaccent" unicode="&#x145;" horiz-adv-x="1556" 
d="M656 -493c10.667 12.667 19.833 32.332 27.5 58.999s11.5 55.334 11.5 86.001c0 27.333 -6.33301 53.833 -19 79.5s-28.667 40.5 -48 44.5v50l158 92c26.667 -12.667 49.5 -38 68.5 -76s28.5 -83.333 28.5 -136c0 -43.333 -8 -83.5 -24 -120.5s-35.667 -68 -59 -93
s-46.333 -42.5 -69 -52.5l-75 41v26zM1363 1522v-1522h-207l-630 967l-140 249l12 -264v-952h-205v1522h204l651 -1005l124 -225l-14 253v977h205z" />
    <glyph glyph-name="ncommaaccent" unicode="&#x146;" horiz-adv-x="1279" 
d="M566 -493c10.667 12.667 19.833 32.332 27.5 58.999s11.5 55.334 11.5 86.001c0 27.333 -6.33301 53.833 -19 79.5s-28.667 40.5 -48 44.5v50l158 92c26.667 -12.667 49.5 -38 68.5 -76s28.5 -83.333 28.5 -136c0 -43.333 -8 -83.5 -24 -120.5s-35.667 -68 -59 -93
s-46.333 -42.5 -69 -52.5l-75 41v26zM371.999 1138l1 -120.001c52 35.333 116.5 67.333 193.5 96s150.5 43 220.5 43c78.667 0 141.334 -14.667 188.001 -44s80.667 -76.333 102 -141s32 -152 32 -262v-710h-220v711c0 64 -5 114.833 -15 152.5s-28.333 65.834 -55 84.501
s-65.334 28 -116.001 28c-12 0 -21 -0.333008 -27 -1c-40 -1.33301 -85.833 -11.5 -137.5 -30.5s-99.167 -44.167 -142.5 -75.5v-869h-220v1138h196z" />
    <glyph glyph-name="Ncaron" unicode="&#x147;" horiz-adv-x="1556" 
d="M577 1990l216 -174l221 174l120 -57l-242 -263h-197l-246 260zM1363 1522v-1522h-207l-630 967l-140 249l12 -264v-952h-205v1522h204l651 -1005l124 -225l-14 253v977h205z" />
    <glyph glyph-name="ncaron" unicode="&#x148;" horiz-adv-x="1279" 
d="M713 1487l232 222l135 -56l-268 -332h-198l-276 333l126 56zM372 1138l1 -120.001c52 35.333 116.5 67.333 193.5 96s150.5 43 220.5 43c78.667 0 141.334 -14.667 188.001 -44s80.667 -76.333 102 -141s32 -152 32 -262v-710h-220v711c0 64 -5 114.833 -15 152.5
s-28.333 65.834 -55 84.501s-65.334 28 -116.001 28c-12 0 -21 -0.333008 -27 -1c-40 -1.33301 -85.833 -11.5 -137.5 -30.5s-99.167 -44.167 -142.5 -75.5v-869h-220v1138h196z" />
    <glyph glyph-name="napostrophe" unicode="&#x149;" horiz-adv-x="1279" 
d="M566 -493c10.667 12.667 19.833 32.332 27.5 58.999s11.5 55.334 11.5 86.001c0 27.333 -6.33301 53.833 -19 79.5s-28.667 40.5 -48 44.5v50l158 92c26.667 -12.667 49.5 -38 68.5 -76s28.5 -83.333 28.5 -136c0 -43.333 -8 -83.5 -24 -120.5s-35.667 -68 -59 -93
s-46.333 -42.5 -69 -52.5l-75 41v26zM371.999 1138l1 -120.001c52 35.333 116.5 67.333 193.5 96s150.5 43 220.5 43c78.667 0 141.334 -14.667 188.001 -44s80.667 -76.333 102 -141s32 -152 32 -262v-710h-220v711c0 64 -5 114.833 -15 152.5s-28.333 65.834 -55 84.501
s-65.334 28 -116.001 28c-12 0 -21 -0.333008 -27 -1c-40 -1.33301 -85.833 -11.5 -137.5 -30.5s-99.167 -44.167 -142.5 -75.5v-869h-220v1138h196z" />
    <glyph glyph-name="Eng" unicode="&#x14a;" horiz-adv-x="1584" 
d="M1390 400c0 -78 -1.49902 -143.67 -4.49902 -197.003s-9.5 -103 -19.5 -149c-17.333 -86 -55 -162.167 -113 -228.5s-125.333 -119.166 -202 -158.499s-152.334 -63.666 -227.001 -72.999l-57 105c58.667 16.667 118 43.834 178 81.501s109.667 80 149 127
s59 92.833 59 137.5l-628 931l-123 218l10 -239v-955h-217l-2 1522h205l677 -1014l111 -207l-15 240v981h219v-983v-139z" />
    <glyph glyph-name="eng" unicode="&#x14b;" horiz-adv-x="1279" 
d="M371 1138l1.00195 -119.999c50 34 111.833 65.167 185.5 93.5s144.5 43.5 212.5 45.5c83.333 2 149.333 -10.833 198 -38.5s84.167 -73.834 106.5 -138.501s33.833 -153.334 34.5 -266.001v-730c0 -160 -26.667 -281.833 -80 -365.5s-132.333 -125.5 -237 -125.5
c-22.667 0 -52 1.5 -88 4.5s-58 6.16699 -66 9.5v152c9.33301 -3.33301 26 -6 50 -8s43.333 -3 58 -3c39.333 0 69.166 9.16699 89.499 27.5s34.333 49 42 92s11.5 105.5 11.5 187.5v756c0 66.667 -5.5 118.834 -16.5 156.501s-31.5 65.334 -61.5 83.001
s-73.333 25.167 -130 22.5c-40 -1.33301 -86.833 -11.333 -140.5 -30s-101.834 -43.334 -144.501 -74.001v-869h-220v1138h195z" />
    <glyph glyph-name="Omacron" unicode="&#x14c;" horiz-adv-x="1569" 
d="M1084 1891v-162h-547v162h547zM193.5 1181c62.333 118.667 146.999 207.833 253.999 267.5s227.167 89.5 360.5 89.5c131.333 0 246.833 -31 346.5 -93s177 -149.833 232 -263.5s82.5 -246.167 82.5 -397.5c0 -171.333 -30.333 -317 -91 -437
s-144.167 -210.5 -250.5 -271.5s-228.166 -91.5 -365.499 -91.5c-132.667 0 -249 32.667 -349 98s-177.167 156 -231.5 272s-81.5 247.667 -81.5 395c0 169.333 31.167 313.333 93.5 432zM1192 1071c-34 90.667 -84.165 162.833 -150.498 216.5s-146.5 80.5 -240.5 80.5
c-88.667 0 -169 -22.5 -241 -67.5s-129.167 -113.167 -171.5 -204.5s-63.5 -204 -63.5 -338c0 -108 17.667 -207.833 53 -299.5s87.666 -165.167 156.999 -220.5s152.666 -83 249.999 -83c92.667 0 173.5 23.667 242.5 71s122.167 117.166 159.5 209.499s56 204.5 56 336.5
c0 108.667 -17 208.334 -51 299.001z" />
    <glyph glyph-name="omacron" unicode="&#x14d;" horiz-adv-x="1213" 
d="M891 1588v-163h-547v163h547zM163 892.5c44.667 86.333 106.336 151.833 185.003 196.5s168 67 268 67c115.333 0 210.333 -26.667 285 -80s129.334 -124.666 164.001 -213.999s52 -190 52 -302c0 -122 -22.333 -226.333 -67 -313s-106.334 -152.167 -185.001 -196.5
s-168.334 -66.5 -269.001 -66.5c-114.667 0 -209.334 26.667 -284.001 80s-129.334 124.666 -164.001 213.999s-52 190 -52 302c0 122 22.333 226.167 67 312.5zM862.502 783.5c-21 66.333 -53.168 118.668 -96.501 157.001s-97.666 57.5 -162.999 57.5
c-92.667 0 -163.167 -35.167 -211.5 -105.5s-72.5 -170.833 -72.5 -301.5c0 -84.667 10.667 -161.167 32 -229.5s53.666 -122.333 96.999 -162s97 -59.5 161 -59.5c92.667 0 163.334 36.333 212.001 109s73 175 73 307c0 85.333 -10.5 161.166 -31.5 227.499z" />
    <glyph glyph-name="Obreve" unicode="&#x14e;" horiz-adv-x="1569" 
d="M619 1970c0.666992 -22 4.16895 -44.168 10.502 -66.501s23.5 -44.333 51.5 -66s70.333 -32.5 127 -32.5c80.667 0 132.667 18.333 156 55s35.666 73.334 36.999 110.001h149c0.666992 -6.66699 1 -16.667 1 -30c0 -56 -14.333 -107.5 -43 -154.5s-69 -84.333 -121 -112
s-111.667 -41.5 -179 -41.5c-70.667 0 -131.834 13.667 -183.501 41s-91.167 64.5 -118.5 111.5s-41 98.833 -41 155.5c0 13.333 0.333008 23.333 1 30h153zM193.502 1181c62.333 118.667 146.999 207.833 253.999 267.5s227.167 89.5 360.5 89.5
c131.333 0 246.833 -31 346.5 -93s177 -149.833 232 -263.5s82.5 -246.167 82.5 -397.5c0 -171.333 -30.333 -317 -91 -437s-144.167 -210.5 -250.5 -271.5s-228.166 -91.5 -365.499 -91.5c-132.667 0 -249 32.667 -349 98s-177.167 156 -231.5 272s-81.5 247.667 -81.5 395
c0 169.333 31.167 313.333 93.5 432zM1192 1071c-34 90.667 -84.165 162.833 -150.498 216.5s-146.5 80.5 -240.5 80.5c-88.667 0 -169 -22.5 -241 -67.5s-129.167 -113.167 -171.5 -204.5s-63.5 -204 -63.5 -338c0 -108 17.667 -207.833 53 -299.5
s87.666 -165.167 156.999 -220.5s152.666 -83 249.999 -83c92.667 0 173.5 23.667 242.5 71s122.167 117.166 159.5 209.499s56 204.5 56 336.5c0 108.667 -17 208.334 -51 299.001z" />
    <glyph glyph-name="obreve" unicode="&#x14f;" horiz-adv-x="1213" 
d="M163 892.5c44.667 86.333 106.336 151.833 185.003 196.5s168 67 268 67c115.333 0 210.333 -26.667 285 -80s129.334 -124.666 164.001 -213.999s52 -190 52 -302c0 -122 -22.333 -226.333 -67 -313s-106.334 -152.167 -185.001 -196.5s-168.334 -66.5 -269.001 -66.5
c-114.667 0 -209.334 26.667 -284.001 80s-129.334 124.666 -164.001 213.999s-52 190 -52 302c0 122 22.333 226.167 67 312.5zM862.502 783.5c-21 66.333 -53.168 118.668 -96.501 157.001s-97.666 57.5 -162.999 57.5c-92.667 0 -163.167 -35.167 -211.5 -105.5
s-72.5 -170.833 -72.5 -301.5c0 -84.667 10.667 -161.167 32 -229.5s53.666 -122.333 96.999 -162s97 -59.5 161 -59.5c92.667 0 163.334 36.333 212.001 109s73 175 73 307c0 85.333 -10.5 161.166 -31.5 227.499zM427.001 1685
c0.666992 -26.667 4.16602 -53.833 10.499 -81.5s23.5 -55.167 51.5 -82.5s70.667 -41 128 -41c80 0 131.5 22.833 154.5 68.5s35.5 91.167 37.5 136.5h150c0.666992 -6.66699 1 -17 1 -31c0 -60 -14.667 -116.5 -44 -169.5s-70.166 -95.667 -122.499 -128
s-111.5 -48.5 -177.5 -48.5c-69.333 0 -130 16 -182 48s-92 74.5 -120 127.5s-42 109.833 -42 170.5c0 14 0.333008 24.333 1 31h154z" />
    <glyph glyph-name="Ohungarumlaut" unicode="&#x150;" horiz-adv-x="1569" 
d="M193.5 1181c62.333 118.667 146.999 207.833 253.999 267.5s227.167 89.5 360.5 89.5c131.333 0 246.833 -31 346.5 -93s177 -149.833 232 -263.5s82.5 -246.167 82.5 -397.5c0 -171.333 -30.333 -317 -91 -437s-144.167 -210.5 -250.5 -271.5
s-228.166 -91.5 -365.499 -91.5c-132.667 0 -249 32.667 -349 98s-177.167 156 -231.5 272s-81.5 247.667 -81.5 395c0 169.333 31.167 313.333 93.5 432zM1192 1071c-34 90.667 -84.165 162.833 -150.498 216.5s-146.5 80.5 -240.5 80.5c-88.667 0 -169 -22.5 -241 -67.5
s-129.167 -113.167 -171.5 -204.5s-63.5 -204 -63.5 -338c0 -108 17.667 -207.833 53 -299.5s87.666 -165.167 156.999 -220.5s152.666 -83 249.999 -83c92.667 0 173.5 23.667 242.5 71s122.167 117.166 159.5 209.499s56 204.5 56 336.5
c0 108.667 -17 208.334 -51 299.001zM554.001 1853.5c66 91.667 100.001 140.5 102.001 146.5l172 -87c-44 -60.667 -88.833 -115.667 -134.5 -165s-85.834 -85 -120.501 -107l-124 69c4 4 39 51.833 105 143.5zM1026.5 1850c68.333 89.333 103.831 136.667 106.498 142
l163 -88c-37.333 -54 -79.666 -105.833 -126.999 -155.5s-89.666 -85.5 -126.999 -107.5l-125 69c4.66699 4 41.167 50.667 109.5 140z" />
    <glyph glyph-name="ohungarumlaut" unicode="&#x151;" horiz-adv-x="1213" 
d="M502 1826l162.001 -111c-20 -34 -50.5 -77 -91.5 -129s-82.833 -100.667 -125.5 -146s-76.334 -76.333 -101.001 -93l-103 71zM1009 1817l154.999 -110c-16.667 -32 -45.667 -73.667 -87 -125s-84.166 -99.5 -128.499 -144.5s-79.5 -75.167 -105.5 -90.5l-101 71z
M163 892.5c44.667 86.333 106.336 151.833 185.003 196.5s168 67 268 67c115.333 0 210.333 -26.667 285 -80s129.334 -124.666 164.001 -213.999s52 -190 52 -302c0 -122 -22.333 -226.333 -67 -313s-106.334 -152.167 -185.001 -196.5s-168.334 -66.5 -269.001 -66.5
c-114.667 0 -209.334 26.667 -284.001 80s-129.334 124.666 -164.001 213.999s-52 190 -52 302c0 122 22.333 226.167 67 312.5zM862.502 783.5c-21 66.333 -53.168 118.668 -96.501 157.001s-97.666 57.5 -162.999 57.5c-92.667 0 -163.167 -35.167 -211.5 -105.5
s-72.5 -170.833 -72.5 -301.5c0 -84.667 10.667 -161.167 32 -229.5s53.666 -122.333 96.999 -162s97 -59.5 161 -59.5c92.667 0 163.334 36.333 212.001 109s73 175 73 307c0 85.333 -10.5 161.166 -31.5 227.499z" />
    <glyph glyph-name="OE" unicode="&#x152;" horiz-adv-x="2063" 
d="M1989 175v-174.998h-949v51c-39.333 -22 -81.333 -38.667 -126 -50s-96 -17 -154 -17c-134.667 0 -252.334 33.833 -353.001 101.5s-177.667 161.167 -231 280.5s-78.666 253.666 -75.999 402.999c3.33301 163.333 34.833 301.666 94.5 414.999s141.667 199.5 246 258.5
s225.833 90.833 364.5 95.5c38.667 1.33301 78.5 -1 119.5 -7s79.5 -17 115.5 -33v24h876v-172h-653v-480h479v-172h-479v-523h726zM1040 232.002l-0.000976562 1077c-61.333 40 -141.333 60 -240 60c-86.667 0 -166 -22.167 -238 -66.5s-129.667 -112.166 -173 -203.499
s-65 -205 -65 -341c0 -109.333 17.667 -210.166 53 -302.499s87.833 -166 157.5 -221s152.834 -82.5 249.501 -82.5c102.667 0 188 26.667 256 80z" />
    <glyph glyph-name="oe" unicode="&#x153;" horiz-adv-x="1920" 
d="M1821 603.5c-1.33301 -31 -4.33496 -58.1641 -9.00195 -81.4971h-703c0.666992 -4.66699 1 -11.334 1 -20.001c11.333 -234 126.333 -351 345 -351c41.333 0 93.166 6.16699 155.499 18.5s106.833 26.5 133.5 42.5l42 -126c-36.667 -29.333 -92.667 -53.666 -168 -72.999
s-148.333 -29 -219 -29c-89.333 0 -167.833 16.167 -235.5 48.5s-122.834 79.833 -165.501 142.5c-45.333 -62.667 -103 -110.167 -173 -142.5s-147.333 -48.5 -232 -48.5c-114 0 -208.167 26.667 -282.5 80s-128.666 124.666 -162.999 213.999s-51.5 190 -51.5 302
c0 122 22.333 226.167 67 312.5s106.334 151.833 185.001 196.5s168 67 268 67c90 0 167.333 -16.833 232 -50.5s117.334 -80.834 158.001 -141.501c44 61.333 100.333 108.666 169 141.999s147.667 50 237 50c76 0 144.5 -16.5 205.5 -49.5s109.833 -81.833 146.5 -146.5
s56.334 -142.667 59.001 -234c0 -50.667 -0.666992 -91.5 -2 -122.5zM820.498 249.003c49.667 72.667 74.501 174.999 74.501 306.999c0 84.667 -10.667 160.334 -32 227.001s-53.833 119.167 -97.5 157.5s-97.834 57.5 -162.501 57.5c-92 0 -162.333 -35.167 -211 -105.5
s-73 -170.833 -73 -301.5c0 -84.667 10.5 -161 31.5 -229s53 -122 96 -162s96.167 -60 159.5 -60c93.333 0 164.833 36.333 214.5 109zM1618 715.002c0 84.667 -17.168 153.333 -51.501 206s-93.166 79 -176.499 79c-74 0 -135.333 -26.167 -184 -78.5
s-79 -136.833 -91 -253.5h501c1.33301 21.333 2 37 2 47z" />
    <glyph glyph-name="Racute" unicode="&#x154;" horiz-adv-x="1367" 
d="M1306 0l-253.001 0.000976562c-10 14.667 -21 35.667 -33 63l-22 49c-12.667 26.667 -32.334 75 -59.001 145c-28 74.667 -53.167 136.5 -75.5 185.5s-48.666 92.833 -78.999 131.5s-64.5 64 -102.5 76c-39.333 -1.33301 -127.666 -2 -264.999 -2v-648h-223v1522h97
c36 0 88.333 2.33301 157 7c106.667 6 183.667 9 231 9c162.667 0 289.667 -34.833 381 -104.5s137 -177.5 137 -323.5c0 -109.333 -23.833 -199.333 -71.5 -270s-115.5 -121.334 -203.5 -152.001c30 -20.667 58 -50 84 -88s49.5 -78.5 70.5 -121.5
s46.167 -98.833 75.5 -167.5c41.333 -94 72.333 -160.333 93 -199zM651.999 800.001c102 0 180.333 24.168 235 72.501s82 123.833 82 226.5c0 64 -10.833 116.167 -32.5 156.5s-56 70.166 -103 89.499s-109.5 29 -187.5 29c-93.333 0 -169.666 -6 -228.999 -18v-550
c35.333 -4 113.666 -6 234.999 -6zM779.999 1843.5c94.667 85.667 143 131.166 145 136.499l146 -133c-49.333 -50.667 -114 -104.167 -194 -160.5s-147.333 -94.166 -202 -113.499l-93 92z" />
    <glyph glyph-name="racute" unicode="&#x155;" horiz-adv-x="819" 
d="M381 1407l187.498 210.503c45.667 53 88.834 108.167 129.501 165.5l156 -135c-16 -26.667 -50.333 -66.834 -103 -120.501s-106.667 -103.834 -162 -150.501s-94.666 -74.334 -117.999 -83.001l-111 90zM786.998 1143l-0.000976562 -206.001
c-14 8 -32.167 14.5 -54.5 19.5s-54.166 7.5 -95.499 7.5c-50.667 0 -97.5 -9.16699 -140.5 -27.5s-79.167 -40.5 -108.5 -66.5v-870h-220v1138h185l15 -126c14.667 20 38.5 41.333 71.5 64s70.667 41.834 113 57.501s83.5 23.5 123.5 23.5
c53.333 0 90.333 -4.66699 111 -14z" />
    <glyph glyph-name="Rcommaaccent" unicode="&#x156;" horiz-adv-x="1367" 
d="M602 -493c10.667 12.667 19.833 32.332 27.5 58.999s11.5 55.334 11.5 86.001c0 27.333 -6.33301 53.833 -19 79.5s-28.667 40.5 -48 44.5v50l158 92c26.667 -12.667 49.5 -38 68.5 -76s28.5 -83.333 28.5 -136c0 -43.333 -8 -83.5 -24 -120.5s-35.667 -68 -59 -93
s-46.333 -42.5 -69 -52.5l-75 41v26zM1306 -0.00195312l-253.001 0.000976562c-10 14.667 -21 35.667 -33 63l-22 49c-12.667 26.667 -32.334 75 -59.001 145c-28 74.667 -53.167 136.5 -75.5 185.5s-48.666 92.833 -78.999 131.5s-64.5 64 -102.5 76
c-39.333 -1.33301 -127.666 -2 -264.999 -2v-648h-223v1522h97c36 0 88.333 2.33301 157 7c106.667 6 183.667 9 231 9c162.667 0 289.667 -34.833 381 -104.5s137 -177.5 137 -323.5c0 -109.333 -23.833 -199.333 -71.5 -270s-115.5 -121.334 -203.5 -152.001
c30 -20.667 58 -50 84 -88s49.5 -78.5 70.5 -121.5s46.167 -98.833 75.5 -167.5c41.333 -94 72.333 -160.333 93 -199zM651.998 799.999c102 0 180.333 24.168 235 72.501s82 123.833 82 226.5c0 64 -10.833 116.167 -32.5 156.5s-56 70.166 -103 89.499
s-109.5 29 -187.5 29c-93.333 0 -169.666 -6 -228.999 -18v-550c35.333 -4 113.666 -6 234.999 -6z" />
    <glyph glyph-name="rcommaaccent" unicode="&#x157;" horiz-adv-x="819" 
d="M185 -493c10.667 12.667 19.833 32.332 27.5 58.999s11.5 55.334 11.5 86.001c0 27.333 -6.33301 53.833 -19 79.5s-28.667 40.5 -48 44.5v50l158 92c26.667 -12.667 49.5 -38 68.5 -76s28.5 -83.333 28.5 -136c0 -43.333 -8 -83.5 -24 -120.5s-35.667 -68 -59 -93
s-46.333 -42.5 -69 -52.5l-75 41v26zM786.999 1143l-0.000976562 -206.001c-14 8 -32.167 14.5 -54.5 19.5s-54.166 7.5 -95.499 7.5c-50.667 0 -97.5 -9.16699 -140.5 -27.5s-79.167 -40.5 -108.5 -66.5v-870h-220v1138h185l15 -126c14.667 20 38.5 41.333 71.5 64
s70.667 41.834 113 57.501s83.5 23.5 123.5 23.5c53.333 0 90.333 -4.66699 111 -14z" />
    <glyph glyph-name="Rcaron" unicode="&#x158;" horiz-adv-x="1367" 
d="M495 1990l216 -174l221 174l120 -57l-242 -263h-197l-246 260zM1306 0l-253.001 0.000976562c-10 14.667 -21 35.667 -33 63l-22 49c-12.667 26.667 -32.334 75 -59.001 145c-28 74.667 -53.167 136.5 -75.5 185.5s-48.666 92.833 -78.999 131.5s-64.5 64 -102.5 76
c-39.333 -1.33301 -127.666 -2 -264.999 -2v-648h-223v1522h97c36 0 88.333 2.33301 157 7c106.667 6 183.667 9 231 9c162.667 0 289.667 -34.833 381 -104.5s137 -177.5 137 -323.5c0 -109.333 -23.833 -199.333 -71.5 -270s-115.5 -121.334 -203.5 -152.001
c30 -20.667 58 -50 84 -88s49.5 -78.5 70.5 -121.5s46.167 -98.833 75.5 -167.5c41.333 -94 72.333 -160.333 93 -199zM651.999 800.001c102 0 180.333 24.168 235 72.501s82 123.833 82 226.5c0 64 -10.833 116.167 -32.5 156.5s-56 70.166 -103 89.499
s-109.5 29 -187.5 29c-93.333 0 -169.666 -6 -228.999 -18v-550c35.333 -4 113.666 -6 234.999 -6z" />
    <glyph glyph-name="rcaron" unicode="&#x159;" horiz-adv-x="819" 
d="M493 1487l232 222l135 -56l-268 -332h-198l-276 333l126 56zM787 1143l-0.000976562 -206.001c-14 8 -32.167 14.5 -54.5 19.5s-54.166 7.5 -95.499 7.5c-50.667 0 -97.5 -9.16699 -140.5 -27.5s-79.167 -40.5 -108.5 -66.5v-870h-220v1138h185l15 -126
c14.667 20 38.5 41.333 71.5 64s70.667 41.834 113 57.501s83.5 23.5 123.5 23.5c53.333 0 90.333 -4.66699 111 -14z" />
    <glyph glyph-name="Sacute" unicode="&#x15a;" horiz-adv-x="1132" 
d="M181 254c40.667 -25.333 94.3311 -47.166 160.998 -65.499s132.667 -27.5 198 -27.5c98.667 0 173.834 17 225.501 51s77.5 87.333 77.5 160c0 48 -12.5 89 -37.5 123s-59.5 64.333 -103.5 91s-109.333 61 -196 103c-111.333 54 -202.666 118.667 -273.999 194
s-107 163.333 -107 264c0 92 24 167.167 72 225.5s110 100.5 186 126.5s158.667 39 248 39c83.333 0 155 -7.83301 215 -23.5s106.333 -34.167 139 -55.5l-45 -176c-43.333 26 -87.666 45.833 -132.999 59.5s-105 20.5 -179 20.5c-50.667 0 -98 -6.66699 -142 -20
s-79.667 -34 -107 -62s-41 -62.667 -41 -104c0 -48.667 9.66699 -89.167 29 -121.5s49.166 -62 89.499 -89s101.833 -61.833 184.5 -104.5c85.333 -44 156.833 -85.5 214.5 -124.5s106.5 -86.833 146.5 -143.5s60 -122 60 -196c0 -91.333 -21.167 -168 -63.5 -230
s-101.5 -108.167 -177.5 -138.5s-164.667 -45.5 -266 -45.5c-62.667 0 -123.167 4.66699 -181.5 14s-109 20.666 -152 33.999s-74.167 26.333 -93.5 39zM672.997 1843.5c94.667 85.667 143 131.166 145 136.499l146 -133c-49.333 -50.667 -114 -104.167 -194 -160.5
s-147.333 -94.166 -202 -113.499l-93 92z" />
    <glyph glyph-name="sacute" unicode="&#x15b;" horiz-adv-x="977" 
d="M401 1407l187.498 210.503c45.667 53 88.834 108.167 129.501 165.5l156 -135c-16 -26.667 -50.333 -66.834 -103 -120.501s-106.667 -103.834 -162 -150.501s-94.666 -74.334 -117.999 -83.001l-111 90zM214.998 196.503c34 -13 73.668 -24.499 119.001 -34.499
s90.333 -15 135 -15c65.333 0 115.5 12.333 150.5 37s52.5 59 52.5 103c0 42 -19.833 78 -59.5 108s-98.167 61.333 -175.5 94c-100.667 42.667 -178.834 92.667 -234.501 150s-83.5 129.666 -83.5 216.999c0 64.667 18.167 119.5 54.5 164.5s85.5 78.833 147.5 101.5
s132 34 210 34c61.333 0 119 -6.66699 173 -20s92.667 -26.333 116 -39l-36 -166c-18.667 16 -51.667 30.5 -99 43.5s-96.333 19.5 -147 19.5c-70 0 -123.5 -11.333 -160.5 -34s-55.5 -53.667 -55.5 -93c0 -33.333 8.5 -62 25.5 -86s41.167 -45 72.5 -63
s72.333 -37.333 123 -58c97.333 -39.333 177.333 -86.833 240 -142.5s94 -127.167 94 -214.5c0 -68 -16.167 -125.833 -48.5 -173.5s-78.666 -83.834 -138.999 -108.501s-131.833 -37 -214.5 -37c-74 0 -145.833 8.33301 -215.5 25s-118.834 35.334 -147.501 56.001l33 164
c12.667 -8.66699 36 -19.5 70 -32.5z" />
    <glyph glyph-name="Scircumflex" unicode="&#x15c;" horiz-adv-x="1132" 
d="M181 254c40.667 -25.333 94.3311 -47.166 160.998 -65.499s132.667 -27.5 198 -27.5c98.667 0 173.834 17 225.501 51s77.5 87.333 77.5 160c0 48 -12.5 89 -37.5 123s-59.5 64.333 -103.5 91s-109.333 61 -196 103c-111.333 54 -202.666 118.667 -273.999 194
s-107 163.333 -107 264c0 92 24 167.167 72 225.5s110 100.5 186 126.5s158.667 39 248 39c83.333 0 155 -7.83301 215 -23.5s106.333 -34.167 139 -55.5l-45 -176c-43.333 26 -87.666 45.833 -132.999 59.5s-105 20.5 -179 20.5c-50.667 0 -98 -6.66699 -142 -20
s-79.667 -34 -107 -62s-41 -62.667 -41 -104c0 -48.667 9.66699 -89.167 29 -121.5s49.166 -62 89.499 -89s101.833 -61.833 184.5 -104.5c85.333 -44 156.833 -85.5 214.5 -124.5s106.5 -86.833 146.5 -143.5s60 -122 60 -196c0 -91.333 -21.167 -168 -63.5 -230
s-101.5 -108.167 -177.5 -138.5s-164.667 -45.5 -266 -45.5c-62.667 0 -123.167 4.66699 -181.5 14s-109 20.666 -152 33.999s-74.167 26.333 -93.5 39zM503.997 1990h197l262 -298l-144 -60l-216 202l-221 -202l-137 57z" />
    <glyph glyph-name="scircumflex" unicode="&#x15d;" horiz-adv-x="977" 
d="M412 1682h198l268 -332l-135 -56l-232 222l-249 -223l-126 56zM215 196.5c34 -13 73.668 -24.499 119.001 -34.499s90.333 -15 135 -15c65.333 0 115.5 12.333 150.5 37s52.5 59 52.5 103c0 42 -19.833 78 -59.5 108s-98.167 61.333 -175.5 94
c-100.667 42.667 -178.834 92.667 -234.501 150s-83.5 129.666 -83.5 216.999c0 64.667 18.167 119.5 54.5 164.5s85.5 78.833 147.5 101.5s132 34 210 34c61.333 0 119 -6.66699 173 -20s92.667 -26.333 116 -39l-36 -166c-18.667 16 -51.667 30.5 -99 43.5
s-96.333 19.5 -147 19.5c-70 0 -123.5 -11.333 -160.5 -34s-55.5 -53.667 -55.5 -93c0 -33.333 8.5 -62 25.5 -86s41.167 -45 72.5 -63s72.333 -37.333 123 -58c97.333 -39.333 177.333 -86.833 240 -142.5s94 -127.167 94 -214.5c0 -68 -16.167 -125.833 -48.5 -173.5
s-78.666 -83.834 -138.999 -108.501s-131.833 -37 -214.5 -37c-74 0 -145.833 8.33301 -215.5 25s-118.834 35.334 -147.501 56.001l33 164c12.667 -8.66699 36 -19.5 70 -32.5z" />
    <glyph glyph-name="Scedilla" unicode="&#x15e;" horiz-adv-x="1132" 
d="M948 108.5c-76 -69 -180.337 -109.5 -313.004 -121.5c20.667 -42 31 -97.667 31 -167c0 -10 -0.666992 -26.333 -2 -49c-6.66699 -79.333 -32.5 -138.333 -77.5 -177s-99.167 -58 -162.5 -58c-28 0 -56.667 2.66699 -86 8s-49.666 12 -60.999 20l15 142
c14.667 -9.33301 42 -14 82 -14c35.333 0 64.5 12.167 87.5 36.5s36.167 62.166 39.5 113.499c3.33301 21.333 5 44.333 5 69c0 28 -2.66699 52.667 -8 74c-81.333 4 -156.333 14.833 -225 32.5s-117 35.5 -145 53.5l53 183c40.667 -25.333 94.334 -47.166 161.001 -65.499
s132.667 -27.5 198 -27.5c98.667 0 173.834 17 225.501 51s77.5 87.333 77.5 160c0 48 -12.5 89 -37.5 123s-59.5 64.333 -103.5 91s-109.333 61 -196 103c-111.333 54 -202.666 118.667 -273.999 194s-107 163.333 -107 264c0 92 24 167.167 72 225.5s110 100.5 186 126.5
s158.667 39 248 39c83.333 0 155 -7.83301 215 -23.5s106.333 -34.167 139 -55.5l-45 -176c-43.333 26 -87.666 45.833 -132.999 59.5s-105 20.5 -179 20.5c-50.667 0 -98 -6.66699 -142 -20s-79.667 -34 -107 -62s-41 -62.667 -41 -104
c0 -48.667 9.66699 -89.167 29 -121.5s49.166 -62 89.499 -89s101.833 -61.833 184.5 -104.5c85.333 -44 156.833 -85.5 214.5 -124.5s106.5 -86.833 146.5 -143.5s60 -122 60 -196c0 -124 -38 -220.5 -114 -289.5z" />
    <glyph glyph-name="scedilla" unicode="&#x15f;" horiz-adv-x="977" 
d="M795 88.5c-54.667 -53.667 -131.333 -86.8301 -230 -99.4971c20.667 -42 31 -98 31 -168c0 -10.667 -0.666992 -27.334 -2 -50.001c-6.66699 -79.333 -32.5 -138.333 -77.5 -177s-99.167 -58 -162.5 -58c-28 0 -56.667 2.66699 -86 8s-49.666 12 -60.999 20l15 142
c14.667 -9.33301 42 -14 82 -14c35.333 0 64.5 12.167 87.5 36.5s36.167 62.166 39.5 113.499c3.33301 21.333 5 44.333 5 69c0 28 -2.66699 52.667 -8 74c-66.667 4 -129.5 13.667 -188.5 29s-101.5 32.333 -127.5 51l33 164c12.667 -8.66699 36 -19.5 70 -32.5
s73.667 -24.5 119 -34.5s90.333 -15 135 -15c65.333 0 115.5 12.333 150.5 37s52.5 59 52.5 103c0 42 -19.833 78 -59.5 108s-98.167 61.333 -175.5 94c-100.667 42.667 -178.834 92.667 -234.501 150s-83.5 129.666 -83.5 216.999c0 64.667 18.167 119.5 54.5 164.5
s85.5 78.833 147.5 101.5s132 34 210 34c61.333 0 119 -6.66699 173 -20s92.667 -26.333 116 -39l-36 -166c-18.667 16 -51.667 30.5 -99 43.5s-96.333 19.5 -147 19.5c-70 0 -123.5 -11.333 -160.5 -34s-55.5 -53.667 -55.5 -93c0 -33.333 8.5 -62 25.5 -86
s41.167 -45 72.5 -63s72.333 -37.333 123 -58c97.333 -39.333 177.333 -86.833 240 -142.5s94 -127.167 94 -214.5c0 -89.333 -27.333 -160.833 -82 -214.5z" />
    <glyph glyph-name="Scaron" unicode="&#x160;" horiz-adv-x="1132" 
d="M181 254c40.667 -25.333 94.3311 -47.166 160.998 -65.499s132.667 -27.5 198 -27.5c98.667 0 173.834 17 225.501 51s77.5 87.333 77.5 160c0 48 -12.5 89 -37.5 123s-59.5 64.333 -103.5 91s-109.333 61 -196 103c-111.333 54 -202.666 118.667 -273.999 194
s-107 163.333 -107 264c0 92 24 167.167 72 225.5s110 100.5 186 126.5s158.667 39 248 39c83.333 0 155 -7.83301 215 -23.5s106.333 -34.167 139 -55.5l-45 -176c-43.333 26 -87.666 45.833 -132.999 59.5s-105 20.5 -179 20.5c-50.667 0 -98 -6.66699 -142 -20
s-79.667 -34 -107 -62s-41 -62.667 -41 -104c0 -48.667 9.66699 -89.167 29 -121.5s49.166 -62 89.499 -89s101.833 -61.833 184.5 -104.5c85.333 -44 156.833 -85.5 214.5 -124.5s106.5 -86.833 146.5 -143.5s60 -122 60 -196c0 -91.333 -21.167 -168 -63.5 -230
s-101.5 -108.167 -177.5 -138.5s-164.667 -45.5 -266 -45.5c-62.667 0 -123.167 4.66699 -181.5 14s-109 20.666 -152 33.999s-74.167 26.333 -93.5 39zM387.997 1990l216 -174l221 174l120 -57l-242 -263h-197l-246 260z" />
    <glyph glyph-name="scaron" unicode="&#x161;" horiz-adv-x="977" 
d="M513 1487l232 222l135 -56l-268 -332h-198l-276 333l126 56zM215 196.5c34 -13 73.668 -24.499 119.001 -34.499s90.333 -15 135 -15c65.333 0 115.5 12.333 150.5 37s52.5 59 52.5 103c0 42 -19.833 78 -59.5 108s-98.167 61.333 -175.5 94
c-100.667 42.667 -178.834 92.667 -234.501 150s-83.5 129.666 -83.5 216.999c0 64.667 18.167 119.5 54.5 164.5s85.5 78.833 147.5 101.5s132 34 210 34c61.333 0 119 -6.66699 173 -20s92.667 -26.333 116 -39l-36 -166c-18.667 16 -51.667 30.5 -99 43.5
s-96.333 19.5 -147 19.5c-70 0 -123.5 -11.333 -160.5 -34s-55.5 -53.667 -55.5 -93c0 -33.333 8.5 -62 25.5 -86s41.167 -45 72.5 -63s72.333 -37.333 123 -58c97.333 -39.333 177.333 -86.833 240 -142.5s94 -127.167 94 -214.5c0 -68 -16.167 -125.833 -48.5 -173.5
s-78.666 -83.834 -138.999 -108.501s-131.833 -37 -214.5 -37c-74 0 -145.833 8.33301 -215.5 25s-118.834 35.334 -147.501 56.001l33 164c12.667 -8.66699 36 -19.5 70 -32.5z" />
    <glyph glyph-name="uni0162" unicode="&#x162;" horiz-adv-x="1303" 
d="M1240 1522l-0.000976562 -171.999h-477v-1350h-50c24.667 -45.333 37 -105 37 -179c0 -10.667 -0.666992 -27.334 -2 -50.001c-6.66699 -79.333 -32.5 -138.333 -77.5 -177s-99.167 -58 -162.5 -58c-28 0 -56.667 2.66699 -86 8s-49.666 12 -60.999 20l15 142
c14.667 -9.33301 42 -14 82 -14c35.333 0 64.5 12.167 87.5 36.5s36.167 62.166 39.5 113.499c3.33301 21.333 5 44.333 5 69c0 34.667 -4.33301 64.334 -13 89.001h-39v1350h-475v172h1177z" />
    <glyph glyph-name="uni0163" unicode="&#x163;" horiz-adv-x="850" 
d="M679 16.5c-54.667 -18.333 -108 -28.833 -160 -31.5c19.333 -44 29 -99 29 -165c0 -10 -0.666992 -26.333 -2 -49c-6.66699 -79.333 -32.5 -138.333 -77.5 -177s-99.167 -58 -162.5 -58c-28 0 -56.667 2.66699 -86 8s-49.666 12 -60.999 20l15 142
c14.667 -9.33301 42 -14 82 -14c35.333 0 64.5 12.167 87.5 36.5s36.167 62.166 39.5 113.499c3.33301 21.333 5 44.333 5 69c0 34.667 -4.33301 64.334 -13 89.001c-46.667 15.333 -82.834 44.666 -108.501 87.999s-38.5 105 -38.5 185v701h-148v119l36 10
c30.667 8.66699 53.334 15.834 68.001 21.501s27.5 13.667 38.5 24s19.833 24.5 26.5 42.5c10 25.333 24.667 71 44 137l22 72h132v-260h322v-166h-322v-577c0 -76 3 -129.833 9 -161.5s17.167 -52.167 33.5 -61.5s44.166 -14 83.499 -14c28.667 0 63.5 4.66699 104.5 14
s71.167 19 90.5 29l38 -126c-30 -22 -72.333 -42.167 -127 -60.5z" />
    <glyph glyph-name="Tcaron" unicode="&#x164;" horiz-adv-x="1303" 
d="M428 1990l216 -174l221 174l120 -57l-242 -263h-197l-246 260zM63 1350v172h1177v-172h-477v-1350h-225v1350h-475z" />
    <glyph glyph-name="tcaron" unicode="&#x165;" horiz-adv-x="1047" 
d="M228 974l-148 -0.000976562v119l36 10c30.667 8.66699 53.334 15.834 68.001 21.501s27.5 13.667 38.5 24s19.833 24.5 26.5 42.5c10 25.333 24.667 71 44 137l22 72h132v-260h322v-166h-322v-577c0 -76 3 -129.833 9 -161.5s17.167 -52.167 33.5 -61.5
s44.166 -14 83.499 -14c28.667 0 63.5 4.66699 104.5 14s71.167 19 90.5 29l38 -126c-32.667 -24 -79.5 -45.5 -140.5 -64.5s-119.167 -28.5 -174.5 -28.5c-83.333 0 -148 20.833 -194 62.5s-69 117.167 -69 226.5v701zM803 1225l12 41c12 38 21 73.833 27 107.5
s9 79.834 9 138.501c0 37.333 -5.83301 76.166 -17.5 116.499s-24.167 68.833 -37.5 85.5l14 47l176 55c20.667 -18.667 36.167 -49.5 46.5 -92.5s15.5 -92.5 15.5 -148.5c0 -83.333 -12.333 -162.333 -37 -237s-54.667 -133 -90 -175l-110 34z" />
    <glyph glyph-name="Tbar" unicode="&#x166;" horiz-adv-x="1303" 
d="M763 1350v-554h296v-145h-296v-651h-225v651h-289v145h289v554h-475v172h1177v-172h-477z" />
    <glyph glyph-name="tbar" unicode="&#x167;" horiz-adv-x="850" 
d="M806 77c-32.667 -24 -79.5 -45.501 -140.5 -64.501s-119.167 -28.5 -174.5 -28.5c-83.333 0 -148 20.833 -194 62.5s-69 117.167 -69 226.5v323h-147v164h147v214h-148v119l36 10c30.667 8.66699 53.334 15.834 68.001 21.501s27.5 13.667 38.5 24s19.833 24.5 26.5 42.5
c10 25.333 24.667 71 44 137l22 72h132v-260h322v-166h-322v-214h322v-164h-322v-199c0 -76 3 -129.833 9 -161.5s17.167 -52.167 33.5 -61.5s44.166 -14 83.499 -14c28.667 0 63.5 4.66699 104.5 14s71.167 19 90.5 29z" />
    <glyph glyph-name="Utilde" unicode="&#x168;" horiz-adv-x="1463" 
d="M398 1871c30.667 30 65 53.334 103 70.001s74.667 25 110 25c38.667 0 70.667 -7 96 -21s53 -34 83 -60c23.333 -20 42.833 -34.667 58.5 -44s33.5 -14 53.5 -14c32.667 0 63.334 9.33301 92.001 28s56.334 42.334 83.001 71.001l86 -71
c-15.333 -36.667 -38.333 -69.834 -69 -99.501s-64.834 -52.834 -102.501 -69.501s-74.167 -25 -109.5 -25c-38.667 0 -70.834 7.16699 -96.501 21.5s-53.167 34.833 -82.5 61.5c-22.667 20.667 -42.167 36 -58.5 46s-34.833 15 -55.5 15c-54.667 0 -113 -34 -175 -102
l-85 68c15.333 36.667 38.333 70 69 100zM159 1522l223 0.000976562l-1 -836c0 -136.667 14 -243.5 42 -320.5s68.5 -130.833 121.5 -161.5s120.833 -46 203.5 -46c73.333 0 134.333 15.5 183 46.5s86.167 85.167 112.5 162.5s39.5 183.666 39.5 318.999v836h222v-892
c0 -210 -47 -370.167 -141 -480.5s-235 -165.5 -423 -165.5c-203.333 0 -351.333 55 -444 165s-138.667 271.333 -138 484v889z" />
    </font>
</defs>
</svg>
